<svg width="15" height="15" viewBox="0 0 15 15" fill="none" xmlns="http://www.w3.org/2000/svg">
<g clip-path="url(#clip0_1_24)">
<path d="M3.33333 3V0.749999C3.33333 0.551087 3.42113 0.360322 3.57741 0.21967C3.73369 0.0790175 3.94565 0 4.16667 0H14.1667C14.3877 0 14.5996 0.0790175 14.7559 0.21967C14.9122 0.360322 15 0.551087 15 0.749999V11.25C15 11.4489 14.9122 11.6397 14.7559 11.7803C14.5996 11.921 14.3877 12 14.1667 12H11.6667V14.25C11.6667 14.664 11.2917 15 10.8275 15H0.839167C0.729272 15.0006 0.620331 14.9816 0.518602 14.9442C0.416873 14.9068 0.324361 14.8517 0.246382 14.782C0.168403 14.7123 0.106494 14.6294 0.0642119 14.5381C0.0219297 14.4468 0.000107812 14.3489 0 14.25L0.00250002 3.75C0.00250002 3.336 0.3775 3 0.840833 3H3.33333ZM1.66833 4.5L1.66667 13.5H10V4.5H1.66833ZM5 3H11.6667V10.5H13.3333V1.5H5V3ZM3.33333 6.74999H8.33333V8.24999H3.33333V6.74999ZM3.33333 9.74999H8.33333V11.25H3.33333V9.74999Z" fill="#F6F6F6"/>
</g>
<defs>
<clipPath id="clip0_1_24">
<rect width="15" height="15" fill="white"/>
</clipPath>
</defs>
</svg>
