<svg width="32" height="32" viewBox="0 0 32 32" fill="none" xmlns="http://www.w3.org/2000/svg">
<path d="M18.667 14C18.667 13.4696 18.8777 12.9609 19.2528 12.5858C19.6279 12.2107 20.1366 12 20.667 12C21.1974 12 21.7061 12.2107 22.0812 12.5858C22.4563 12.9609 22.667 13.4696 22.667 14V16M10.667 17.3333V6C10.667 5.46957 10.8777 4.96086 11.2528 4.58579C11.6279 4.21071 12.1366 4 12.667 4C13.1974 4 13.7061 4.21071 14.0812 4.58579C14.4563 4.96086 14.667 5.46957 14.667 6V16L10.667 17.3333ZM14.667 15.3333V12.6667C14.667 12.1362 14.8777 11.6275 15.2528 11.2525C15.6279 10.8774 16.1366 10.6667 16.667 10.6667C17.1974 10.6667 17.7061 10.8774 18.0812 11.2525C18.4563 11.6275 18.667 12.1362 18.667 12.6667V16L14.667 15.3333Z" stroke="#67686A" stroke-width="2" stroke-linecap="round" stroke-linejoin="round"/>
<path d="M20 8.00002H21.3333M22.6667 15.3334C22.6667 14.8029 22.8774 14.2942 23.2525 13.9191C23.6275 13.5441 24.1362 13.3334 24.6667 13.3334C25.1971 13.3334 25.7058 13.5441 26.0809 13.9191C26.456 14.2942 26.6667 14.8029 26.6667 15.3334V21.3334C26.6667 23.4551 25.8238 25.4899 24.3235 26.9902C22.8232 28.4905 20.7884 29.3334 18.6667 29.3334H16H16.2773C14.9524 29.3336 13.6482 29.0047 12.4818 28.3764C11.3154 27.748 10.3234 26.8398 9.59467 25.7334L9.33333 25.3334C8.91733 24.6947 7.45733 22.1494 4.952 17.696C4.6966 17.2421 4.62838 16.7064 4.76184 16.2029C4.89531 15.6994 5.21993 15.2679 5.66667 15C6.1425 14.7145 6.7001 14.5962 7.25088 14.6638C7.80166 14.7315 8.31405 14.9812 8.70667 15.3734L10.6667 17.3334L22.6667 15.3334ZM6.66667 4.00002L5.33333 2.66669L6.66667 4.00002ZM5.33333 9.33335H4H5.33333ZM18.6667 4.00002L20 2.66669L18.6667 4.00002Z" stroke="#67686A" stroke-width="2" stroke-linecap="round" stroke-linejoin="round"/>
</svg>
