<svg width="32" height="32" viewBox="0 0 32 32" fill="none" xmlns="http://www.w3.org/2000/svg">
<path d="M17.2673 8.20889C16.9674 7.9232 16.4926 7.93475 16.2069 8.23467C15.9212 8.5346 15.9328 9.00933 16.2327 9.29502L22.4841 15.2496H7.75C7.33579 15.2496 7 15.5854 7 15.9996C7 16.4138 7.33579 16.7496 7.75 16.7496H22.4842L16.2327 22.7043C15.9328 22.99 15.9212 23.4648 16.2069 23.7647C16.4926 24.0646 16.9674 24.0762 17.2673 23.7905L24.6862 16.7238C24.8551 16.5629 24.9551 16.3576 24.9861 16.1443C24.9952 16.0975 25 16.0491 25 15.9996C25 15.9501 24.9952 15.9016 24.986 15.8547C24.955 15.6415 24.855 15.4364 24.6862 15.2756L17.2673 8.20889Z" fill="#1B1C1F"/>
</svg>
