<svg width="32" height="32" viewBox="0 0 32 32" fill="none" xmlns="http://www.w3.org/2000/svg">
<path d="M27.04 8.18537H16.27L12.751 4.08049C12.7062 4.02937 12.6473 4.00064 12.586 4H4.96C4.429 4 4 4.52317 4 5.17073V26.8293C4 27.4768 4.429 28 4.96 28H27.04C27.571 28 28 27.4768 28 26.8293V9.3561C28 8.70854 27.571 8.18537 27.04 8.18537ZM19.6 18.378C19.6 18.5171 19.498 18.6341 19.375 18.6341H16.84V21.7402C16.84 21.8829 16.744 22 16.63 22H15.37C15.256 22 15.16 21.8829 15.16 21.7402V18.6341H12.625C12.502 18.6341 12.4 18.5171 12.4 18.378V16.8415C12.4 16.7024 12.502 16.5854 12.625 16.5854H15.16V13.4793C15.16 13.3366 15.256 13.2195 15.37 13.2195H16.63C16.744 13.2195 16.84 13.3366 16.84 13.4793V16.5854H19.375C19.498 16.5854 19.6 16.7024 19.6 16.8415V18.378Z" fill="#67686A"/>
</svg>
