<svg width="32" height="32" viewBox="0 0 32 32" fill="none" xmlns="http://www.w3.org/2000/svg">
<path opacity="0.35" d="M4.5 12.6667C4.5 11.47 5.47005 10.5 6.66667 10.5H23.3333C24.53 10.5 25.5 11.47 25.5 12.6667V18.6667C25.5 19.8633 24.53 20.8333 23.3333 20.8333H6.66667C5.47005 20.8333 4.5 19.8633 4.5 18.6667V12.6667Z" stroke="#67686A"/>
<path opacity="0.4" d="M27 13.6667V17.6667C27.8047 17.3279 28.328 16.5398 28.328 15.6667C28.328 14.7936 27.8047 14.0055 27 13.6667Z" fill="#67686A"/>
<path d="M6 13.3333C6 12.597 6.59695 12 7.33333 12H22.6667C23.403 12 24 12.597 24 13.3333V18C24 18.7364 23.403 19.3333 22.6667 19.3333H7.33333C6.59695 19.3333 6 18.7364 6 18V13.3333Z" fill="#67686A"/>
</svg>
