<svg width="32" height="32" viewBox="0 0 32 32" fill="none" xmlns="http://www.w3.org/2000/svg">
<path d="M22.2498 24.5009C22.664 24.5008 23 24.8365 23 25.2507C23 25.6649 22.6644 26.0008 22.2502 26.0009L9.25022 26.0047C8.836 26.0048 8.5 25.6691 8.5 25.2549C8.5 24.8407 8.83557 24.5048 9.24978 24.5047L22.2498 24.5009ZM15.6482 6.01271L15.75 6.00586C16.1297 6.00586 16.4435 6.28801 16.4932 6.65409L16.5 6.75586L16.499 20.4409L20.2208 16.7205C20.4871 16.4543 20.9038 16.4301 21.1974 16.648L21.2815 16.7206C21.5477 16.9869 21.5719 17.4036 21.354 17.6972L21.2814 17.7813L16.2837 22.7779C16.0176 23.044 15.6012 23.0683 15.3076 22.8507L15.2235 22.7782L10.22 17.7816C9.92694 17.4889 9.92661 17.014 10.2193 16.7209C10.4854 16.4545 10.902 16.43 11.1958 16.6477L11.28 16.7202L14.999 20.4339L15 6.75586C15 6.37616 15.2822 6.06237 15.6482 6.01271L15.75 6.00586L15.6482 6.01271Z" fill="#67686A"/>
</svg>
