<svg width="32" height="32" viewBox="0 0 32 32" fill="none" xmlns="http://www.w3.org/2000/svg">
<path d="M27.9362 4.0639C26.0727 2.20054 23.0517 2.20064 21.1885 4.0641L5.25503 19.9994C4.71326 20.5412 4.33246 21.2227 4.15499 21.9682L2.6942 28.1034C2.61378 28.4412 2.71435 28.7966 2.9599 29.0422C3.20546 29.2876 3.56082 29.3883 3.89863 29.3078L10.0336 27.8471C10.7792 27.6695 11.4609 27.2886 12.0029 26.7466L27.9363 10.8113C29.7994 8.94794 29.7994 5.92712 27.9362 4.0639ZM22.6027 5.47824C23.6849 4.39589 25.4397 4.39584 26.5219 5.47812C27.6041 6.56032 27.6042 8.31488 26.5221 9.39713L25.3337 10.5857L21.4145 6.66661L22.6027 5.47824ZM20.0003 8.0809L23.9195 12L10.5886 25.3324C10.3084 25.6127 9.9559 25.8096 9.57039 25.9015L5.0162 26.9858L6.1006 22.4314C6.19235 22.046 6.38923 21.6936 6.66932 21.4135L20.0003 8.0809Z" fill="#67686A"/>
</svg>
