<svg width="20" height="20" viewBox="0 0 20 20" fill="none" xmlns="http://www.w3.org/2000/svg">
<path d="M20 10.23C20 9.55023 19.9438 8.86681 19.8237 8.19808H10.2015V12.0488H15.7117C15.483 13.2907 14.7484 14.3894 13.6725 15.0874V17.5859H16.96C18.8904 15.8443 20 13.2723 20 10.23Z" fill="#4285F4"/>
<path d="M10.2015 20C12.9528 20 15.2732 19.1145 16.9636 17.5859L13.6763 15.0874C12.7617 15.6974 11.5809 16.0428 10.2052 16.0428C7.5438 16.0428 5.28722 14.2827 4.47755 11.9165H1.08518V14.4921C2.81698 17.869 6.34429 20 10.2015 20Z" fill="#34A853"/>
<path d="M4.4738 11.9165C4.04647 10.6746 4.04647 9.32978 4.4738 8.08786V5.51215H1.08518C-0.361726 8.33771 -0.361729 11.6666 1.08518 14.4921L4.4738 11.9165Z" fill="#FBBC04"/>
<path d="M10.2015 3.95792C11.6559 3.93587 13.0615 4.47231 14.1149 5.45705L17.0274 2.60209C15.1832 0.904557 12.7354 -0.0287207 10.2015 0.000673863C6.34428 0.000673863 2.81698 2.13178 1.08518 5.51215L4.4738 8.08786C5.27971 5.71791 7.54005 3.95792 10.2015 3.95792Z" fill="#EA4335"/>
</svg>
