<svg width="32" height="32" viewBox="0 0 32 32" fill="none" xmlns="http://www.w3.org/2000/svg">
<path d="M14.7327 23.7905C15.0326 24.0762 15.5074 24.0646 15.7931 23.7647C16.0788 23.4648 16.0672 22.99 15.7673 22.7043L9.51587 16.7497H24.25C24.6642 16.7497 25 16.4139 25 15.9997C25 15.5855 24.6642 15.2497 24.25 15.2497H9.51577L15.7673 9.29502C16.0672 9.00933 16.0787 8.5346 15.7931 8.23467C15.5074 7.93475 15.0326 7.9232 14.7327 8.20889L7.31379 15.2756C7.14486 15.4365 7.04491 15.6417 7.01393 15.8551C7.00479 15.9019 7 15.9503 7 15.9997C7 16.0493 7.00481 16.0977 7.01398 16.1446C7.04502 16.3579 7.14496 16.563 7.31379 16.7238L14.7327 23.7905Z" fill="#1B1C1F"/>
</svg>
