<svg width="24" height="25" viewBox="0 0 24 25" fill="none" xmlns="http://www.w3.org/2000/svg">
<g clip-path="url(#clip0_3528_391)">
<path d="M7.63269 19.4981V9.37758H4.20239L4.20239 19.4981H7.63269ZM5.91798 7.99497C7.11419 7.99497 7.85877 7.21783 7.85877 6.24667C7.83648 5.25361 7.11423 4.49805 5.94068 4.49805C4.76731 4.49805 4 5.25363 4 6.24667C4 7.21788 4.7444 7.99497 5.89559 7.99497H5.91787H5.91798ZM9.53135 19.4981H12.9617V13.8463C12.9617 13.5438 12.9839 13.2417 13.0745 13.0254C13.3225 12.4211 13.8869 11.7952 14.8345 11.7952C16.0758 11.7952 16.5724 12.7233 16.5724 14.0838V19.498H20.0025V13.695C20.0025 10.5864 18.3101 9.13998 16.0532 9.13998C14.2027 9.13998 13.3902 10.1543 12.9388 10.8452H12.9617V9.37737H9.53143C9.57644 10.327 9.53143 19.4979 9.53143 19.4979L9.53135 19.4981Z" fill="#2A2A2A"/>
</g>
<defs>
<clipPath id="clip0_3528_391">
<rect width="16" height="15" fill="white" transform="translate(4 4.49805)"/>
</clipPath>
</defs>
</svg>
