<svg width="32" height="32" viewBox="0 0 32 32" fill="none" xmlns="http://www.w3.org/2000/svg">
<path d="M21 6.49805C22.934 6.49805 24.5018 8.06584 24.5018 9.99982C24.5018 11.9338 22.934 13.5016 21 13.5016C19.97 13.5016 19.0439 13.0569 18.4032 12.3491L13.8446 14.9535C13.9479 15.2839 14.0035 15.6354 14.0035 15.9998C14.0035 16.3643 13.9479 16.7157 13.8446 17.0461L18.4023 19.6516C19.043 18.9431 19.9695 18.498 21 18.498C22.934 18.498 24.5018 20.0658 24.5018 21.9998C24.5018 23.9338 22.934 25.5016 21 25.5016C19.066 25.5016 17.4982 23.9338 17.4982 21.9998C17.4982 21.6354 17.5539 21.2839 17.6572 20.9535L13.0995 18.3481C12.4587 19.0565 11.5322 19.5016 10.5018 19.5016C8.5678 19.5016 7 17.9338 7 15.9998C7 14.0658 8.5678 12.498 10.5018 12.498C11.5317 12.498 12.4578 12.9427 13.0986 13.6505L17.6572 11.0461C17.5539 10.7157 17.4982 10.3643 17.4982 9.99982C17.4982 8.06584 19.066 6.49805 21 6.49805ZM21 19.998C19.8945 19.998 18.9982 20.8943 18.9982 21.9998C18.9982 23.1054 19.8945 24.0016 21 24.0016C22.1055 24.0016 23.0018 23.1054 23.0018 21.9998C23.0018 20.8943 22.1055 19.998 21 19.998ZM10.5018 13.998C9.39622 13.998 8.5 14.8943 8.5 15.9998C8.5 17.1054 9.39622 18.0016 10.5018 18.0016C11.6073 18.0016 12.5035 17.1054 12.5035 15.9998C12.5035 14.8943 11.6073 13.998 10.5018 13.998ZM21 7.99805C19.8945 7.99805 18.9982 8.89427 18.9982 9.99982C18.9982 11.1054 19.8945 12.0016 21 12.0016C22.1055 12.0016 23.0018 11.1054 23.0018 9.99982C23.0018 8.89427 22.1055 7.99805 21 7.99805Z" fill="#67686A"/>
</svg>
