<svg width="24" height="25" viewBox="0 0 24 25" fill="none" xmlns="http://www.w3.org/2000/svg">
<path d="M21.0576 7.68072C21.0669 7.89192 21.0669 8.09352 21.0669 8.30472C21.0761 14.7079 16.3717 22.1 7.76842 22.1C5.23097 22.1 2.73982 21.3416 0.600586 19.9208C0.971016 19.9688 1.34145 19.988 1.71188 19.988C3.81407 19.988 5.8607 19.2584 7.51838 17.9048C5.51805 17.8664 3.75851 16.5127 3.1473 14.5351C3.85111 14.6791 4.57345 14.6503 5.25875 14.4487C3.08247 14.0071 1.5174 12.0199 1.50814 9.70632C1.50814 9.68712 1.50814 9.66792 1.50814 9.64872C2.15639 10.0231 2.88799 10.2343 3.62886 10.2535C1.58223 8.83272 0.943234 6.00071 2.18418 3.7831C4.56419 6.81671 8.06476 8.65032 11.8246 8.85192C11.4449 7.17192 11.9635 5.40551 13.1767 4.21511C15.0566 2.3815 18.0201 2.4775 19.7981 4.42631C20.8446 4.21511 21.854 3.8119 22.7709 3.2455C22.4189 4.36871 21.6873 5.31911 20.715 5.92391C21.641 5.80871 22.5486 5.54951 23.4006 5.16551C22.7709 6.14471 21.9744 6.98952 21.0576 7.68072Z" fill="#2A2A2A"/>
</svg>
