<svg width="32" height="32" viewBox="0 0 32 32" fill="none" xmlns="http://www.w3.org/2000/svg">
<path d="M17.5 14C17.5 13.5858 17.1642 13.25 16.75 13.25H14.75V11.25C14.75 10.8358 14.4142 10.5 14 10.5C13.5858 10.5 13.25 10.8358 13.25 11.25V13.25H11.25C10.8358 13.25 10.5 13.5858 10.5 14C10.5 14.4142 10.8358 14.75 11.25 14.75H13.25V16.75C13.25 17.1642 13.5858 17.5 14 17.5C14.4142 17.5 14.75 17.1642 14.75 16.75V14.75H16.75C17.1642 14.75 17.5 14.4142 17.5 14ZM14 6.75C18.0041 6.75 21.25 9.99594 21.25 14C21.25 15.7319 20.6427 17.3219 19.6295 18.5688L24.5303 23.4697C24.8232 23.7626 24.8232 24.2374 24.5303 24.5303C24.2641 24.7966 23.8474 24.8208 23.5538 24.6029L23.4697 24.5303L18.5688 19.6295C17.3219 20.6427 15.7319 21.25 14 21.25C9.99593 21.25 6.75 18.0041 6.75 14C6.75 9.99594 9.99593 6.75 14 6.75ZM14 8.25C10.8244 8.25 8.25 10.8244 8.25 14C8.25 17.1756 10.8244 19.75 14 19.75C17.1756 19.75 19.75 17.1756 19.75 14C19.75 10.8244 17.1756 8.25 14 8.25Z" fill="#67686A"/>
</svg>
