<svg width="32" height="32" viewBox="0 0 32 32" fill="none" xmlns="http://www.w3.org/2000/svg">
<path d="M16 9.8125C16 9.63016 15.9276 9.4553 15.7986 9.32636C15.6697 9.19743 15.4948 9.125 15.3125 9.125C15.1302 9.125 14.9553 9.19743 14.8264 9.32636C14.6974 9.4553 14.625 9.63016 14.625 9.8125V17.375C14.625 17.4962 14.6571 17.6152 14.718 17.72C14.7788 17.8248 14.8663 17.9116 14.9715 17.9718L19.784 20.7218C19.9419 20.8071 20.127 20.8273 20.2996 20.778C20.4722 20.7287 20.6187 20.6139 20.7078 20.458C20.7969 20.3022 20.8214 20.1176 20.7762 19.9439C20.7311 19.7702 20.6197 19.621 20.466 19.5282L16 16.9763V9.8125Z" fill="#67686A"/>
<path d="M16 27C18.9174 27 21.7153 25.8411 23.7782 23.7782C25.8411 21.7153 27 18.9174 27 16C27 13.0826 25.8411 10.2847 23.7782 8.22183C21.7153 6.15893 18.9174 5 16 5C13.0826 5 10.2847 6.15893 8.22183 8.22183C6.15893 10.2847 5 13.0826 5 16C5 18.9174 6.15893 21.7153 8.22183 23.7782C10.2847 25.8411 13.0826 27 16 27ZM25.625 16C25.625 18.5527 24.6109 21.0009 22.8059 22.8059C21.0009 24.6109 18.5527 25.625 16 25.625C13.4473 25.625 10.9991 24.6109 9.1941 22.8059C7.38906 21.0009 6.375 18.5527 6.375 16C6.375 13.4473 7.38906 10.9991 9.1941 9.1941C10.9991 7.38906 13.4473 6.375 16 6.375C18.5527 6.375 21.0009 7.38906 22.8059 9.1941C24.6109 10.9991 25.625 13.4473 25.625 16Z" fill="#67686A"/>
</svg>
