<svg width="32" height="32" viewBox="0 0 32 32" fill="none" xmlns="http://www.w3.org/2000/svg">
<path d="M16.1968 14.3437C16.1734 14.3138 16.1435 14.2897 16.1094 14.2731C16.0753 14.2564 16.0379 14.2478 15.9999 14.2478C15.962 14.2478 15.9245 14.2564 15.8904 14.2731C15.8563 14.2897 15.8264 14.3138 15.803 14.3437L12.303 18.7718C12.2742 18.8087 12.2563 18.8529 12.2514 18.8995C12.2465 18.946 12.2548 18.993 12.2753 19.035C12.2958 19.0771 12.3278 19.1125 12.3675 19.1373C12.4072 19.162 12.4531 19.1751 12.4999 19.175H14.8093V26.75C14.8093 26.8875 14.9218 27 15.0593 27H16.9343C17.0718 27 17.1843 26.8875 17.1843 26.75V19.1781H19.4999C19.7093 19.1781 19.8249 18.9375 19.6968 18.775L16.1968 14.3437Z" fill="#67686A"/>
<path d="M25.3563 11.4594C23.925 7.68438 20.2781 5 16.0063 5C11.7344 5 8.0875 7.68125 6.65625 11.4563C3.97813 12.1594 2 14.6 2 17.5C2 20.9531 4.79687 23.75 8.24687 23.75H9.5C9.6375 23.75 9.75 23.6375 9.75 23.5V21.625C9.75 21.4875 9.6375 21.375 9.5 21.375H8.24687C7.19375 21.375 6.20312 20.9562 5.46562 20.1969C4.73125 19.4406 4.34063 18.4219 4.375 17.3656C4.40313 16.5406 4.68437 15.7656 5.19375 15.1125C5.71562 14.4469 6.44688 13.9625 7.25938 13.7469L8.44375 13.4375L8.87813 12.2937C9.14688 11.5812 9.52187 10.9156 9.99375 10.3125C10.4596 9.71471 11.0114 9.18922 11.6313 8.75313C12.9156 7.85 14.4281 7.37187 16.0063 7.37187C17.5844 7.37187 19.0969 7.85 20.3813 8.75313C21.0031 9.19063 21.5531 9.71562 22.0187 10.3125C22.4906 10.9156 22.8656 11.5844 23.1344 12.2937L23.5656 13.4344L24.7469 13.7469C26.4406 14.2031 27.625 15.7437 27.625 17.5C27.625 18.5344 27.2219 19.5094 26.4906 20.2406C26.132 20.6013 25.7054 20.8873 25.2355 21.082C24.7656 21.2768 24.2618 21.3763 23.7531 21.375H22.5C22.3625 21.375 22.25 21.4875 22.25 21.625V23.5C22.25 23.6375 22.3625 23.75 22.5 23.75H23.7531C27.2031 23.75 30 20.9531 30 17.5C30 14.6031 28.0281 12.1656 25.3563 11.4594Z" fill="#67686A"/>
</svg>
