<svg width="32" height="32" viewBox="0 0 32 32" fill="none" xmlns="http://www.w3.org/2000/svg">
<path d="M11 14C10.7348 14 10.4804 14.1054 10.2929 14.2929C10.1054 14.4804 10 14.7348 10 15C10 15.2652 10.1054 15.5196 10.2929 15.7071C10.4804 15.8946 10.7348 16 11 16H21C21.2652 16 21.5196 15.8946 21.7071 15.7071C21.8946 15.5196 22 15.2652 22 15C22 14.7348 21.8946 14.4804 21.7071 14.2929C21.5196 14.1054 21.2652 14 21 14H11ZM10 19C10 18.7348 10.1054 18.4804 10.2929 18.2929C10.4804 18.1054 10.7348 18 11 18H21C21.2652 18 21.5196 18.1054 21.7071 18.2929C21.8946 18.4804 22 18.7348 22 19C22 19.2652 21.8946 19.5196 21.7071 19.7071C21.5196 19.8946 21.2652 20 21 20H11C10.7348 20 10.4804 19.8946 10.2929 19.7071C10.1054 19.5196 10 19.2652 10 19ZM10 23C10 22.7348 10.1054 22.4804 10.2929 22.2929C10.4804 22.1054 10.7348 22 11 22H15C15.2652 22 15.5196 22.1054 15.7071 22.2929C15.8946 22.4804 16 22.7348 16 23C16 23.2652 15.8946 23.5196 15.7071 23.7071C15.5196 23.8946 15.2652 24 15 24H11C10.7348 24 10.4804 23.8946 10.2929 23.7071C10.1054 23.5196 10 23.2652 10 23Z" fill="#67686A"/>
<path d="M19 0H8C6.93913 0 5.92172 0.421427 5.17157 1.17157C4.42143 1.92172 4 2.93913 4 4V28C4 29.0609 4.42143 30.0783 5.17157 30.8284C5.92172 31.5786 6.93913 32 8 32H24C25.0609 32 26.0783 31.5786 26.8284 30.8284C27.5786 30.0783 28 29.0609 28 28V9L19 0ZM19 2V6C19 6.79565 19.3161 7.55871 19.8787 8.12132C20.4413 8.68393 21.2044 9 22 9H26V28C26 28.5304 25.7893 29.0391 25.4142 29.4142C25.0391 29.7893 24.5304 30 24 30H8C7.46957 30 6.96086 29.7893 6.58579 29.4142C6.21071 29.0391 6 28.5304 6 28V4C6 3.46957 6.21071 2.96086 6.58579 2.58579C6.96086 2.21071 7.46957 2 8 2H19Z" fill="#67686A"/>
</svg>
