<svg width="32" height="32" viewBox="0 0 32 32" fill="none" xmlns="http://www.w3.org/2000/svg">
<path d="M16.8509 22.8267H10.8795C10.6532 22.8267 10.4363 22.7368 10.2763 22.5767C10.1163 22.4167 10.0264 22.1997 10.0264 21.9733V10.0267C10.0264 9.80036 10.1163 9.58331 10.2763 9.42328C10.4363 9.26325 10.6532 9.17334 10.8795 9.17334H15.1448V11.7333C15.1448 12.4123 15.4144 13.0634 15.8943 13.5435C16.3743 14.0236 17.0252 14.2933 17.704 14.2933H20.2631V16C20.2631 16.2263 20.353 16.4434 20.513 16.6034C20.673 16.7634 20.8899 16.8533 21.1162 16.8533C21.3424 16.8533 21.5594 16.7634 21.7194 16.6034C21.8794 16.4434 21.9692 16.2263 21.9692 16V13.3888C21.9604 13.3104 21.9432 13.2332 21.9181 13.1584V13.0816C21.877 12.9939 21.8223 12.9132 21.756 12.8427L16.6376 7.72267C16.5671 7.6563 16.4865 7.60157 16.3988 7.56054C16.3733 7.55692 16.3475 7.55692 16.322 7.56054C16.2353 7.51083 16.1396 7.47892 16.0405 7.46667H10.8795C10.2008 7.46667 9.54982 7.73639 9.06988 8.21648C8.58994 8.69657 8.32031 9.34772 8.32031 10.0267V21.9733C8.32031 22.6523 8.58994 23.3034 9.06988 23.7835C9.54982 24.2636 10.2008 24.5333 10.8795 24.5333H16.8509C17.0771 24.5333 17.2941 24.4434 17.4541 24.2834C17.6141 24.1234 17.704 23.9063 17.704 23.68C17.704 23.4537 17.6141 23.2366 17.4541 23.0766C17.2941 22.9166 17.0771 22.8267 16.8509 22.8267ZM16.8509 10.3765L19.0603 12.5867H17.704C17.4777 12.5867 17.2607 12.4968 17.1008 12.3367C16.9408 12.1767 16.8509 11.9597 16.8509 11.7333V10.3765ZM12.5856 12.5867C12.3594 12.5867 12.1424 12.6766 11.9824 12.8366C11.8224 12.9966 11.7325 13.2137 11.7325 13.44C11.7325 13.6663 11.8224 13.8834 11.9824 14.0434C12.1424 14.2034 12.3594 14.2933 12.5856 14.2933H13.4387C13.6649 14.2933 13.8819 14.2034 14.0419 14.0434C14.2018 13.8834 14.2917 13.6663 14.2917 13.44C14.2917 13.2137 14.2018 12.9966 14.0419 12.8366C13.8819 12.6766 13.6649 12.5867 13.4387 12.5867H12.5856ZM17.704 16H12.5856C12.3594 16 12.1424 16.0899 11.9824 16.2499C11.8224 16.41 11.7325 16.627 11.7325 16.8533C11.7325 17.0797 11.8224 17.2967 11.9824 17.4567C12.1424 17.6168 12.3594 17.7067 12.5856 17.7067H17.704C17.9302 17.7067 18.1472 17.6168 18.3072 17.4567C18.4671 17.2967 18.557 17.0797 18.557 16.8533C18.557 16.627 18.4671 16.41 18.3072 16.2499C18.1472 16.0899 17.9302 16 17.704 16ZM23.428 20.5141L21.7219 18.8075C21.6407 18.7298 21.5451 18.6689 21.4404 18.6283C21.2327 18.5429 20.9997 18.5429 20.792 18.6283C20.6873 18.6689 20.5916 18.7298 20.5105 18.8075L18.8044 20.5141C18.6438 20.6748 18.5535 20.8928 18.5535 21.12C18.5535 21.3473 18.6438 21.5652 18.8044 21.7259C18.965 21.8866 19.1829 21.9768 19.4101 21.9768C19.6372 21.9768 19.8551 21.8866 20.0157 21.7259L20.2631 21.4699V23.68C20.2631 23.9063 20.353 24.1234 20.513 24.2834C20.673 24.4434 20.8899 24.5333 21.1162 24.5333C21.3424 24.5333 21.5594 24.4434 21.7194 24.2834C21.8794 24.1234 21.9692 23.9063 21.9692 23.68V21.4699L22.2166 21.7259C22.2959 21.8059 22.3903 21.8693 22.4942 21.9127C22.5982 21.956 22.7097 21.9783 22.8223 21.9783C22.9349 21.9783 23.0464 21.956 23.1504 21.9127C23.2543 21.8693 23.3487 21.8059 23.428 21.7259C23.5079 21.6465 23.5714 21.5522 23.6147 21.4482C23.658 21.3442 23.6803 21.2327 23.6803 21.12C23.6803 21.0074 23.658 20.8958 23.6147 20.7918C23.5714 20.6878 23.5079 20.5935 23.428 20.5141ZM15.9978 21.12C16.2241 21.12 16.4411 21.0301 16.601 20.8701C16.761 20.71 16.8509 20.493 16.8509 20.2667C16.8509 20.0404 16.761 19.8233 16.601 19.6633C16.4411 19.5032 16.2241 19.4133 15.9978 19.4133H12.5856C12.3594 19.4133 12.1424 19.5032 11.9824 19.6633C11.8224 19.8233 11.7325 20.0404 11.7325 20.2667C11.7325 20.493 11.8224 20.71 11.9824 20.8701C12.1424 21.0301 12.3594 21.12 12.5856 21.12H15.9978Z" fill="#67686A"/>
</svg>
