<svg width="15" height="15" viewBox="0 0 15 15" fill="none" xmlns="http://www.w3.org/2000/svg">
<g clip-path="url(#clip0_1_18)">
<path d="M8.12253 0.652161L8.12315 2.55835C9.22018 2.69704 10.2399 3.19671 11.0217 3.97866C11.8036 4.76061 12.3031 5.78041 12.4416 6.87746H14.3478V8.12252L12.4416 8.12314C12.303 9.22008 11.8034 10.2397 11.0216 11.0216C10.2398 11.8034 9.22009 12.303 8.12315 12.4416L8.12253 14.3478H6.87747V12.4416C5.78042 12.3031 4.76062 11.8036 3.97867 11.0217C3.19672 10.2399 2.69706 9.22017 2.55836 8.12314L0.652176 8.12252V6.87746H2.55836C2.69693 5.78031 3.19654 4.76044 3.9785 3.97848C4.76046 3.19652 5.78033 2.69691 6.87747 2.55835V0.652161H8.12253ZM7.5 3.76481C6.50937 3.76481 5.55931 4.15834 4.85883 4.85882C4.15835 5.5593 3.76482 6.50936 3.76482 7.49999C3.76482 8.49062 4.15835 9.44067 4.85883 10.1412C5.55931 10.8416 6.50937 11.2352 7.5 11.2352C8.49063 11.2352 9.44069 10.8416 10.1412 10.1412C10.8417 9.44067 11.2352 8.49062 11.2352 7.49999C11.2352 6.50936 10.8417 5.5593 10.1412 4.85882C9.44069 4.15834 8.49063 3.76481 7.5 3.76481ZM7.5 6.25493C7.83021 6.25493 8.1469 6.3861 8.38039 6.6196C8.61389 6.85309 8.74506 7.16978 8.74506 7.49999C8.74506 7.8302 8.61389 8.14688 8.38039 8.38038C8.1469 8.61387 7.83021 8.74505 7.5 8.74505C7.16979 8.74505 6.85311 8.61387 6.61961 8.38038C6.38612 8.14688 6.25494 7.8302 6.25494 7.49999C6.25494 7.16978 6.38612 6.85309 6.61961 6.6196C6.85311 6.3861 7.16979 6.25493 7.5 6.25493Z" fill="#F6F6F6"/>
</g>
<defs>
<clipPath id="clip0_1_18">
<rect width="15" height="15" fill="white"/>
</clipPath>
</defs>
</svg>
