<svg width="32" height="32" viewBox="0 0 32 32" fill="none" xmlns="http://www.w3.org/2000/svg">
<path d="M18.0591 13.9413C16.9669 12.8496 15.4859 12.2363 13.9417 12.2363C12.3975 12.2363 10.9165 12.8496 9.8244 13.9413L5.70573 18.0586C4.61357 19.1508 4 20.6321 4 22.1766C4 23.7212 4.61357 25.2025 5.70573 26.2946C6.79789 27.3868 8.27918 28.0003 9.82373 28.0003C11.3683 28.0003 12.8496 27.3868 13.9417 26.2946L16.0004 24.2359" stroke="#67686A" stroke-width="2" stroke-linecap="round" stroke-linejoin="round"/>
<path d="M13.9414 18.0586C15.0335 19.1503 16.5145 19.7636 18.0587 19.7636C19.6029 19.7636 21.0839 19.1503 22.1761 18.0586L26.2947 13.9413C27.3869 12.8491 28.0005 11.3679 28.0005 9.8233C28.0005 8.27875 27.3869 6.79747 26.2947 5.7053C25.2026 4.61314 23.7213 3.99957 22.1767 3.99957C20.6322 3.99957 19.1509 4.61314 18.0587 5.7053L16.0001 7.76397" stroke="#67686A" stroke-width="2" stroke-linecap="round" stroke-linejoin="round"/>
</svg>
