<svg width="32" height="32" viewBox="0 0 32 32" fill="none" xmlns="http://www.w3.org/2000/svg">
<path d="M15.9981 7.99682V14.25C15.9981 14.6642 16.3339 15 16.7481 15C17.1623 15 17.4981 14.6642 17.4981 14.25V9.22345C17.4981 8.98399 17.7023 8.74762 17.9959 8.74591C18.2584 8.7443 18.5 8.99047 18.5 9.25V16.75C18.5 17.0577 18.6879 17.3342 18.974 17.4474C19.2593 17.5603 19.5846 17.488 19.7952 17.2651L19.7959 17.2643L19.7985 17.2616C19.8026 17.2574 19.8101 17.2498 19.8208 17.2392C19.8422 17.218 19.8766 17.185 19.9226 17.1434C20.0151 17.06 20.1521 16.9445 20.3241 16.8227C20.6758 16.5737 21.1332 16.3272 21.6268 16.2407C22.1641 16.1466 22.6737 16.204 23.0124 16.379C23.221 16.4867 23.3843 16.644 23.4577 16.9073L21.7993 18.1541C21.7713 18.1752 21.7448 18.1982 21.7199 18.223L19.5447 20.396C18.6101 21.3296 17.8326 22.4081 17.242 23.5897C16.9628 24.1484 16.3918 24.5013 15.7672 24.5013H13.0394C12.4676 24.5013 11.9706 24.2285 11.7136 23.7883C10.9778 22.528 10 20.5004 10 18.7536V11C10 10.7316 10.2151 10.4999 10.5012 10.4999C10.7901 10.4999 11.0041 10.7307 11.0041 11V14.5C11.0041 14.9142 11.3399 15.25 11.7541 15.25C12.1683 15.25 12.5041 14.9142 12.5041 14.5V9.25C12.5041 8.97174 12.7185 8.74592 13 8.74592C13.2869 8.74592 13.5 8.9715 13.5 9.25V14.25C13.5 14.6642 13.8358 15 14.25 15C14.6642 15 15 14.6642 15 14.25V7.99682C15 7.72415 15.2121 7.49729 15.4986 7.49707C15.789 7.49685 15.9981 7.72007 15.9981 7.99682ZM17.9866 7.24594C17.7753 7.24719 17.5744 7.27993 17.3872 7.33898L17.9866 7.24594ZM17.3872 7.33898C17.1247 6.58043 16.4176 5.99636 15.4974 5.99707C14.5817 5.99778 13.8754 6.58304 13.612 7.33844C13.4219 7.27859 13.2169 7.24592 13 7.24592C11.8915 7.24592 11.1036 8.10157 11.0128 9.06407C10.8513 9.02235 10.6801 8.99994 10.5012 8.99994C9.33182 8.99994 8.5 9.95905 8.5 11V18.7536C8.5 20.9342 9.67139 23.2654 10.4182 24.5446C10.9746 25.4977 11.9978 26.0013 13.0394 26.0013H15.7672C16.9601 26.0013 18.0505 25.3273 18.5838 24.2603C19.1021 23.2232 19.7846 22.2766 20.6048 21.4572L22.7428 19.3214L24.7007 17.8495C24.8891 17.7078 25 17.4858 25 17.25C25 16.1883 24.4687 15.4429 23.7008 15.0463C22.9851 14.6766 22.1185 14.6317 21.3678 14.7632C20.8491 14.8542 20.3849 15.0467 20 15.2581V9.25C20 8.18962 19.1118 7.23917 17.9866 7.24594" fill="#67686A"/>
</svg>
