<svg width="60" height="60" viewBox="0 0 60 60" fill="none" xmlns="http://www.w3.org/2000/svg">
<path d="M48 29.4377C48 24.5762 46.3017 20.4518 42.905 17.0645C39.51 13.6789 35.375 11.9861 30.5 11.9861V7C33.625 7 36.5525 7.59169 39.2825 8.77507C42.0108 9.96011 44.3858 11.5607 46.4075 13.5767C48.4275 15.5911 50.0317 17.9596 51.22 20.682C52.4067 23.4028 53 26.3213 53 29.4377H48ZM38 29.4377C38 27.3601 37.2708 25.5942 35.8125 24.1399C34.3542 22.6856 32.5833 21.9584 30.5 21.9584V16.9723C33.9583 16.9723 36.9067 18.1873 39.345 20.6172C41.7817 23.0488 43 25.9889 43 29.4377H38ZM50.375 52C45 52 39.7608 50.8158 34.6575 48.4474C29.5525 46.0789 25.0317 42.9211 21.095 38.9737C17.1567 35.0263 13.99 30.5072 11.595 25.4163C9.19833 20.3271 8 15.1025 8 9.74238V8.43352C8 7.97645 8.04167 7.54017 8.125 7.12465H22.75L25.0625 19.6524L17.9375 26.8199C19.6875 29.8116 21.8858 32.6163 24.5325 35.2341C27.1775 37.8518 30.0833 40.1163 33.25 42.0277L40.5 34.7978L53 37.2909V51.8753C52.5833 51.9169 52.1458 51.9485 51.6875 51.9701C51.2292 51.99 50.7917 52 50.375 52Z" fill="#22523A"/>
</svg>
