<svg width="23" height="23" viewBox="0 0 23 23" fill="none" xmlns="http://www.w3.org/2000/svg">
<path d="M5.5 5.66667V17.3333H17.5V5.66667H5.5ZM4.75 4H18.25C18.4489 4 18.6397 4.0878 18.7803 4.24408C18.921 4.40036 19 4.61232 19 4.83333V18.1667C19 18.3877 18.921 18.5996 18.7803 18.7559C18.6397 18.9122 18.4489 19 18.25 19H4.75C4.55109 19 4.36032 18.9122 4.21967 18.7559C4.07902 18.5996 4 18.3877 4 18.1667V4.83333C4 4.61232 4.07902 4.40036 4.21967 4.24408C4.36032 4.0878 4.55109 4 4.75 4V4ZM13.75 7.33333L16.375 9.83333L13.75 12.3333V10.6667H10.75V9H13.75V7.33333ZM9.25 15.6667L6.625 13.1667L9.25 10.6667V12.3333H12.25V14H9.25V15.6667Z" fill="#F6F6F6"/>
</svg>
