<svg width="32" height="32" viewBox="0 0 32 32" fill="none" xmlns="http://www.w3.org/2000/svg">
<path d="M7.9998 4.79999C7.15111 4.79999 6.33718 5.13713 5.73706 5.73725C5.13695 6.33736 4.7998 7.1513 4.7998 7.99999V11.2C4.7998 12.0487 5.13695 12.8626 5.73706 13.4627C6.33718 14.0628 7.15111 14.4 7.9998 14.4H11.1998C12.0485 14.4 12.8624 14.0628 13.4625 13.4627C14.0627 12.8626 14.3998 12.0487 14.3998 11.2V7.99999C14.3998 7.1513 14.0627 6.33736 13.4625 5.73725C12.8624 5.13713 12.0485 4.79999 11.1998 4.79999H7.9998ZM7.9998 17.6C7.15111 17.6 6.33718 17.9371 5.73706 18.5372C5.13695 19.1374 4.7998 19.9513 4.7998 20.8V24C4.7998 24.8487 5.13695 25.6626 5.73706 26.2627C6.33718 26.8628 7.15111 27.2 7.9998 27.2H11.1998C12.0485 27.2 12.8624 26.8628 13.4625 26.2627C14.0627 25.6626 14.3998 24.8487 14.3998 24V20.8C14.3998 19.9513 14.0627 19.1374 13.4625 18.5372C12.8624 17.9371 12.0485 17.6 11.1998 17.6H7.9998ZM17.5998 7.99999C17.5998 7.1513 17.9369 6.33736 18.5371 5.73725C19.1372 5.13713 19.9511 4.79999 20.7998 4.79999H23.9998C24.8485 4.79999 25.6624 5.13713 26.2625 5.73725C26.8627 6.33736 27.1998 7.1513 27.1998 7.99999V11.2C27.1998 12.0487 26.8627 12.8626 26.2625 13.4627C25.6624 14.0628 24.8485 14.4 23.9998 14.4H20.7998C19.9511 14.4 19.1372 14.0628 18.5371 13.4627C17.9369 12.8626 17.5998 12.0487 17.5998 11.2V7.99999ZM17.5998 20.8C17.5998 19.9513 17.9369 19.1374 18.5371 18.5372C19.1372 17.9371 19.9511 17.6 20.7998 17.6H23.9998C24.8485 17.6 25.6624 17.9371 26.2625 18.5372C26.8627 19.1374 27.1998 19.9513 27.1998 20.8V24C27.1998 24.8487 26.8627 25.6626 26.2625 26.2627C25.6624 26.8628 24.8485 27.2 23.9998 27.2H20.7998C19.9511 27.2 19.1372 26.8628 18.5371 26.2627C17.9369 25.6626 17.5998 24.8487 17.5998 24V20.8Z" fill="#67686A"/>
</svg>
