<svg width="32" height="32" viewBox="0 0 32 32" fill="none" xmlns="http://www.w3.org/2000/svg">
<path fill-rule="evenodd" clip-rule="evenodd" d="M15.6366 13.2773C17.8525 13.2774 19.9837 14.1289 21.5896 15.6557C21.7105 15.7735 21.9038 15.772 22.0229 15.6523L23.1789 14.4857C23.2392 14.4249 23.2729 14.3427 23.2724 14.2571C23.2719 14.1715 23.2373 14.0897 23.1763 14.0297C18.9612 9.99011 12.3114 9.99011 8.09627 14.0297C8.03521 14.0896 8.00057 14.1715 8.00001 14.257C7.99944 14.3426 8.03301 14.4249 8.09327 14.4857L9.24961 15.6523C9.36863 15.7722 9.56208 15.7737 9.68294 15.6557C11.2891 14.1288 13.4205 13.2773 15.6366 13.2773ZM15.6366 17.073C16.8541 17.0729 18.0281 17.5255 18.9306 18.3427C19.0527 18.4586 19.2449 18.4561 19.3639 18.337L20.5186 17.1703C20.5794 17.1091 20.6131 17.0261 20.6123 16.9399C20.6114 16.8536 20.576 16.7713 20.5139 16.7113C17.7657 14.1549 13.5098 14.1549 10.7616 16.7113C10.6995 16.7713 10.6641 16.8536 10.6633 16.9399C10.6625 17.0262 10.6963 17.1092 10.7573 17.1703L11.9116 18.337C12.0306 18.4561 12.2229 18.4586 12.3449 18.3427C13.2468 17.526 14.4199 17.0735 15.6366 17.073ZM17.9496 19.6268C17.9514 19.7133 17.9174 19.7967 17.8556 19.8573L15.8583 21.873C15.7997 21.9322 15.7199 21.9656 15.6366 21.9656C15.5533 21.9656 15.4735 21.9322 15.4149 21.873L13.4173 19.8573C13.3556 19.7967 13.3216 19.7132 13.3234 19.6267C13.3253 19.5402 13.3627 19.4583 13.4269 19.4003C14.7025 18.3214 16.5707 18.3214 17.8463 19.4003C17.9104 19.4584 17.9478 19.5403 17.9496 19.6268Z" fill="#67686A"/>
</svg>
