<svg width="32" height="32" viewBox="0 0 32 32" fill="none" xmlns="http://www.w3.org/2000/svg">
<path d="M16.75 13.25C17.1642 13.25 17.5 13.5858 17.5 14C17.5 14.4142 17.1642 14.75 16.75 14.75H11.25C10.8358 14.75 10.5 14.4142 10.5 14C10.5 13.5858 10.8358 13.25 11.25 13.25H16.75ZM21.25 14C21.25 9.99594 18.0041 6.75 14 6.75C9.99593 6.75 6.75 9.99594 6.75 14C6.75 18.0041 9.99593 21.25 14 21.25C15.7319 21.25 17.3219 20.6427 18.5688 19.6295L23.4697 24.5303L23.5538 24.6029C23.8474 24.8208 24.2641 24.7966 24.5303 24.5303C24.8232 24.2374 24.8232 23.7626 24.5303 23.4697L19.6295 18.5688C20.6427 17.3219 21.25 15.7319 21.25 14ZM8.25 14C8.25 10.8244 10.8244 8.25 14 8.25C17.1756 8.25 19.75 10.8244 19.75 14C19.75 17.1756 17.1756 19.75 14 19.75C10.8244 19.75 8.25 17.1756 8.25 14Z" fill="#67686A"/>
</svg>
