<svg width="24" height="25" viewBox="0 0 24 25" fill="none" xmlns="http://www.w3.org/2000/svg">
<path d="M23.9321 7.55204C23.8744 6.27422 23.668 5.39992 23.3751 4.63611C23.0679 3.84828 22.6598 3.17574 21.9925 2.51281C21.3251 1.84988 20.6578 1.43195 19.8704 1.1293C19.1071 0.831465 18.2333 0.629704 16.9563 0.572058C15.6744 0.514412 15.2663 0.5 12.0113 0.5C8.75142 0.5 8.34334 0.514412 7.06628 0.572058C5.78923 0.629704 4.91545 0.836269 4.1521 1.1293C3.35994 1.43675 2.68781 1.84508 2.02527 2.51281C1.36274 3.18054 0.945058 3.84828 0.642598 4.63611C0.349739 5.39992 0.143298 6.27422 0.0856863 7.55204C0.0280748 8.83467 0.0136719 9.243 0.0136719 12.5C0.0136719 15.7618 0.0280748 16.1701 0.0856863 17.448C0.143298 18.7258 0.349739 19.6001 0.642598 20.3639C0.949859 21.1517 1.35794 21.8243 2.02527 22.4872C2.68781 23.1549 3.35994 23.5681 4.1473 23.8707C4.91065 24.1685 5.78443 24.3703 7.06148 24.4279C8.34334 24.4856 8.75142 24.5 12.0065 24.5C15.2663 24.5 15.6744 24.4856 16.9515 24.4279C18.2285 24.3703 19.1023 24.1637 19.8656 23.8707C20.653 23.5633 21.3251 23.1549 21.9877 22.4872C22.6502 21.8195 23.0679 21.1517 23.3703 20.3639C23.668 19.6001 23.8696 18.7258 23.9273 17.448C23.9849 16.1653 23.9993 15.757 23.9993 12.5C23.9993 9.243 23.9897 8.82986 23.9321 7.55204ZM21.7764 17.3519C21.7236 18.524 21.5268 19.1629 21.3635 19.5809C21.1475 20.1381 20.8834 20.5416 20.461 20.9644C20.0385 21.3871 19.64 21.6417 19.0783 21.8675C18.6558 22.0308 18.0173 22.2278 16.8506 22.2806C15.588 22.3383 15.2087 22.3527 12.0017 22.3527C8.79463 22.3527 8.41535 22.3383 7.1527 22.2806C5.98127 22.2278 5.34274 22.0308 4.92505 21.8675C4.36814 21.6513 3.96486 21.3871 3.54238 20.9644C3.11989 20.5416 2.86544 20.1429 2.6398 19.5809C2.47656 19.1581 2.27973 18.5192 2.22691 17.3519C2.1693 16.0885 2.1549 15.709 2.1549 12.5C2.1549 9.29103 2.1693 8.91153 2.22691 7.64812C2.27973 6.47598 2.47656 5.83707 2.6398 5.41914C2.85584 4.86189 3.11989 4.45837 3.54238 4.03563C3.96486 3.61289 4.36334 3.35829 4.92505 3.13251C5.34754 2.96918 5.98607 2.77222 7.1527 2.71938C8.41535 2.66173 8.79463 2.64732 12.0017 2.64732C15.2087 2.64732 15.588 2.66173 16.8506 2.71938C18.0221 2.77222 18.6606 2.96918 19.0783 3.13251C19.6352 3.34868 20.0385 3.61289 20.461 4.03563C20.8834 4.45837 21.1379 4.85709 21.3635 5.41914C21.5268 5.84187 21.7236 6.48079 21.7764 7.64812C21.834 8.91153 21.8484 9.29103 21.8484 12.5C21.8484 15.709 21.8292 16.0885 21.7764 17.3519Z" fill="url(#paint0_linear_3528_383)"/>
<path d="M12.0028 6.33173C8.59413 6.33173 5.83838 9.09394 5.83838 12.4999C5.83838 15.9106 8.59893 18.668 12.0028 18.668C15.4067 18.668 18.1672 15.901 18.1672 12.4999C18.1672 9.08913 15.4115 6.33173 12.0028 6.33173ZM12.0028 16.5015C9.79437 16.5015 8.00361 14.7096 8.00361 12.4999C8.00361 10.2901 9.79437 8.49826 12.0028 8.49826C14.2113 8.49826 16.002 10.2901 16.002 12.4999C16.002 14.7096 14.2113 16.5015 12.0028 16.5015Z" fill="#2A2A2A"/>
<path d="M18.4061 7.53294C19.2016 7.53294 19.8464 6.88771 19.8464 6.09179C19.8464 5.29586 19.2016 4.65063 18.4061 4.65063C17.6107 4.65063 16.9658 5.29586 16.9658 6.09179C16.9658 6.88771 17.6107 7.53294 18.4061 7.53294Z" fill="#2A2A2A"/>
<path d="M0 12.5C0 15.7618 0.0144029 16.1701 0.0720144 17.448C0.129626 18.7258 0.336067 19.6001 0.628926 20.3639C0.936187 21.1517 1.34427 21.8243 2.0116 22.4872C2.67413 23.1501 3.34627 23.5681 4.13363 23.8707C4.89698 24.1685 5.77075 24.3703 7.04781 24.4279C8.32967 24.4856 8.73775 24.5 11.9928 24.5C15.2527 24.5 15.6607 24.4856 16.9378 24.4279C18.2148 24.3703 19.0886 24.1637 19.852 23.8707C20.6393 23.5633 21.3115 23.1549 21.974 22.4872C22.6365 21.8243 23.0542 21.1517 23.3567 20.3639C23.6543 19.6001 23.856 18.7258 23.9136 17.448C23.9712 16.1653 23.9856 15.757 23.9856 12.5C23.9856 9.23819 23.9712 8.82986 23.9136 7.55204C23.856 6.27422 23.6495 5.39992 23.3567 4.63611C23.0494 3.84828 22.6413 3.17574 21.974 2.51281C21.3163 1.84508 20.6441 1.43195 19.8568 1.1293C19.0934 0.831465 18.2196 0.629704 16.9426 0.572058C15.6607 0.514412 15.2526 0.5 11.9976 0.5C8.73775 0.5 8.32967 0.514412 7.05261 0.572058C5.77555 0.629704 4.90178 0.836269 4.13843 1.1293C3.35107 1.43675 2.67894 1.84508 2.0164 2.51281C1.35387 3.18054 0.936187 3.84828 0.633727 4.63611C0.336067 5.39992 0.129626 6.27422 0.0720144 7.55204C0.0144029 8.82986 0 9.23819 0 12.5ZM2.16523 12.5C2.16523 9.29584 2.17964 8.91153 2.23725 7.64812C2.29006 6.47598 2.4869 5.83707 2.65013 5.41914C2.86617 4.86189 3.13023 4.45837 3.55271 4.03563C3.97519 3.61289 4.37367 3.35829 4.93539 3.13251C5.35787 2.96918 5.9964 2.77222 7.16303 2.71938C8.42568 2.66173 8.80496 2.64732 12.012 2.64732C15.219 2.64732 15.5983 2.66173 16.861 2.71938C18.0324 2.77222 18.6709 2.96918 19.0886 3.13251C19.6455 3.34868 20.0488 3.61289 20.4713 4.03563C20.8938 4.45837 21.1482 4.85709 21.3739 5.41914C21.5371 5.84187 21.7339 6.48079 21.7868 7.64812C21.8444 8.91153 21.8588 9.29103 21.8588 12.5C21.8588 15.709 21.8444 16.0885 21.7868 17.3519C21.7339 18.524 21.5371 19.1629 21.3739 19.5809C21.1578 20.1381 20.8938 20.5416 20.4713 20.9644C20.0488 21.3871 19.6503 21.6417 19.0886 21.8675C18.6661 22.0308 18.0276 22.2278 16.861 22.2806C15.5983 22.3383 15.219 22.3527 12.012 22.3527C8.80496 22.3527 8.42568 22.3383 7.16303 22.2806C5.9916 22.2278 5.35307 22.0308 4.93539 21.8675C4.37848 21.6513 3.97519 21.3871 3.55271 20.9644C3.13023 20.5416 2.87578 20.1429 2.65013 19.5809C2.4869 19.1581 2.29006 18.5192 2.23725 17.3519C2.17483 16.0885 2.16523 15.7042 2.16523 12.5Z" fill="#2A2A2A"/>
<defs>
<linearGradient id="paint0_linear_3528_383" x1="20.2948" y1="2.3352" x2="2.93231" y2="23.6076" gradientUnits="userSpaceOnUse">
<stop stop-color="#AE3DAE"/>
<stop offset="0.0468721" stop-color="#B23BA6"/>
<stop offset="0.1216" stop-color="#BD368E"/>
<stop offset="0.2148" stop-color="#CE2E69"/>
<stop offset="0.3216" stop-color="#E62335"/>
<stop offset="0.418" stop-color="#FF1800"/>
</linearGradient>
</defs>
</svg>
