<svg width="32" height="32" viewBox="0 0 32 32" fill="none" xmlns="http://www.w3.org/2000/svg">
<path fill-rule="evenodd" clip-rule="evenodd" d="M23 11H22C21.4477 11 21 11.4477 21 12V20.6667C21 21.219 21.4477 21.6667 22 21.6667H23C23.5523 21.6667 24 21.219 24 20.6667V12C24 11.4477 23.5523 11 23 11ZM17.3333 13.3333H18.3333C18.8856 13.3333 19.3333 13.781 19.3333 14.3333V20.6667C19.3333 21.219 18.8856 21.6667 18.3333 21.6667H17.3333C16.7811 21.6667 16.3333 21.219 16.3333 20.6667V14.3333C16.3333 13.781 16.7811 13.3333 17.3333 13.3333ZM13.6667 15.6667H12.6667C12.1144 15.6667 11.6667 16.1144 11.6667 16.6667V20.6667C11.6667 21.219 12.1144 21.6667 12.6667 21.6667H13.6667C14.2189 21.6667 14.6667 21.219 14.6667 20.6667V16.6667C14.6667 16.1144 14.2189 15.6667 13.6667 15.6667ZM9 17.6667H8C7.44772 17.6667 7 18.1144 7 18.6667V20.6667C7 21.219 7.44772 21.6667 8 21.6667H9C9.55228 21.6667 10 21.219 10 20.6667V18.6667C10 18.1144 9.55228 17.6667 9 17.6667Z" fill="#67686A"/>
</svg>
