<svg width="50" height="40" viewBox="0 0 50 40" fill="none" xmlns="http://www.w3.org/2000/svg">
<path d="M45 0H5C2.25 0 0.025 2.25 0.025 5L0 35C0 37.75 2.25 40 5 40H45C47.75 40 50 37.75 50 35V5C50 2.25 47.75 0 45 0ZM44 10.625L26.325 21.675C25.525 22.175 24.475 22.175 23.675 21.675L6 10.625C5.74932 10.4843 5.5298 10.2942 5.35472 10.0661C5.17965 9.83812 5.05266 9.57694 4.98144 9.29843C4.91022 9.01991 4.89626 8.72984 4.94039 8.44577C4.98453 8.1617 5.08584 7.88953 5.2382 7.64575C5.39057 7.40197 5.59081 7.19164 5.82682 7.02749C6.06282 6.86334 6.32968 6.74878 6.61124 6.69075C6.8928 6.63271 7.18321 6.63242 7.46489 6.68987C7.74657 6.74732 8.01366 6.86133 8.25 7.025L25 17.5L41.75 7.025C41.9863 6.86133 42.2534 6.74732 42.5351 6.68987C42.8168 6.63242 43.1072 6.63271 43.3888 6.69075C43.6703 6.74878 43.9372 6.86334 44.1732 7.02749C44.4092 7.19164 44.6094 7.40197 44.7618 7.64575C44.9142 7.88953 45.0155 8.1617 45.0596 8.44577C45.1037 8.72984 45.0898 9.01991 45.0186 9.29843C44.9473 9.57694 44.8204 9.83812 44.6453 10.0661C44.4702 10.2942 44.2507 10.4843 44 10.625Z" fill="#22523A"/>
</svg>
