<svg width="383" height="314" viewBox="0 0 383 314" fill="none" xmlns="http://www.w3.org/2000/svg">
<path d="M166.5 314C258.455 314 333 270.795 333 217.5C333 164.205 258.455 121 166.5 121C74.5446 121 0 164.205 0 217.5C0 270.795 74.5446 314 166.5 314Z" fill="#F5F5F5"/>
<path d="M57.1387 240.269L9.25318 212.477C7.58227 211.51 7.58227 209.941 9.25318 208.966L95.8034 158.726C96.7412 158.249 97.7777 158 98.8289 158C99.8801 158 100.917 158.249 101.854 158.726L149.747 186.518C151.418 187.485 151.418 189.061 149.747 190.029L63.1898 240.269C62.2529 240.749 61.216 241 60.1642 241C59.1124 241 58.0756 240.749 57.1387 240.269Z" fill="#E0E0E0"/>
<path d="M272 265C295.196 265 314 254.255 314 241C314 227.745 295.196 217 272 217C248.804 217 230 227.745 230 241C230 254.255 248.804 265 272 265Z" fill="#E0E0E0"/>
<path d="M110 293C133.196 293 152 282.255 152 269C152 255.745 133.196 245 110 245C86.804 245 68 255.745 68 269C68 282.255 86.804 293 110 293Z" fill="#E0E0E0"/>
<path d="M52.9383 206.555C52.2528 196.257 51.1216 192.732 44.7667 184.908C41.2852 180.736 36.7277 177.615 31.5976 175.889C27.3541 174.507 23.6522 174.68 20.9581 176.808C20.0102 177.626 19.3605 178.739 19.1121 179.971C18.8637 181.203 19.0308 182.484 19.587 183.609C20.6633 185.918 26.0653 189.214 30.8983 191.751C38.2815 195.635 47.9545 201.095 52.1019 214.089L53 221L52.9383 206.555Z" fill="white"/>
<path opacity="0.2" d="M52.9383 206.555C52.2528 196.257 51.1216 192.732 44.7667 184.908C41.2852 180.736 36.7277 177.615 31.5976 175.889C27.3541 174.507 23.6522 174.68 20.9581 176.808C20.0102 177.626 19.3605 178.739 19.1121 179.971C18.8637 181.203 19.0308 182.484 19.587 183.609C20.6633 185.918 26.0653 189.214 30.8983 191.751C38.2815 195.635 47.9545 201.095 52.1019 214.089L53 221L52.9383 206.555Z" fill="black"/>
<path d="M52.6431 212C52.56 211.999 52.4803 211.966 52.4196 211.909C52.359 211.852 52.3216 211.774 52.3148 211.691C50.7348 193.474 35.6116 181.982 25.297 180.691C25.2072 180.679 25.1259 180.631 25.0707 180.559C25.0156 180.487 24.9912 180.396 25.0028 180.306C25.007 180.26 25.0204 180.216 25.0422 180.176C25.064 180.136 25.0937 180.1 25.1295 180.072C25.1654 180.044 25.2066 180.023 25.2507 180.011C25.2948 180 25.3408 179.997 25.3859 180.004C35.9263 181.329 51.3778 193.055 52.9988 211.602C53.0026 211.647 52.9974 211.692 52.9836 211.735C52.9698 211.778 52.9476 211.818 52.9183 211.853C52.8891 211.887 52.8534 211.916 52.8132 211.936C52.773 211.957 52.7291 211.969 52.6842 211.973L52.6431 212Z" fill="white"/>
<path d="M52.3022 231.666L51.7282 232.162C49.1213 234.317 45.1975 234.916 41.922 234.985C39.7609 235.026 36.8434 235.075 35.0132 233.746C34.5419 233.44 34.1699 232.999 33.9439 232.478C33.718 231.958 33.6482 231.38 33.7435 230.819C34.0541 229.635 35.3373 228.753 35.2495 227.555C32.825 227.176 30.2181 228.244 27.9422 227.307C26.2335 226.619 25.1462 224.89 24.1737 223.286C23.5929 222.343 22.9986 221.22 23.3092 220.18C23.6807 218.92 25.0989 218.376 26.3281 217.97C26.6597 217.881 26.97 217.724 27.2398 217.509C27.3715 217.398 27.4681 217.25 27.5174 217.083C27.5666 216.917 27.5664 216.739 27.5167 216.572C27.3614 216.173 26.8819 216.042 26.4699 215.98C25.5852 215.849 24.6802 215.842 23.7685 215.663C22.8732 215.526 22.0497 215.085 21.4318 214.41C20.8272 213.506 20.5112 212.433 20.5268 211.339C20.3625 209.508 20.3083 207.668 20.3647 205.83C20.3647 205.383 20.1486 201.01 20 201.058C24.2007 199.316 28.962 198.862 33.4598 199.034C35.9654 199.13 39.6799 199.674 41.1724 202.071C41.5777 202.76 41.8097 203.54 41.8477 204.343C41.8477 204.625 41.6789 206.126 41.8477 206.237C41.9162 206.271 41.9942 206.282 42.0691 206.265C42.1439 206.249 42.2112 206.207 42.2597 206.147C42.3594 206.027 42.4268 205.882 42.4556 205.727C42.6784 204.942 43.0566 204.309 43.2863 203.551C43.5159 202.794 43.4754 202.009 43.9616 201.403C44.2149 201.141 44.5221 200.941 44.8608 200.816C45.1996 200.691 45.5615 200.644 45.9201 200.68C48.5743 200.755 50.8097 202.952 51.816 205.452C52.8223 207.951 52.8425 210.747 52.8493 213.453L54.1122 210.809C55.5912 207.724 57.2459 213.453 57.489 214.52C58.2462 217.595 58.1605 220.823 57.241 223.851C56.3216 226.88 54.6038 229.593 52.2752 231.694L52.3022 231.666Z" fill="white"/>
<path d="M52.5844 232C52.5163 231.99 52.4525 231.961 52.4003 231.916C52.3482 231.871 52.3098 231.812 52.2898 231.746C48.5763 220.226 30.982 205.002 24.2471 202.712C24.2015 202.696 24.1593 202.672 24.1231 202.64C24.087 202.608 24.0575 202.569 24.0364 202.526C24.0154 202.483 24.0032 202.436 24.0005 202.387C23.9979 202.339 24.0049 202.291 24.021 202.245C24.0537 202.154 24.1207 202.079 24.2078 202.037C24.2949 201.995 24.3951 201.988 24.4869 202.019C31.3383 204.358 49.2135 219.849 52.9818 231.506C52.9967 231.552 53.0026 231.6 52.999 231.647C52.9953 231.695 52.9823 231.742 52.9607 231.784C52.939 231.827 52.9092 231.865 52.8728 231.896C52.8365 231.927 52.7943 231.951 52.7488 231.966C52.6967 231.987 52.6409 231.999 52.5844 232V232Z" fill="white"/>
<path d="M31.3348 221C31.2742 221.001 31.2146 220.985 31.1624 220.954C31.1102 220.923 31.0675 220.879 31.0391 220.825C30.9979 220.747 30.9888 220.655 31.0139 220.57C31.039 220.485 31.0962 220.413 31.1735 220.37C35.525 218.352 40.4467 217.916 45.0867 219.136C44.5873 214.836 45.0065 210.48 46.3167 206.353V206.259C46.3399 206.17 46.3975 206.094 46.4769 206.048C46.5563 206.001 46.651 205.988 46.7401 206.011C46.8293 206.034 46.9055 206.092 46.9522 206.171C46.9988 206.25 47.012 206.345 46.9888 206.433V206.534C45.6439 210.735 45.2513 215.181 45.8395 219.552C45.8495 219.607 45.8449 219.664 45.826 219.717C45.8071 219.77 45.7747 219.817 45.7319 219.853C45.6892 219.89 45.6378 219.916 45.5826 219.927C45.5274 219.939 45.4701 219.937 45.416 219.92C40.8097 218.575 35.8701 218.944 31.5163 220.959C31.4605 220.989 31.3978 221.002 31.3348 221V221Z" fill="white"/>
<path d="M292 217.853C292 217.853 292.376 209.854 295.884 203.437C299.392 197.02 304.514 192.813 309.499 192.081C314.484 191.349 318.833 195.735 313.684 199.292C308.535 202.85 299.214 206.739 295.611 219L292 217.853Z" fill="white"/>
<g opacity="0.1">
<path d="M292 217.853C292 217.853 292.376 209.854 295.884 203.437C299.392 197.02 304.514 192.813 309.499 192.081C314.484 191.349 318.833 195.735 313.684 199.292C308.535 202.85 299.214 206.739 295.611 219L292 217.853Z" fill="black"/>
</g>
<path d="M293.237 215.996H293.182C293.116 215.97 293.061 215.92 293.03 215.854C292.998 215.788 292.991 215.712 293.011 215.641C297.445 201.761 307.146 195.42 311.655 194.015C311.688 194.003 311.724 193.998 311.759 194.001C311.795 194.004 311.829 194.014 311.861 194.031C311.892 194.049 311.92 194.073 311.942 194.101C311.964 194.13 311.98 194.164 311.989 194.199C312.009 194.27 312.001 194.345 311.968 194.41C311.935 194.475 311.879 194.524 311.812 194.547C307.392 195.924 297.882 202.151 293.524 215.847C293.497 215.9 293.455 215.943 293.404 215.97C293.352 215.997 293.294 216.006 293.237 215.996V215.996Z" fill="white"/>
<path d="M320.869 214.955C320.456 216.08 319.298 216.724 318.209 217.245C317.12 217.766 315.949 218.322 315.418 219.391C314.343 221.551 316.528 224.348 315.356 226.467C315.079 226.892 314.719 227.257 314.296 227.539C313.873 227.82 313.396 228.013 312.896 228.106C312.07 228.281 311.235 228.411 310.394 228.496C309.995 228.52 309.594 228.52 309.195 228.496C308.012 228.313 306.801 228.523 305.749 229.093C304.144 230.128 303.772 232.254 302.869 233.934C302.307 234.926 301.536 235.785 300.608 236.451C299.679 237.118 298.617 237.576 297.494 237.794C296.756 237.944 295.371 238.171 294.585 237.794C294.527 237.77 294.472 237.74 294.42 237.704V237.704C294.309 237.6 294.203 237.49 294.103 237.375L294.069 237.327C293.703 236.272 294.11 235.113 294.069 233.995C294.076 233.929 294.076 233.862 294.069 233.796C293.935 232.503 293.814 231.212 293.703 229.923C293.483 227.55 293.297 225.164 293.159 222.778C293.069 221.229 292.773 219.549 293.331 218.047C293.958 216.402 295.764 216.244 296.343 214.619C296.577 213.975 296.68 213.296 296.901 212.645C297.251 211.689 297.859 210.846 298.657 210.21C299.455 209.574 300.414 209.169 301.429 209.038C304.578 208.675 307.589 211.033 310.732 210.595C311.539 210.429 312.337 210.223 313.123 209.978C315.652 209.333 318.636 209.868 320.242 211.925C320.586 212.341 320.822 212.835 320.931 213.363C321.041 213.891 321.019 214.437 320.869 214.955V214.955Z" fill="white"/>
<path d="M293.221 232.995C293.186 232.989 293.152 232.975 293.122 232.955C293.092 232.935 293.066 232.909 293.046 232.879C293.026 232.849 293.012 232.815 293.005 232.779C292.998 232.743 292.998 232.706 293.005 232.671C296.333 215.568 313.628 211.979 317.728 212C317.801 212.002 317.87 212.033 317.921 212.085C317.972 212.138 318 212.209 318 212.283C318 212.356 317.971 212.426 317.92 212.477C317.87 212.529 317.8 212.558 317.728 212.558C313.711 212.558 296.8 216.048 293.541 232.784C293.525 232.854 293.482 232.915 293.423 232.954C293.363 232.994 293.291 233.008 293.221 232.995Z" fill="white"/>
<path d="M311.679 222.998C311.623 222.99 311.572 222.963 311.531 222.92C309.809 221.473 307.824 220.467 305.715 219.973C303.606 219.478 301.426 219.508 299.329 220.058C299.258 220.074 299.184 220.059 299.124 220.015C299.063 219.971 299.021 219.902 299.006 219.823C298.991 219.743 299.005 219.66 299.044 219.591C299.083 219.522 299.145 219.473 299.216 219.455C301.401 218.878 303.673 218.85 305.869 219.37C308.065 219.891 310.131 220.948 311.917 222.465C311.943 222.493 311.964 222.526 311.978 222.563C311.993 222.6 312 222.64 312 222.681C312 222.721 311.993 222.761 311.978 222.798C311.964 222.835 311.943 222.868 311.917 222.896C311.888 222.933 311.85 222.962 311.809 222.979C311.767 222.997 311.723 223.004 311.679 222.998Z" fill="white"/>
<path d="M124.892 20.0593L54.7835 60.4956C53.6729 61.1324 52.7429 62.041 52.081 63.1358C51.4191 64.2306 51.0471 65.4757 51 66.7537V229.542C51 232.111 52.5839 235.102 54.5414 236.228C56.4988 237.354 59.888 237.237 62.1083 235.952L131.968 195.674C133.14 194.91 134.116 193.881 134.816 192.67C135.516 191.459 135.922 190.101 136 188.705V26.4625C136 23.8999 134.409 20.9366 132.459 19.783C130.508 18.6295 127.119 18.7746 124.892 20.0593Z" fill="white"/>
<path opacity="0.4" d="M61 236.405C58.8786 237.242 56.1569 237.208 54.4925 236.225C52.5621 235.097 51 232.074 51 229.527V66.4597C51.042 65.2392 51.3869 64.0493 52.0027 63L58.4147 66.688C57.3037 68.0012 56.6536 69.6511 56.5662 71.3793V232.8C56.5593 235.893 58.4829 237.353 61 236.405Z" fill="black"/>
<path d="M60.5324 65.9076C59.5056 66.5821 58.6511 67.4889 58.0376 68.555C57.4241 69.621 57.0687 70.8166 57 72.0455V233.114C57 236.566 59.4444 237.995 62.4397 236.262L131.986 195.997C133.153 195.233 134.124 194.204 134.821 192.994C135.519 191.784 135.922 190.426 136 189.031V26.8642C136 24.3166 134.196 23.2671 131.986 24.5444L60.5324 65.9076Z" fill="white"/>
<path opacity="0.2" d="M60.5324 65.9076C59.5056 66.5821 58.6511 67.4889 58.0376 68.555C57.4241 69.621 57.0687 70.8166 57 72.0455V233.114C57 236.566 59.4444 237.995 62.4397 236.262L131.986 195.997C133.153 195.233 134.124 194.204 134.821 192.994C135.519 191.784 135.922 190.426 136 189.031V26.8642C136 24.3166 134.196 23.2671 131.986 24.5444L60.5324 65.9076Z" fill="black"/>
<path opacity="0.2" d="M63.8059 75.3434C62.6933 76.0684 61.7683 77.0473 61.1067 78.1996C60.4451 79.352 60.0658 80.6449 60 81.9725V220.266C60 222.699 61.6999 223.712 63.8059 222.465L129.187 184.661C130.296 183.936 131.218 182.96 131.881 181.812C132.543 180.664 132.926 179.376 133 178.053V39.7311C133 37.3124 131.286 36.2856 129.187 37.5329L63.8059 75.3434Z" fill="black"/>
<path d="M129 175.073V38L63.8511 75.2968C62.7235 76.0249 61.7863 77.0082 61.1167 78.1657C60.4472 79.3233 60.0645 80.622 60 81.955V219L125.149 181.703C126.269 180.974 127.202 179.994 127.87 178.843C128.539 177.691 128.926 176.4 129 175.073V175.073Z" fill="white"/>
<path opacity="0.7" d="M129 175.073V38L63.8511 75.2968C62.7235 76.0249 61.7863 77.0082 61.1167 78.1657C60.4472 79.3233 60.0645 80.622 60 81.955V219L125.149 181.703C126.269 180.974 127.202 179.994 127.87 178.843C128.539 177.691 128.926 176.4 129 175.073V175.073Z" fill="white"/>
<path d="M91.2441 53.0537L102.763 46.1845C103.446 45.775 104 46.0715 104 46.834C103.967 47.2619 103.838 47.6761 103.623 48.0437C103.408 48.4113 103.114 48.7222 102.763 48.9519L91.2441 55.8142C90.5606 56.2236 90 55.9342 90 55.1647C90.0343 54.7372 90.1646 54.3238 90.3806 53.9574C90.5965 53.591 90.8922 53.2816 91.2441 53.0537V53.0537Z" fill="#455A64"/>
<path d="M110.997 41.1589C111.584 40.7895 112 41.085 112 41.8305C111.985 42.2335 111.886 42.6266 111.712 42.9771C111.537 43.3276 111.292 43.6252 110.997 43.8453C110.446 44.208 110 43.9125 110 43.1737C110.014 42.7712 110.112 42.3785 110.286 42.0281C110.459 41.6777 110.703 41.3797 110.997 41.1589V41.1589Z" fill="#455A64"/>
<path d="M115.997 38.1577C116.554 37.7882 117 38.0905 117 38.8296C116.986 39.233 116.888 39.6267 116.713 39.9775C116.539 40.3283 116.293 40.6259 115.997 40.8452C115.446 41.208 115 40.9124 115 40.1734C115.014 39.7708 115.112 39.3779 115.286 39.0273C115.459 38.6767 115.703 38.3786 115.997 38.1577Z" fill="#455A64"/>
<path d="M77.9971 60.1547C78.5836 59.792 79 60.0875 79 60.8263C78.9865 61.2297 78.8883 61.6235 78.7138 61.9742C78.5392 62.3249 78.2933 62.6223 77.9971 62.8411C77.4458 63.2105 77 62.915 77 62.1695C77.0152 61.7673 77.1135 61.375 77.2868 61.0248C77.4602 60.6745 77.7036 60.3763 77.9971 60.1547V60.1547Z" fill="#455A64"/>
<path d="M83.0029 58.1547C83.5543 57.792 84 58.0875 84 58.8263C83.9867 59.229 83.8892 59.6221 83.7157 59.9727C83.5422 60.3233 83.2978 60.6211 83.0029 60.8411C82.4164 61.2105 82 60.915 82 60.1695C82.0149 59.7665 82.1137 59.3734 82.2882 59.0229C82.4626 58.6724 82.7077 58.3748 83.0029 58.1547V58.1547Z" fill="#455A64"/>
<path opacity="0.3" d="M136 26.1388C135.855 23.8299 134.111 22.9313 131.993 24.1479L60.1806 65.5414C59.5453 65.9316 58.9793 66.4245 58.5057 67L52 63.3155C52.5692 62.2598 53.3921 61.3619 54.3947 60.7025L124.899 20.0417C127.127 18.756 130.519 18.6592 132.47 19.7583C134.422 20.8574 135.875 23.6294 136 26.1388Z" fill="black"/>
<path d="M160 42.1366C160 34.238 165.477 24.6375 172.2 20.6916C175.589 18.7152 178.646 18.5299 180.856 19.8269L183.967 21.6729C185.232 23.831 185.932 26.2805 186 28.7892C186 36.6879 180.523 46.2884 173.8 50.2412C171.616 51.435 169.165 52.04 166.683 51.9979L163.558 50.152C161.369 48.855 160 46.11 160 42.1366Z" fill="white"/>
<path opacity="0.15" d="M163.618 30C161.384 33.8565 160 38.2011 160 42.1195C160 46.0379 161.391 48.8564 163.673 50.1487L166.881 51.9979C169.428 52.0401 171.944 51.4341 174.185 50.2381C177.622 48.272 180.732 44.9242 183 41.0746L163.618 30Z" fill="black"/>
<path opacity="0.4" d="M187 28.7501C187 32.7195 185.574 37.1126 183.283 41L164 29.9936C166.27 26.0856 169.413 22.6696 172.887 20.6883C176.362 18.707 179.469 18.5362 181.726 19.8275L184.903 21.6653C186.202 23.8118 186.924 26.2507 187 28.7501Z" fill="white"/>
<path opacity="0.76" d="M160 38.8259C160.549 35.7164 161.648 32.7283 163.245 30L182 40.7879C180.424 43.529 178.373 45.9708 175.941 48L160 38.8259Z" fill="white"/>
<path d="M184.044 41.8906C188.876 33.5205 188.922 24.4863 184.147 21.7122C179.371 18.938 171.582 23.4744 166.75 31.8445C161.918 40.2147 161.871 49.2489 166.647 52.023C171.422 54.7972 179.211 50.2608 184.044 41.8906Z" fill="white"/>
<path d="M168.68 56.9995C166.546 57.0183 164.446 56.4661 162.594 55.3996C158.856 53.2298 156.55 49.1098 156.086 43.8019C155.124 32.932 162.369 20.3386 172.18 15.7242C176.956 13.4719 181.677 13.4239 185.416 15.5937C189.154 17.7636 191.46 21.8904 191.917 27.1983C192.859 38.0682 185.641 50.6616 175.816 55.276C173.59 56.3649 171.155 56.953 168.68 56.9995V56.9995ZM179.344 14.6255C176.953 14.667 174.601 15.2366 172.453 16.2941C162.847 20.8055 155.786 33.1174 156.707 43.7607C157.143 48.8626 159.347 52.8109 162.901 54.8778C166.456 56.9446 170.959 56.8897 175.564 54.7198C185.17 50.2084 192.238 37.8897 191.317 27.2533C190.874 22.1514 188.67 18.2374 185.143 16.1362C183.378 15.1214 181.376 14.5998 179.344 14.6255V14.6255Z" fill="white"/>
<path d="M180.082 39.8431C179.967 39.9351 179.82 39.9768 179.674 39.959C179.528 39.9413 179.396 39.8656 179.304 39.7485C178.512 38.6783 177.22 38.5181 175.842 39.3262C174.464 40.1343 173.515 41.9252 172.723 43.8909C172.416 44.6189 171.823 45.1358 171.395 44.9683C170.966 44.8009 170.874 44.051 171.181 43.2939C172.33 40.4474 173.872 37.9066 175.842 36.7418C177.812 35.577 179.718 35.7881 180.839 37.346C180.977 37.66 181.027 38.0065 180.986 38.3478C180.944 38.6891 180.812 39.0124 180.603 39.2826C180.475 39.5084 180.297 39.7005 180.082 39.8431V39.8431Z" fill="#FAFAFA"/>
<path d="M169.866 41.8985C169.785 41.9542 169.69 41.9882 169.591 41.9974C169.492 42.0067 169.392 41.9908 169.302 41.9513C168.919 41.7602 168.926 41.075 169.181 40.3766C170.746 36.061 173.212 33.5771 175.899 32.0551C178.586 30.5331 181.092 30.6649 182.799 32.4043C182.949 32.6709 183.018 32.9744 182.996 33.2783C182.975 33.5822 182.864 33.8736 182.678 34.1173C182.302 34.7762 181.737 34.9936 181.422 34.6708C180.078 33.2806 178.062 33.1817 175.899 34.3941C173.736 35.6064 171.868 37.8729 170.524 41.0816C170.4 41.4163 170.17 41.7029 169.866 41.8985Z" fill="#FAFAFA"/>
<path d="M166.89 39.8988C166.802 39.9571 166.7 39.9915 166.594 39.9986C166.489 40.0057 166.383 39.9852 166.288 39.9392C165.912 39.7237 165.925 39.0098 166.206 38.3026C168.64 32.0931 171.942 29.4867 175.512 27.4595C179.081 25.4323 182.424 25.5266 184.769 27.6818C185.104 27.9848 185.07 28.7593 184.694 29.4126C184.318 30.0659 183.737 30.342 183.409 30.0322C181.405 28.2003 178.527 28.1263 175.512 29.8436C171.863 31.9361 169.059 35.2046 167.573 39.0974C167.441 39.4313 167.201 39.713 166.89 39.8988V39.8988Z" fill="#FAFAFA"/>
<path d="M174 44.4915C174.009 43.8489 174.149 43.2176 174.41 42.6484C174.67 42.0791 175.044 41.5879 175.5 41.214C176.329 40.6597 177 41.214 177 42.5098C176.992 43.1536 176.852 43.7863 176.592 44.3568C176.331 44.9273 175.957 45.4197 175.5 45.7942C174.683 46.3416 174 45.7596 174 44.4915Z" fill="#FAFAFA"/>
<path d="M233.569 5L192 29L192.498 29.8674L234.067 5.86735L233.569 5Z" fill="white"/>
<path d="M230 7.07211C230.057 6.13028 230.359 5.21382 230.88 4.39703C231.402 3.58023 232.13 2.88609 233.004 2.37086C234.66 1.50484 236 2.20807 236 3.9336C235.944 4.87498 235.644 5.79126 235.124 6.60809C234.603 7.42492 233.877 8.11929 233.004 8.63486C231.347 9.48785 230 8.79764 230 7.07211Z" fill="white"/>
<path d="M202.739 28.3258L226.261 15.1062C226.665 14.8717 227 15.0392 227 15.4747C226.981 15.7172 226.904 15.9519 226.776 16.1601C226.648 16.3683 226.471 16.5443 226.261 16.674L202.739 29.8936C202.328 30.1281 202 29.9606 202 29.5318C202.017 29.2879 202.093 29.0515 202.221 28.8418C202.35 28.6322 202.527 28.4553 202.739 28.3258Z" fill="#455A64"/>
<path d="M202.739 33.3223L226.261 20.1032C226.665 19.8754 227 20.0362 227 20.4717C226.981 20.7151 226.904 20.9507 226.776 21.16C226.648 21.3693 226.472 21.5465 226.261 21.6777L202.739 34.8968C202.328 35.1246 202 34.9638 202 34.5283C202.018 34.2845 202.094 34.0483 202.222 33.8388C202.35 33.6292 202.527 33.4523 202.739 33.3223V33.3223Z" fill="#455A64"/>
<path d="M202.739 38.3223L226.261 25.1032C226.665 24.8754 227 25.0362 227 25.4717C226.981 25.7151 226.904 25.9507 226.776 26.16C226.648 26.3693 226.472 26.5465 226.261 26.6777L202.739 39.8968C202.328 40.1246 202 39.9638 202 39.5283C202.017 39.2844 202.093 39.048 202.221 38.8383C202.35 38.6287 202.527 38.4519 202.739 38.3223V38.3223Z" fill="#455A64"/>
<path d="M160 93.1362C160 85.2441 165.477 75.6432 172.2 71.6903C175.589 69.7139 178.646 69.5286 180.856 70.8325L183.967 72.6717C185.233 74.832 185.933 77.284 186 79.7952C186 87.6873 180.523 97.2882 173.8 101.241C171.616 102.435 169.165 103.04 166.683 102.998L163.558 101.152C161.369 99.8617 160 97.0892 160 93.1362Z" fill="white"/>
<path opacity="0.15" d="M163.618 81C161.384 84.8634 160 89.2011 160 93.1195C160 97.0379 161.391 99.8564 163.673 101.149L166.881 102.998C169.428 103.04 171.944 102.434 174.185 101.238C177.622 99.2789 180.732 95.9242 183 92.0815L163.618 81Z" fill="black"/>
<path opacity="0.4" d="M187 79.7562C187 83.719 185.574 88.1123 183.283 92L164 80.9929C166.27 77.0847 169.413 73.6685 172.887 71.6871C176.362 69.7056 179.469 69.5348 181.726 70.833L184.903 72.6641C186.203 74.8129 186.925 77.2543 187 79.7562V79.7562Z" fill="white"/>
<path opacity="0.76" d="M160 90.3128C160.549 87.0318 161.648 83.8788 163.245 81L182 92.383C180.424 95.2772 178.373 97.8559 175.941 100L160 90.3128Z" fill="white"/>
<path d="M184.044 92.8906C188.876 84.5205 188.922 75.4863 184.147 72.7122C179.371 69.938 171.582 74.4744 166.75 82.8445C161.918 91.2147 161.871 100.249 166.647 103.023C171.422 105.797 179.211 101.261 184.044 92.8906Z" fill="white"/>
<path d="M168.662 107.999C166.54 108.021 164.451 107.478 162.605 106.427C158.864 104.25 156.556 100.13 156.092 94.8221C155.095 83.9314 162.346 71.3378 172.164 66.7233C176.944 64.471 181.669 64.423 185.41 66.5997C189.152 68.7765 191.46 72.8897 191.917 78.1977C192.86 89.0677 185.636 101.661 175.804 106.276C173.576 107.365 171.139 107.953 168.662 107.999V107.999ZM179.334 65.6246C176.942 65.6639 174.587 66.2312 172.438 67.2864C162.824 71.7979 155.757 84.11 156.679 94.7534C157.116 99.8554 159.321 103.804 162.879 105.871C166.436 107.938 170.942 107.883 175.551 105.713C185.165 101.201 192.238 88.8892 191.317 78.2457C190.873 73.1437 188.667 69.1954 185.11 67.1285C183.35 66.1238 181.357 65.605 179.334 65.6246V65.6246Z" fill="white"/>
<path d="M233.569 57L192 81L192.498 81.8674L234.067 57.8674L233.569 57Z" fill="white"/>
<path d="M230 58.0612C230.056 57.1219 230.356 56.2075 230.876 55.3924C231.397 54.5773 232.123 53.8844 232.996 53.3699C234.653 52.5057 236 53.2075 236 54.9359C235.943 55.8748 235.641 56.7884 235.12 57.6025C234.598 58.4165 233.87 59.108 232.996 59.6207C231.34 60.4979 230 59.8026 230 58.0612Z" fill="white"/>
<path d="M183.464 90.208L168.569 98.9284C168.257 99.1142 168 98.9284 168 98.4879V86.4225L175.563 90.5934C175.82 90.7104 176.179 90.497 176.436 90.0772L183.999 77V89.0654C184.006 89.2855 183.962 89.5041 183.869 89.7029C183.776 89.9017 183.637 90.0749 183.464 90.208Z" fill="#FAFAFA"/>
<path d="M168 86.2356L184 77L176.41 88.5022C176.166 88.8811 175.834 89.0706 175.584 88.9759L168 86.2356Z" fill="#FAFAFA"/>
<path d="M202.739 79.3259L226.261 66.1064C226.665 65.8719 227 66.0394 227 66.4682C226.982 66.7118 226.905 66.9479 226.777 67.1573C226.649 67.3668 226.472 67.5438 226.261 67.6742L202.739 80.8938C202.328 81.1283 202 80.9608 202 80.5253C202.018 80.2824 202.094 80.0471 202.222 79.8387C202.351 79.6302 202.527 79.4545 202.739 79.3259V79.3259Z" fill="#455A64"/>
<path d="M202.739 84.3223L226.261 71.1032C226.665 70.8754 227 71.0362 227 71.4717C226.981 71.7151 226.904 71.9507 226.776 72.16C226.648 72.3693 226.472 72.5465 226.261 72.6777L202.739 85.8968C202.328 86.1246 202 85.9638 202 85.5283C202.018 85.2845 202.094 85.0483 202.222 84.8388C202.35 84.6292 202.527 84.4523 202.739 84.3223V84.3223Z" fill="#455A64"/>
<path d="M202.739 89.3259L226.261 76.1062C226.665 75.8717 227 76.0392 227 76.4747C226.981 76.7172 226.904 76.9519 226.776 77.1601C226.648 77.3683 226.471 77.5443 226.261 77.6741L202.739 90.8938C202.328 91.1283 202 90.9608 202 90.5253C202.018 90.2824 202.094 90.0471 202.222 89.8386C202.351 89.6302 202.527 89.4545 202.739 89.3259V89.3259Z" fill="#455A64"/>
<path d="M160 145.139C160 137.241 165.477 127.642 172.2 123.69C175.589 121.714 178.646 121.529 180.856 122.832L183.967 124.671C185.233 126.831 185.933 129.283 186 131.793C186 139.691 180.523 149.29 173.8 153.235C171.615 154.429 169.165 155.036 166.683 154.998L163.558 153.153C161.369 151.856 160 149.084 160 145.139Z" fill="white"/>
<path opacity="0.15" d="M163.618 133C161.384 136.862 160 141.199 160 145.123C160 149.047 161.391 151.851 163.673 153.15L166.881 154.998C169.428 155.036 171.943 154.428 174.185 153.232C177.622 151.274 180.732 147.92 183 144.078L163.618 133Z" fill="black"/>
<path opacity="0.4" d="M187 130.754C187 134.716 185.574 139.107 183.283 143L164 131.991C166.27 128.084 169.413 124.676 172.887 122.688C176.362 120.701 179.469 120.537 181.726 121.835L184.903 123.665C186.203 125.813 186.925 128.253 187 130.754V130.754Z" fill="white"/>
<path opacity="0.76" d="M160 142.313C160.549 139.032 161.648 135.879 163.245 133L182 144.39C180.424 147.282 178.373 149.859 175.941 152L160 142.313Z" fill="white"/>
<path d="M184.044 144.891C188.876 136.521 188.922 127.486 184.147 124.712C179.371 121.938 171.582 126.474 166.75 134.845C161.918 143.215 161.871 152.249 166.647 155.023C171.422 157.797 179.211 153.261 184.044 144.891Z" fill="white"/>
<path d="M168.68 159.999C166.547 160.021 164.447 159.471 162.594 158.407C158.856 156.238 156.55 152.12 156.086 146.807C155.124 135.948 162.369 123.359 172.18 118.726C176.956 116.468 181.677 116.427 185.416 118.596C189.154 120.765 191.46 124.883 191.917 130.189C192.859 141.055 185.641 153.643 175.816 158.256C173.592 159.352 171.156 159.946 168.68 159.999V159.999ZM179.344 117.642C176.953 117.683 174.601 118.252 172.453 119.31C162.847 123.819 155.786 136.133 156.707 146.766C157.143 151.866 159.347 155.812 162.901 157.878C166.456 159.945 170.959 159.91 175.591 157.714C185.197 153.204 192.265 140.89 191.344 130.258C190.901 125.158 188.697 121.211 185.143 119.152C183.378 118.138 181.376 117.616 179.344 117.642V117.642Z" fill="white"/>
<path d="M233.569 108L192 132L192.498 132.867L234.067 108.867L233.569 108Z" fill="white"/>
<path d="M230 110.068C230.057 109.127 230.359 108.211 230.88 107.395C231.402 106.579 232.13 105.885 233.004 105.37C234.66 104.505 236 105.208 236 106.938C235.943 107.878 235.643 108.792 235.122 109.607C234.601 110.422 233.876 111.115 233.004 111.629C231.347 112.495 230 111.792 230 110.068Z" fill="white"/>
<path d="M183.198 134.431L183.042 134.522V133.291C183.042 130.527 181.41 129.253 179.397 130.45C178.347 131.169 177.551 132.216 177.125 133.438C176.765 131.1 175.133 130.149 173.174 131.338C170.753 132.78 168.788 136.635 168.788 139.959V143.017C167.244 143.926 166 146.376 166 148.489C166 150.602 167.244 151.568 168.788 150.658L183.212 142.086C184.749 141.17 186 138.721 186 136.607C186 134.494 184.735 133.515 183.198 134.431ZM177.581 139.329V143.409L174.392 145.305V141.261L172.95 142.114L175.983 136.25L179.016 138.511L177.581 139.329Z" fill="#FAFAFA"/>
<path d="M202.739 131.293L226.261 118.103C226.665 117.876 227 118.036 227 118.471C226.981 118.713 226.904 118.949 226.776 119.157C226.648 119.366 226.472 119.543 226.261 119.674L202.739 132.897C202.328 133.124 202 132.964 202 132.529C202.012 132.28 202.086 132.038 202.215 131.823C202.343 131.607 202.523 131.426 202.739 131.293V131.293Z" fill="#455A64"/>
<path d="M202.739 136.314L226.261 123.106C226.665 122.872 227 123.039 227 123.474C226.981 123.717 226.904 123.953 226.776 124.162C226.648 124.371 226.472 124.548 226.261 124.679L202.739 137.894C202.328 138.128 202 137.961 202 137.532C202.015 137.286 202.09 137.047 202.218 136.835C202.347 136.623 202.525 136.445 202.739 136.314V136.314Z" fill="#455A64"/>
<path d="M202.739 140.327L226.261 127.107C226.665 126.871 227 127.04 227 127.47C226.982 127.714 226.905 127.951 226.777 128.161C226.649 128.371 226.472 128.549 226.261 128.679L202.739 141.893C202.328 142.129 202 141.961 202 141.524C202.02 141.282 202.097 141.047 202.225 140.84C202.353 140.632 202.529 140.457 202.739 140.327V140.327Z" fill="#455A64"/>
<path d="M275.674 47.9604C275.593 47.9104 275.526 47.8394 275.481 47.7545L273 43.3529V40.9249L280.29 38V40.4209L279.405 43.0405L283.737 40.4777L284 41.9756L281.423 50.6298C281.395 50.7066 281.351 50.7763 281.295 50.8342C281.238 50.892 281.17 50.9367 281.096 50.965C281.021 50.9933 280.941 51.0047 280.861 50.9983C280.782 50.9919 280.705 50.9679 280.635 50.9279L275.674 47.9604Z" fill="white"/>
<path opacity="0.3" d="M275.674 47.9604C275.593 47.9104 275.526 47.8394 275.481 47.7545L273 43.3529V40.9249L280.29 38V40.4209L279.405 43.0405L283.737 40.4777L284 41.9756L281.423 50.6298C281.395 50.7066 281.351 50.7763 281.295 50.8342C281.238 50.892 281.17 50.9367 281.096 50.965C281.021 50.9933 280.941 51.0047 280.861 50.9983C280.782 50.9919 280.705 50.9679 280.635 50.9279L275.674 47.9604Z" fill="black"/>
<path d="M282.751 40L283 41.4241L280.554 49.6516C280.52 49.7461 280.461 49.8287 280.383 49.89C280.306 49.9512 280.213 49.9886 280.115 49.9978C280.018 50.007 279.92 49.9876 279.833 49.9418C279.746 49.8961 279.673 49.8259 279.623 49.7394L277 45.0148L277.308 43.26L282.751 40Z" fill="white"/>
<path opacity="0.2" d="M282.751 40L283 41.4241L280.554 49.6516C280.52 49.7461 280.461 49.8287 280.383 49.89C280.306 49.9512 280.213 49.9886 280.115 49.9978C280.018 50.007 279.92 49.9876 279.833 49.9418C279.746 49.8961 279.673 49.8259 279.623 49.7394L277 45.0148L277.308 43.26L282.751 40Z" fill="black"/>
<path d="M293 4.63177C292.955 3.81627 292.722 3.02289 292.318 2.31597C291.914 1.60905 291.352 1.00848 290.676 0.562953V0.562953C289.957 0.192881 289.162 0 288.355 0C287.549 0 286.754 0.192881 286.035 0.562953L264.324 13.2238C263.648 13.6693 263.086 14.2699 262.682 14.9768C262.278 15.6837 262.045 16.4771 262 17.2926V46.3733C262.044 47.1891 262.277 47.9828 262.681 48.6899C263.084 49.397 263.648 49.9974 264.324 50.4421C265.043 50.8089 265.836 51 266.641 51C267.446 51 268.24 50.8089 268.958 50.4421L290.907 37.6573C293 36.4525 293 35.2546 293 33.7469V4.63177Z" fill="white"/>
<path opacity="0.2" d="M293 4.63177C292.955 3.81627 292.722 3.02289 292.318 2.31597C291.914 1.60905 291.352 1.00848 290.676 0.562953V0.562953C289.957 0.192881 289.162 0 288.355 0C287.549 0 286.754 0.192881 286.035 0.562953L264.324 13.2238C263.648 13.6693 263.086 14.2699 262.682 14.9768C262.278 15.6837 262.045 16.4771 262 17.2926V46.3733C262.044 47.1891 262.277 47.9828 262.681 48.6899C263.084 49.397 263.648 49.9974 264.324 50.4421C265.043 50.8089 265.836 51 266.641 51C267.446 51 268.24 50.8089 268.958 50.4421L290.907 37.6573C293 36.4525 293 35.2546 293 33.7469V4.63177Z" fill="black"/>
<path opacity="0.2" d="M262 46.3761C262.046 47.1906 262.295 47.983 262.726 48.6889C263.156 49.3949 263.757 49.9942 264.478 50.4382C265.175 50.7719 265.938 50.9616 266.717 50.9947C267.497 51.0279 268.275 50.9038 269 50.6307C267.833 51.0499 266.949 50.4176 266.949 49.0842V20.0174C266.979 19.1995 267.229 18.4022 267.674 17.7012L262.725 15C262.28 15.699 262.031 16.4938 262 17.3094V46.3761Z" fill="black"/>
<path d="M293 4.00963C292.737 2.98972 291.841 2.66616 290.783 3.30625L269.214 16.2064C268.533 16.6448 267.975 17.2636 267.597 18L263 15.2357C263.386 14.5103 263.946 13.902 264.624 13.4702L286.193 0.57007C286.907 0.195229 287.695 0 288.494 0C289.294 0 290.082 0.195229 290.796 0.57007V0.57007C291.367 0.958175 291.857 1.46307 292.236 2.05425C292.614 2.64543 292.874 3.31062 293 4.00963V4.00963Z" fill="white"/>
<path d="M280.098 13.8836C280.801 13.4312 281.587 13.1405 282.404 13.0309C283.055 12.933 283.719 13.0691 284.288 13.4172C284.857 13.7654 285.298 14.3051 285.539 14.9495C285.87 15.7872 286.026 16.6901 285.996 17.5969C286.002 18.4006 285.915 19.202 285.735 19.9831C285.568 20.7119 285.349 21.4267 285.082 22.1217C284.822 22.7847 284.523 23.43 284.187 24.054L283.26 25.8419C282.966 26.4264 282.698 27.0109 282.456 27.5886C282.224 28.1427 282.058 28.7247 281.96 29.3215C281.922 29.5947 281.854 29.8624 281.757 30.1191C281.688 30.3322 281.553 30.5141 281.372 30.6349L278.701 32.2577C278.644 32.31 278.571 32.3388 278.495 32.3388C278.419 32.3388 278.346 32.31 278.289 32.2577C278.225 32.1816 278.176 32.0922 278.145 31.9952C278.115 31.8981 278.104 31.7956 278.113 31.6939C278.112 30.9268 278.21 30.1633 278.407 29.4246C278.602 28.6986 278.846 27.9885 279.138 27.2997C279.425 26.6255 279.743 25.9669 280.092 25.3262C280.432 24.6935 280.745 24.0884 281.039 23.5245C281.315 22.998 281.559 22.4537 281.771 21.8948C281.956 21.4236 282.056 20.9196 282.064 20.4094C282.064 19.7218 281.908 19.2817 281.588 19.0891C281.268 18.8966 280.771 18.9998 280.098 19.4055C279.532 19.7202 279.05 20.1787 278.694 20.7395C278.422 21.1843 278.203 21.6623 278.041 22.163C277.91 22.6168 277.799 23.0363 277.708 23.4145C277.673 23.5834 277.605 23.7428 277.508 23.8825C277.412 24.0222 277.288 24.1392 277.146 24.2259L274.488 25.8488C274.439 25.8878 274.379 25.909 274.318 25.909C274.257 25.909 274.197 25.8878 274.148 25.8488C274.093 25.7842 274.051 25.7077 274.026 25.6246C274.002 25.5416 273.994 25.4538 274.005 25.3674C274.037 24.3962 274.184 23.433 274.442 22.4999C274.733 21.383 275.132 20.3001 275.631 19.2679C276.15 18.1816 276.783 17.1599 277.518 16.2216C278.238 15.2854 279.112 14.4934 280.098 13.8836V13.8836ZM281.999 36.9338C281.997 37.2035 281.936 37.4692 281.823 37.7108C281.742 37.9302 281.598 38.1177 281.411 38.2472L278.662 39.9182C278.603 39.971 278.529 40 278.453 40C278.376 40 278.302 39.971 278.243 39.9182C278.179 39.8404 278.131 39.7497 278.1 39.6517C278.07 39.5536 278.059 39.4502 278.067 39.3475V35.7717C278.07 35.502 278.13 35.2365 278.243 34.9946C278.329 34.7758 278.474 34.589 278.662 34.4582L281.411 32.7872C281.468 32.735 281.541 32.7062 281.617 32.7062C281.693 32.7062 281.766 32.735 281.823 32.7872C281.887 32.8634 281.936 32.9528 281.967 33.0498C281.997 33.1468 282.008 33.2494 281.999 33.3511V36.9338Z" fill="#FAFAFA"/>
<path d="M287 95.4644C293.048 93.9077 297.195 96.2844 298.984 102.296C300.661 107.932 304.107 121.692 304.991 125.333C305.391 126.967 292.74 141.206 293.189 140.998C293.322 140.935 289.217 133.923 289.217 133.923L295.385 124.778L291.729 114.715L287 95.4644Z" fill="#FFA8A7"/>
<path d="M275 91.9837L276.068 104L286 103.329L285.202 90L275 91.9837Z" fill="#FFA8A7"/>
<path d="M267 79C267 79 264.728 82.811 265.027 83.1768C265.559 83.5613 266.146 83.8398 266.762 84L267 79Z" fill="#F28F8F"/>
<path d="M292.417 69.2728C292.415 68.957 292.361 68.6437 292.258 68.345C292.001 67.746 291.632 67.1999 291.17 66.7351C290.262 65.8029 289.155 65.0807 287.929 64.6203C286.039 63.8888 284.016 63.5497 281.987 63.6243C280.048 63.6789 278.227 64.0541 276.274 63.6994C274.822 63.3678 273.348 63.1398 271.863 63.0172C271.117 62.9572 270.367 63.0546 269.662 63.3028C268.957 63.551 268.315 63.9443 267.777 64.4566C267.06 65.2793 266.678 66.3337 266.703 67.4172C266.727 68.4917 266.987 69.5482 267.465 70.5143C266.011 71.5308 265.678 73.625 266.295 75.2896C267.146 77.5407 269.349 78.9051 271.142 80.3923C272.527 81.552 273.878 82.7867 275.159 84.076C275.791 84.6827 276.392 85.3202 276.96 85.9861L277.063 86.1294C276.572 86.2071 276.068 86.1673 275.595 86.0134C275.595 86.0134 275.304 91.1024 278.968 92.7465C281.364 93.1903 283.835 93.0498 286.163 92.3372C288.748 90.3285 290.916 87.8479 292.548 85.0311C296.156 79.0552 295.499 72.7792 292.417 69.2728Z" fill="#263238"/>
<path d="M278.937 85.3198C278.716 85.6203 278.434 85.8743 278.107 86.0662C277.78 86.2581 277.416 86.384 277.036 86.436C276.537 86.5164 276.024 86.4769 275.544 86.321C275.544 86.321 275.326 90.1502 277.719 92.2002C277.234 92.3896 276.783 92.5384 276.403 92.6534C274.291 93.2691 270.172 93.012 269.362 92.2949C268.179 91.2192 266.257 88.398 267.299 80.2457C267.527 77.6781 268.376 75.197 269.777 73C269.87 73.5784 270.112 74.1254 270.481 74.591C270.85 75.0566 271.334 75.4261 271.89 75.6656C271.583 76.0684 271.373 76.5314 271.274 77.0215C271.175 77.5116 271.191 78.0166 271.319 78.5003C271.746 79.6273 272.475 80.6261 273.432 81.3958C273.481 81.4505 273.544 81.4924 273.615 81.5176C273.871 81.5584 274.135 81.5206 274.368 81.4094C275.121 80.3472 276.156 79.1091 278.191 79.7586C280.522 80.496 280.409 83.2496 278.937 85.3198Z" fill="#FFA8A7"/>
<path d="M270 92.2943C271.012 92.9329 273.872 93.1969 276 92.8392L275.934 91C275.02 91.4598 274.07 91.8163 273.096 92.0644C272.08 92.321 271.036 92.3985 270 92.2943V92.2943Z" fill="#F28F8F"/>
<path d="M273.474 84C273.2 83.9102 272.947 83.7704 272.731 83.5888C272.515 83.4072 272.339 83.1872 272.214 82.9418C272.089 82.6963 272.017 82.43 272.003 82.1585C271.988 81.8869 272.031 81.6153 272.13 81.3594C272.34 80.8431 272.759 80.4244 273.295 80.1934C273.832 79.9623 274.444 79.9373 275 80.1237L273.474 84Z" fill="#263238"/>
<path d="M296.228 61.4285C295.141 61.1689 294.004 61.2116 292.94 61.5522C292.433 60.8722 291.709 60.3872 290.89 60.1777C289.941 59.8743 288.912 59.9619 288.029 60.4214C287.145 60.8808 286.479 61.6745 286.177 62.6278C285.875 63.581 285.962 64.6158 286.419 65.5044C286.876 66.3931 287.665 67.0628 288.613 67.3663C288.588 68.6945 288.988 69.9958 289.755 71.0776C290.522 72.1594 291.615 72.9641 292.872 73.3728C292.893 73.9526 293.047 74.5197 293.322 75.0297C293.598 75.5397 293.986 75.979 294.458 76.3131C294.93 76.6472 295.472 76.8671 296.043 76.9558C296.613 77.0444 297.196 76.9994 297.746 76.8242C298.296 76.6489 298.799 76.3483 299.214 75.9456C299.63 75.5429 299.947 75.0492 300.141 74.5029C300.336 73.9565 300.402 73.3724 300.335 72.7961C300.268 72.2198 300.069 71.6669 299.755 71.1805C300.374 70.3572 300.778 69.3913 300.931 68.3706C301.084 67.3499 300.981 66.307 300.63 65.3369C300.28 64.3668 299.693 63.5003 298.924 62.8165C298.155 62.1326 297.228 61.6531 296.228 61.4217V61.4285Z" fill="#263238"/>
<path d="M275.541 242C275.935 243.163 276.271 244.346 276.547 245.545C276.836 246.864 277.236 249.09 276.822 250.068C276.409 251.046 274.495 251.784 271.802 252.195C269.639 252.521 267.883 253.528 265.142 254.669C262.779 255.747 260.187 256.181 257.614 255.931C254.115 255.726 252.607 254.045 252.194 253.024C251.781 252.004 251.422 250.593 257.938 248.296C257.993 248.296 265.824 245.46 268.523 242.284L275.541 242Z" fill="#263238"/>
<path d="M275.994 242.129L274.748 242L269.008 242.224C266.324 245.29 258.537 247.974 258.482 247.988L257.448 248.355C256.338 249.286 257.325 250.808 260.023 250.992C262.721 251.175 271.036 248.246 272.905 247.322C273.873 246.848 274.681 246.105 275.23 245.182C275.778 244.26 276.044 243.199 275.994 242.129V242.129Z" fill="#FFA8A7"/>
<path d="M275.951 240C275.951 240 275.951 241.678 275.998 242.639C276.046 243.599 274.997 245.05 272.264 244.999C270.349 244.999 269 244.442 269.048 242.741L269 240.301L275.951 240Z" fill="#FFA8A7"/>
<path d="M294.016 231.881C294.404 231.881 294.515 232.471 294.812 234.761C295.006 236.215 295.36 238.196 293.967 239.187C292.097 240.515 289.161 240.114 288.087 238.723C286.793 236.862 285.406 235.068 283.932 233.349C282.27 231.508 280.123 229.836 279.347 227.335C278.474 224.525 279.305 223.204 281.189 223.008C283.13 222.921 285.03 223.589 286.501 224.876C287.114 225.281 287.769 225.616 288.454 225.874C289.888 226.295 293.476 231.831 294.016 231.881Z" fill="#263238"/>
<path d="M294 230.274V232.597C294 232.597 292.609 235.675 288.536 232.713C288.44 232.487 288 228 288 228L294 230.274Z" fill="#FFA8A7"/>
<path d="M288.825 225.08C288.174 224.84 287.553 224.529 286.971 224.153C285.289 223.656 281.792 224.335 283.422 226.712C284.776 228.667 286.491 230.349 288.476 231.667C290.363 232.549 291 231.4 291 231.4L290.231 226.229C289.854 225.747 289.374 225.354 288.825 225.08V225.08Z" fill="#FFA8A7"/>
<path d="M296.535 197.157C296.07 193.063 295.154 189.034 293.804 185.145C293.804 185.145 295.053 174.814 296.009 164.937C298.249 141.711 296.446 141.374 293.046 133.384C293.046 133.384 263.524 130.14 262.527 142.517C261.291 157.932 262.568 187.749 262.93 193.204C263.292 198.659 263.784 201.111 265.607 212.49C266.973 221.161 268.53 240.158 268.53 240.158C272.436 242.327 276.096 239.62 276.096 239.62C276.096 239.62 279.333 216.154 279.128 209.865C278.973 205.215 278.218 200.605 276.882 196.152C276.882 196.152 278.93 171.032 279.463 167.03C279.463 167.03 280.33 175.013 280.692 180.462C281.054 185.91 282.625 191.131 284.107 201.263C285.397 210.051 287.617 228.414 287.617 228.414C291.523 230.577 294.2 229.509 294.2 229.509C294.2 229.509 297.539 204.782 296.535 197.157Z" fill="white"/>
<g opacity="0.4">
<path d="M296.535 197.157C296.07 193.063 295.154 189.034 293.804 185.145C293.804 185.145 295.053 174.814 296.009 164.937C298.249 141.711 296.446 141.374 293.046 133.384C293.046 133.384 263.524 130.14 262.527 142.517C261.291 157.932 262.568 187.749 262.93 193.204C263.292 198.659 263.784 201.111 265.607 212.49C266.973 221.161 268.53 240.158 268.53 240.158C272.436 242.327 276.096 239.62 276.096 239.62C276.096 239.62 279.333 216.154 279.128 209.865C278.973 205.215 278.218 200.605 276.882 196.152C276.882 196.152 278.93 171.032 279.463 167.03C279.463 167.03 280.33 175.013 280.692 180.462C281.054 185.91 282.625 191.131 284.107 201.263C285.397 210.051 287.617 228.414 287.617 228.414C291.523 230.577 294.2 229.509 294.2 229.509C294.2 229.509 297.539 204.782 296.535 197.157Z" fill="black"/>
</g>
<path opacity="0.15" d="M279 166.919L280.251 156.186C284.543 156.096 288.68 154.623 292 152C292 152 290.078 155.947 282.024 157.812L280.667 168.851L280.342 181C279.975 176.263 279.528 171.569 279 166.919Z" fill="black"/>
<path d="M294.848 100.393C294.394 98.886 293.382 97.6089 292.018 96.8234C290.654 96.0379 289.042 95.8033 287.512 96.1676L286.428 96.4008C286.113 98.061 280.772 99.4742 275.959 97.7729L271.4 98.4932C267.142 100.483 264.043 105.552 261.801 110.588C260.231 114.128 260.944 117.777 264.153 120.576C264.153 120.576 263.762 126.62 263.556 130.002C263.246 135.061 262.914 140.114 262.562 145.164C262.562 145.164 270.104 149.204 281.986 147.64C292.626 146.268 297.35 139.97 296.98 140.78C295.37 135.463 293.339 130.283 290.905 125.289C296.493 111.493 296.335 104.818 294.848 100.393Z" fill="#455A64"/>
<path d="M244.011 123.774C241.384 121.663 238.861 119.42 236.303 117.226C234.257 115.48 232.201 113.746 230.132 112.022C229.622 111.597 229.119 111.138 228.581 110.74C228.067 110.393 227.53 110.079 226.975 109.801C225.796 109.115 224.624 108.491 223.438 107.847C222.713 107.492 222.021 107.075 221.37 106.599C220.667 106.043 219.997 105.448 219.363 104.816C218.89 104.453 218.518 103.976 218.283 103.43C218.048 102.884 217.957 102.287 218.019 101.697C217.996 101.254 218.061 100.811 218.212 100.394C218.495 99.7083 219.198 99.5369 219.543 98.9815C219.887 98.4261 219.632 97.7542 220.067 97.2674C220.346 97.0226 220.675 96.8402 221.032 96.7326C221.721 96.4378 221.811 96.047 221.521 95.471C221.232 94.8951 220.921 94.3054 220.604 93.7363C219.625 91.9811 219.225 90.5824 220.122 90.1299C221.328 89.4922 222.376 91.3023 223.783 93.3798C225.189 95.4573 226.389 97.5759 228.395 99.1941C228.554 98.0696 228.705 96.9451 228.864 95.8276C228.888 95.3844 229.021 94.9538 229.25 94.5728C229.371 94.3871 229.555 94.2498 229.767 94.1846C229.98 94.1195 230.21 94.1307 230.415 94.2163C230.565 94.3328 230.688 94.4789 230.779 94.6452C230.869 94.8116 230.923 94.9947 230.939 95.183L231.684 98.433C231.914 99.7236 232.322 100.976 232.897 102.156C233.863 103.713 235.142 105.056 236.654 106.098C240.791 109.294 245.1 112.201 249.464 115.012C249.464 115.012 259.909 105.125 262.805 102.423C265.7 99.722 267.486 98.6318 271.822 98.2479C271.822 98.2479 275.27 106.044 270.368 112.07C270.368 112.07 254.511 124.103 251.457 125.434C248.933 126.599 246.699 125.927 244.011 123.774Z" fill="#FFA8A7"/>
<path d="M276 147.997C277.981 148.02 279.962 147.901 281.926 147.638C291.688 146.355 296.593 141.008 297 140.683C295.41 135.346 293.369 130.152 290.901 125.159C293.751 118.156 295.117 112.981 295.579 109C295.117 111.905 290.826 123.151 285.231 126.525C285.231 126.525 288.397 127.015 291.108 130.741C293.82 134.467 291.578 147.197 276 147.997Z" fill="#37474F"/>
<path d="M49.0027 124.96C49.0355 123.893 49.154 122.83 49.3573 121.783C49.516 120.817 49.9832 119.932 50.6868 119.263C50.8374 119.12 51.028 119.028 51.2323 119V122.71C51.6966 123.854 52.5247 124.806 53.5845 125.417C53.7724 125.535 53.9771 125.624 54.1913 125.68C54.2978 125.705 54.4083 125.708 54.5161 125.689C54.6239 125.67 54.7268 125.629 54.8186 125.569C55.18 125.32 55.0368 124.967 54.9141 124.634C54.5446 123.589 54.4049 122.474 54.505 121.367C54.5121 121.075 54.5969 120.791 54.7504 120.544C54.8303 120.423 54.9478 120.334 55.0839 120.29C55.22 120.246 55.3668 120.25 55.5004 120.301C55.6825 120.419 55.8177 120.598 55.8822 120.807C56.3459 122.057 56.9499 123.248 57.6822 124.358C59.2299 126.351 59.1549 127.998 60.6686 129.895C61.2277 130.587 67.4867 136.125 72.4776 140.056C81.798 130.518 87.1434 123.686 90.7434 125.181C94.7797 126.033 97.1797 130.719 92.1956 135.723C87.0581 140.609 81.5902 145.124 75.8321 149.235C73.2821 150.91 70.9639 152.274 67.7799 149.02C63.689 144.826 61.3913 141.669 59.6799 139.683C58.2881 138.126 56.7046 136.758 54.9686 135.613C54.2186 135.1 53.4413 134.616 52.6914 134.097C52.0532 133.626 51.4996 133.048 51.055 132.387C50.156 131.091 49.5442 129.613 49.2618 128.054C49.0698 127.034 48.983 125.997 49.0027 124.96V124.96Z" fill="#FFA8A7"/>
<path d="M73 140.827C71.4358 141.905 70 145 70 145C70.0455 143.195 70.6986 141.448 71.869 140L73 140.827Z" fill="#F28F8F"/>
<path d="M95 126.594C92.6765 124.766 89.1604 124.007 85.5757 127.098C82.2515 129.954 75 137.321 75 137.321C75.0309 139.504 75.7193 141.625 76.974 143.406C79.1124 146.586 80.8807 147 80.8807 147L92.5326 137.501L95 126.594Z" fill="white"/>
<path d="M132.909 282.204C133.258 283.807 132.638 284.642 130.43 285.835C128.222 287.028 124.76 287.432 121.117 286.441C117.474 285.45 115.732 283.964 114.221 283.612C112.709 283.26 108.962 283.221 107.464 282.816C105.966 282.412 105.994 281.689 106.001 280L132.909 282.204Z" fill="#455A64"/>
<path d="M107.557 271C107.557 271 106.858 273.194 106.46 275.111C106.16 276.637 105.72 279.193 106.243 280.337C106.767 281.48 108.821 282.225 112 282.204C114.06 282.204 117.274 283.624 119.467 284.852C121.661 286.08 124.204 286.144 126.6 285.86C129.394 285.52 132.363 283.858 132.817 282.665C133.271 281.473 133.397 280.578 126.725 277.695C126.669 277.695 118.992 274.784 115.765 271.17L107.557 271Z" fill="white"/>
<g opacity="0.3">
<path d="M107.557 271C107.557 271 106.858 273.194 106.46 275.111C106.16 276.637 105.72 279.193 106.243 280.337C106.767 281.48 108.821 282.225 112 282.204C114.06 282.204 117.274 283.624 119.467 284.852C121.661 286.08 124.204 286.144 126.6 285.86C129.394 285.52 132.363 283.858 132.817 282.665C133.271 281.473 133.397 280.578 126.725 277.695C126.669 277.695 118.992 274.784 115.765 271.17L107.557 271Z" fill="black"/>
</g>
<path d="M120 284.945C120 284.945 120.585 279.069 125.336 277.392C129.615 275.873 133.389 279.069 132.968 281.849C132.668 283.72 127.454 287.969 120 284.945Z" fill="#FAFAFA"/>
<path d="M124 276.762C122.776 276.859 121.621 277.311 120.713 278.048C119.326 279.09 119.268 279.778 119.268 279.778C119.165 279.885 119.025 279.958 118.87 279.986C118.715 280.015 118.554 279.998 118.411 279.937C118.269 279.877 118.152 279.776 118.08 279.651C118.008 279.526 117.983 279.383 118.011 279.244C118.011 279.244 118.329 276.588 122.259 276.028C122.599 275.967 122.952 276.006 123.266 276.138C123.58 276.27 123.837 276.489 124 276.762V276.762Z" fill="#FAFAFA"/>
<path d="M121 275.747C119.764 275.757 118.577 276.177 117.672 276.924C116.28 277.961 116.273 278.778 116.273 278.778C116.169 278.885 116.028 278.958 115.873 278.986C115.718 279.015 115.556 278.998 115.413 278.937C115.27 278.877 115.153 278.776 115.08 278.651C115.008 278.526 114.983 278.383 115.011 278.244C115.011 278.244 115.337 275.586 119.282 275.026C119.617 274.968 119.965 275.007 120.273 275.137C120.582 275.267 120.837 275.48 121 275.747V275.747Z" fill="#FAFAFA"/>
<path d="M119 273.876C117.803 273.807 116.624 274.176 115.691 274.912C114.286 275.926 114.202 276.797 114.202 276.797C114.093 276.904 113.952 276.973 113.799 276.993C113.646 277.014 113.491 276.985 113.357 276.911C113.222 276.837 113.117 276.722 113.056 276.584C112.996 276.445 112.984 276.291 113.022 276.145C113.022 276.145 113.535 273.342 117.391 273.013C117.719 272.971 118.051 273.032 118.341 273.188C118.63 273.343 118.861 273.584 119 273.876V273.876Z" fill="#FAFAFA"/>
<path d="M107 266C107 266 107 269.707 107 270.68C107 271.653 108.205 273.104 111.342 272.994C113.547 272.917 115.085 272.349 114.996 270.641V266.387L107 266Z" fill="#FFA8A7"/>
<path d="M103.881 252C103.99 253.39 104.173 254.646 103.623 256.177C102.841 258.379 101.175 259.386 100.223 260.252C99.1233 261.256 98.165 262.401 97.3734 263.657C96.5947 265.031 95.5931 266.269 94.4086 267.323C93.477 268.115 90.8658 268.189 89.6078 267.665C88.3498 267.142 87.9282 266.672 88.0098 264.691C88.0914 262.71 94.1774 262.005 94.1774 262.005L103.881 252Z" fill="#455A64"/>
<path d="M88.8826 259.594C88.3512 259.799 88.1925 260.826 88.1373 262.861C88.0752 264.402 87.4472 266.662 89.5174 267.633C91.2012 268.421 93.8855 267.901 95.0379 266.443C96.4594 264.627 97.4117 263.03 99.4336 260.812C101.186 258.891 103.015 258.243 103.795 254.407C104.299 251.936 103.905 250.887 102.277 250.183C100.034 249.212 96.5215 252.394 94.7619 252.893C93.2369 253.351 89.407 259.39 88.8826 259.594Z" fill="white"/>
<path opacity="0.3" d="M88.8826 259.594C88.3512 259.799 88.1925 260.826 88.1373 262.861C88.0752 264.402 87.4472 266.662 89.5174 267.633C91.2012 268.421 93.8855 267.901 95.0379 266.443C96.4594 264.627 97.4117 263.03 99.4336 260.812C101.186 258.891 103.015 258.243 103.795 254.407C104.299 251.936 103.905 250.887 102.277 250.183C100.034 249.212 96.5215 252.394 94.7619 252.893C93.2369 253.351 89.407 259.39 88.8826 259.594Z" fill="black"/>
<path d="M94.8607 253.102L95.1613 253C96.1641 253.057 97.134 253.377 97.9734 253.926C98.8129 254.475 99.4921 255.234 99.9429 256.128C100.237 256.808 99.3281 257.284 98.7817 256.808C98.3006 255.939 97.6133 255.202 96.7798 254.659C95.9463 254.116 94.9919 253.785 94 253.694C94.241 253.437 94.5345 253.235 94.8607 253.102V253.102Z" fill="#FAFAFA"/>
<path d="M92.6747 254C93.5805 254.105 94.4465 254.446 95.1928 254.992C95.9392 255.539 96.5418 256.272 96.9453 257.126C97.2269 257.81 96.3557 258.281 95.8383 257.81C95.4502 257.046 94.9047 256.381 94.2409 255.865C93.5771 255.348 92.8118 254.991 92 254.821C92.2293 254.506 92.4454 254.239 92.6747 254Z" fill="#FAFAFA"/>
<path d="M88 256L88.3065 260.1C88.3065 260.1 90.8766 262.008 94.5751 260.268C94.6866 260.032 95 256.363 95 256.363L88 256Z" fill="#FFA8A7"/>
<path d="M102.495 257C102.495 257 102.324 252.771 96.3419 252.185L96 252.367C96.6689 251.321 97.7213 250.548 98.9536 250.198C100.943 249.683 102.523 250.198 103.569 251.462C104.615 252.726 103.562 256.173 102.495 257Z" fill="#FAFAFA"/>
<path d="M86.1764 227.59C86.5849 223.591 87.3887 219.643 88.5759 215.803C88.5759 215.803 87.5386 205.721 86.9094 196.117C86.6466 191.898 86.5152 187.244 86.4322 182.997C86.3224 178.318 86.6745 173.639 87.4833 169.028C87.4833 169.028 117.217 162.04 118.054 174.007C119.029 187.465 119.112 217.778 118.912 221.534C118.635 226.803 118.628 232.285 117.729 240.868C116.844 249.306 115.364 268.316 115.364 268.316C111.077 269.855 106.409 268.316 106.409 268.316C106.409 268.316 103.927 245.37 104.038 239.314C104.127 234.811 104.804 230.338 106.05 226.008L102.081 192.602C102.081 192.602 101.68 207.441 101.389 212.709C101.099 217.978 100.387 221.196 99.0796 231.008C97.9525 239.515 95.0136 256.674 95.0136 256.674C92.7366 257.608 90.1822 257.608 87.9051 256.674C87.9051 256.674 85.312 234.971 86.1764 227.59Z" fill="#37474F"/>
<path d="M91 186C91 186 95.0167 191.122 100.182 193.324C100.182 193.324 102.429 211.354 102.415 210.995L103 192.857C103 192.857 95.2735 189.442 91 186Z" fill="#263238"/>
<path d="M106 121.304L105.505 132L95 131.432L95.3279 119L106 121.304Z" fill="#FFA8A7"/>
<path d="M84.7408 131.484C85.6283 128.498 89.1717 124.447 92.871 125.063C93.7314 125.201 93.9211 125.325 94.7341 125.477C95.1813 127.323 100.717 128.007 105.452 126.86C106.875 127.24 111.747 128.995 112.905 129.403C116.293 130.551 116.889 133.958 117.417 145.3C117.417 145.3 117.959 168.316 118 177.64C108.318 182.223 100.961 181.096 96.0621 180.136C85.8655 178.104 86.3668 176.424 86.3668 176.424C86.8004 170.203 86.5362 165.22 86.3668 159.082C86.2583 154.684 85.7296 150.306 84.7882 146.012C83.4129 139.1 84.131 133.536 84.7408 131.484Z" fill="#455A64"/>
<path d="M166 156.409C165.974 156.212 165.896 156.027 165.774 155.872C165.652 155.717 165.491 155.598 165.307 155.528C164.942 155.387 164.556 155.311 164.165 155.304C161.84 155.101 159.541 154.668 157.301 154.011C156.705 153.837 156.026 153.557 155.874 152.949C155.687 152.215 156.38 151.6 156.864 151.02C157.413 150.37 157.758 149.57 157.855 148.721C157.917 148.225 157.758 147.162 156.954 147.687C155.803 148.497 154.564 149.174 153.263 149.706C150.929 150.713 149.924 151.838 147.652 152.802C142.69 154.303 137.644 155.502 132.539 156.395C124.124 146.457 117.994 131.557 114.04 131.116C110.029 129.893 107.335 138.58 110.182 144.688C112.627 149.93 122.462 160.567 124.512 162.894C126.562 165.221 128.065 167.982 132.463 166.654C138.136 164.949 141.682 163.271 144.155 162.349C145.762 161.741 147.618 160.853 149.342 160.665C150.225 160.528 151.124 160.542 152.002 160.707C152.993 160.93 153.983 161.175 154.973 161.405C156.476 161.788 158.016 162.003 159.566 162.048C160.302 162.119 161.044 161.996 161.72 161.692C162.186 161.414 162.59 161.04 162.904 160.595C163.202 160.217 163.597 159.98 163.908 159.609C164.135 159.357 164.296 159.052 164.375 158.721C164.455 158.39 164.452 158.045 164.365 157.715C164.743 157.653 165.109 157.528 165.446 157.345C165.61 157.25 165.748 157.114 165.845 156.95C165.942 156.786 165.995 156.6 166 156.409V156.409Z" fill="#FFA8A7"/>
<path d="M113.773 130C117.422 130.686 117.875 132.119 120.27 136.117C122.666 140.116 128 149.148 128 149.148C128 149.148 126.503 154.476 119.699 157C119.699 157 113.362 149.854 110.646 145.046C107.93 140.239 108.313 132.483 113.773 130Z" fill="white"/>
<path d="M114 108C114 108 116.236 111.89 115.98 112.274C115.723 112.658 114.083 113 114.083 113L114 108Z" fill="#F28F8F"/>
<path d="M105.771 97.4921C110.895 98.5675 112.368 100.82 112.855 108.99C113.355 117.492 112.49 120.163 111.375 121.313C110.618 122.084 106.434 122.226 104.318 121.638C101.675 120.914 95.7004 118.79 92.9021 114.516C89.6105 109.484 88.7453 102.666 92.2735 99.866C97.1941 95.923 103.656 97.0525 105.771 97.4921Z" fill="#FFA8A7"/>
<path d="M106 121.913C104.985 121.689 103.983 121.384 103 121C103.75 122.021 104.749 122.722 105.85 123L106 121.913Z" fill="#F28F8F"/>
<path d="M114.447 100.243C114.05 100.642 113.606 100.992 113.124 101.285C112.435 101.734 111.715 102.135 110.97 102.483C110.242 102.746 109.539 103.074 108.87 103.464C107.936 104.145 107.813 105.016 107.793 106.092C107.793 106.773 107.793 107.665 107.793 108.612C107.793 110.035 106.872 111.118 106.429 109.211C106.429 109.211 105.611 106.045 102.938 106.446C100.266 106.848 100.034 109.851 101.309 112.208C102.086 113.644 104.159 113.263 104.159 113.263C104.233 114.589 104.023 115.915 103.542 117.153C103.061 118.391 102.321 119.512 101.37 120.441C101.37 120.441 99.2497 121.544 95.0498 120.652C92.1726 116.695 90.3659 114.775 88.8318 111.363C85.5865 104.145 87.1546 99.6161 89.6636 97.7434C90.1613 94.4202 92.7794 92.9289 95.7998 92.2411C100.266 91.2128 104.452 93.8686 108.87 92.8744C109.598 92.7269 110.317 92.5382 111.024 92.3092C111.298 92.1834 111.609 92.1639 111.897 92.2547C112.056 92.36 112.18 92.51 112.254 92.6856C112.328 92.8613 112.349 93.0549 112.313 93.2421C112.281 93.6689 112.147 94.0818 111.921 94.4457C111.696 94.8097 111.386 95.1139 111.017 95.3328C111.106 95.2783 111.536 95.394 111.658 95.4009C111.904 95.4009 112.149 95.4009 112.402 95.4009C112.887 95.3937 113.372 95.3596 113.854 95.2987C114.187 95.2453 114.527 95.2568 114.856 95.3328C115.216 95.4743 115.52 95.7274 115.725 96.0546C115.93 96.3819 116.024 96.7661 115.995 97.151C115.921 97.9223 115.649 98.6614 115.204 99.2961C115.045 99.5641 114.864 99.8191 114.665 100.059L114.447 100.243Z" fill="#263238"/>
<path d="M88.7753 99L86 96.9757C86.1078 96.751 86.2505 96.5547 86.4198 96.398C86.5891 96.2413 86.7819 96.1273 86.9869 96.0624C87.192 95.9975 87.4055 95.9831 87.6151 96.0199C87.8247 96.0567 88.0264 96.1441 88.2086 96.277C88.3909 96.4099 88.5501 96.5858 88.6772 96.7945C88.8043 97.0033 88.8968 97.2409 88.9494 97.4938C89.002 97.7466 89.0137 98.0098 88.9839 98.2682C88.954 98.5267 88.8831 98.7753 88.7753 99V99Z" fill="#263238"/>
<path d="M341 179C341 179 328.098 176.037 321.028 169.433C313.959 162.829 310 151 310 151C314.905 151.953 319.74 153.24 324.473 154.854C326.248 156.712 327.725 158.839 328.852 161.158C328.963 159.666 328.963 158.167 328.852 156.674C330.505 157.396 332.051 158.345 333.448 159.495C339.343 164.665 341 179 341 179Z" fill="#F6F6F6"/>
<path d="M318.354 156.824C316.593 155.599 314.799 154.421 313.045 153.188C312.936 153.118 313.045 152.946 313.147 153.017C316.483 155.006 319.765 157.136 322.946 159.367C324.053 160.148 325.145 160.928 326.22 161.778L325.994 161.396C325.605 160.748 325.215 160.109 324.786 159.469C323.973 158.173 323.055 156.947 322.042 155.802C322.003 155.763 322.042 155.7 322.104 155.739C323.11 156.902 324.116 158.08 325.035 159.289C325.472 159.874 325.877 160.483 326.267 161.099C326.47 161.427 326.657 161.747 326.844 162.082C326.906 162.192 326.977 162.301 327.039 162.418C328.715 163.729 330.344 165.102 331.896 166.545C332.857 167.44 333.782 168.366 334.671 169.323C334.172 167.762 333.736 166.202 333.159 164.642C333.159 164.587 333.221 164.563 333.245 164.642C333.806 166.257 334.422 167.887 334.858 169.549C335.851 170.615 336.794 171.726 337.688 172.88L337.641 172.67C337.493 172.061 337.337 171.453 337.181 170.852C336.862 169.674 336.519 168.511 336.121 167.364C335.382 164.981 334.205 162.756 332.652 160.803C332.613 160.756 332.652 160.694 332.714 160.741C335.137 163.765 336.831 167.308 337.665 171.094C337.805 171.64 337.938 172.194 338.062 172.748C338.125 173.044 338.203 173.341 338.257 173.645C338.647 174.176 339.037 174.706 339.395 175.252C341.596 178.626 343.425 182.228 344.853 185.996C346.468 190.227 347.852 194.542 349 198.923C349 199.009 348.891 199.041 348.867 198.923C346.342 191.356 343.753 183.671 339.427 176.898C338.507 175.471 337.524 174.098 336.472 172.763C334.329 172.626 332.214 172.206 330.181 171.515C327.962 170.764 325.846 169.74 323.882 168.464C322.76 167.709 321.68 166.894 320.646 166.022C320.639 166.02 320.633 166.016 320.628 166.01C320.623 166.005 320.619 165.999 320.617 165.991C320.615 165.984 320.615 165.977 320.616 165.97C320.618 165.962 320.621 165.955 320.625 165.95C320.63 165.944 320.636 165.939 320.642 165.936C320.649 165.933 320.656 165.931 320.664 165.932C320.671 165.932 320.678 165.934 320.685 165.937C320.691 165.941 320.697 165.946 320.701 165.952C322.508 167.412 324.504 168.622 326.634 169.549C328.724 170.51 330.912 171.242 333.159 171.734C334.11 171.944 335.077 172.1 336.051 172.233C334.852 170.758 333.577 169.346 332.231 168.004C331.794 167.567 331.342 167.146 330.898 166.725C329.39 165.671 327.79 164.755 326.119 163.986C323.999 162.964 321.909 161.872 319.812 160.811C318.627 160.202 317.473 159.586 316.265 159.008C316.259 159.004 316.253 158.998 316.25 158.992C316.246 158.985 316.244 158.977 316.244 158.969C316.244 158.962 316.246 158.954 316.25 158.947C316.253 158.941 316.259 158.935 316.265 158.93C318.393 159.96 320.553 160.92 322.697 161.903C324.716 162.831 326.758 163.76 328.7 164.844L328.941 164.993C327.195 163.432 325.378 162.012 323.523 160.608C321.863 159.313 320.108 158.041 318.354 156.824Z" fill="#263238"/>
<path d="M319.074 164.004C320.063 164.446 321.082 164.836 322.027 165.308C323.038 165.797 324.024 166.338 324.98 166.928C324.985 166.93 324.989 166.933 324.992 166.937C324.995 166.941 324.997 166.946 324.999 166.951C325 166.956 325 166.961 325 166.966C324.999 166.971 324.998 166.976 324.995 166.98C324.993 166.985 324.99 166.988 324.986 166.992C324.982 166.995 324.977 166.997 324.972 166.999C324.968 167 324.963 167 324.958 167C324.953 166.999 324.948 166.998 324.944 166.995C323.969 166.523 322.98 166.081 321.99 165.586C321.001 165.091 320.019 164.536 319 164.086C319 164.064 319.022 163.981 319.074 164.004Z" fill="#263238"/>
<path d="M382 114C379.639 117.036 378.297 120.744 378.166 124.593C378.166 125.738 378.304 127.329 378.435 129.205C375.261 131.05 372.45 133.459 370.138 136.315C372.679 134.839 375.595 134.139 378.527 134.301C378.462 135.593 378.3 136.877 378.044 138.145C376.203 138.154 374.381 138.517 372.676 139.213C374.346 139.196 376.001 139.525 377.538 140.182C375.237 147.415 368.536 154.848 349.935 158C347.964 149.129 349.13 139.847 353.232 131.741C358.798 120.718 382 114 382 114Z" fill="#F6F6F6"/>
<path d="M343.671 189.341C343.991 186.25 344.389 183.159 344.867 180.068C345.819 173.887 347.046 167.751 348.601 161.708C349.325 158.868 350.215 156.073 351.267 153.34C351.218 152.842 351.195 152.341 351.199 151.841C351.199 151.238 351.199 150.635 351.199 150.04C351.199 148.835 351.267 147.637 351.366 146.439C351.552 144.067 351.934 141.715 352.509 139.408C352.845 138.071 353.271 136.757 353.622 135.436C353.625 135.428 353.631 135.421 353.639 135.416C353.646 135.411 353.655 135.408 353.664 135.408C353.673 135.408 353.681 135.411 353.689 135.416C353.696 135.421 353.702 135.428 353.706 135.436C353.092 137.74 352.636 140.084 352.342 142.452C352.008 144.785 351.8 147.135 351.717 149.492C351.717 150.141 351.717 150.782 351.717 151.431C351.717 151.702 351.717 151.98 351.717 152.258C352.629 150.017 353.67 147.831 354.833 145.713C356.713 142.361 358.829 139.151 361.165 136.108C361.171 135.753 361.222 135.399 361.318 135.057C361.409 134.64 361.493 134.223 361.584 133.805C361.775 132.948 361.988 132.098 362.217 131.248C362.682 129.548 363.284 127.91 363.809 126.233C363.813 126.224 363.819 126.217 363.826 126.212C363.834 126.207 363.842 126.205 363.851 126.205C363.86 126.205 363.869 126.207 363.876 126.212C363.884 126.217 363.89 126.224 363.893 126.233C363.405 127.894 363.078 129.617 362.704 131.302L362.156 133.813C362.064 134.23 361.981 134.655 361.889 135.073C361.893 135.103 361.893 135.135 361.889 135.165C362.636 134.207 363.398 133.264 364.175 132.337C367.703 128.141 371.574 124.262 375.475 120.414C375.955 119.943 376.443 119.479 376.93 119.015C376.93 118.977 377.029 119.015 376.991 119.077C373.265 123.018 369.6 127.005 366.126 131.178C365.303 132.167 364.49 133.172 363.687 134.192C364.106 133.898 364.533 133.62 364.952 133.342C366.027 132.623 367.116 131.935 368.236 131.294C369.356 130.653 370.522 130.034 371.642 129.455C372.762 128.875 374.096 128.373 375.246 127.701C375.292 127.701 375.338 127.755 375.284 127.778C374.116 128.325 372.987 128.958 371.909 129.671C370.781 130.346 369.664 131.036 368.556 131.742C367.467 132.438 366.377 133.125 365.295 133.844C364.396 134.431 363.512 135.08 362.575 135.629C360.429 138.421 358.452 141.342 356.654 144.376C355.537 146.283 354.52 148.249 353.607 150.264L354.27 149.971L355.961 149.198C357.051 148.703 358.14 148.224 359.23 147.745C361.31 146.833 363.413 145.991 365.448 144.987C366.594 144.438 367.704 143.813 368.77 143.117C368.815 143.117 368.854 143.163 368.808 143.194C364.998 145.844 360.769 147.714 356.571 149.592L354.75 150.411C354.247 150.635 353.751 150.89 353.226 151.083C351.98 153.902 350.936 156.807 350.102 159.777C348.432 165.763 347.074 171.835 346.033 177.966C344.974 184.094 344.257 190.261 343.701 196.45C343.633 197.223 343.564 197.995 343.48 198.768C343.48 199.077 342.992 199.077 343 198.768C343.031 195.615 343.351 192.463 343.671 189.341Z" fill="#263238"/>
<path d="M354.645 137.523C354.964 135.667 355.442 133.856 355.928 132.038C355.928 132.028 355.931 132.018 355.938 132.011C355.945 132.004 355.954 132 355.964 132C355.973 132 355.983 132.004 355.989 132.011C355.996 132.018 356 132.028 356 132.038C355.558 133.818 355.275 135.637 354.92 137.447C354.565 139.258 354.297 141.144 354.043 143H354C354.114 141.163 354.329 139.334 354.645 137.523V137.523Z" fill="#263238"/>
<path d="M363.014 142.819C364.255 141.852 365.555 140.991 366.903 140.242C367.551 139.847 368.214 139.478 368.877 139.1C369.54 138.722 370.262 138.395 370.94 138C370.984 138 371.028 138.06 370.977 138.086C370.321 138.464 369.702 138.945 369.062 139.34C368.421 139.735 367.743 140.199 367.073 140.603C365.769 141.462 364.48 142.321 363.11 143C363.091 143.001 363.072 142.997 363.056 142.987C363.039 142.977 363.025 142.962 363.015 142.943C363.006 142.925 363 142.903 363 142.881C363 142.86 363.005 142.838 363.014 142.819V142.819Z" fill="#263238"/>
<path opacity="0.1" d="M340 157C340 157 328.297 154.121 322.922 146.018C317.792 138.308 316.13 125.161 316 124C316.206 125.059 318.623 136.551 326.59 141.908C332.651 146.034 338.551 149.407 340 157Z" fill="#263238"/>
<path d="M340.778 157C340.778 157 328.697 154.128 323.148 146.044C317.852 138.352 316.136 125.236 316.002 124.078C315.999 124.052 315.999 124.026 316.002 124C316.002 124 321.795 132.185 327.886 134.275C333.978 136.364 342.486 143.595 340.778 157Z" fill="#F6F6F6"/>
<path d="M318.087 128.021C319.137 130.221 320.347 132.338 321.706 134.353C323.069 136.262 324.687 137.966 326.514 139.413C328.106 140.708 329.782 141.877 331.39 143.141V143.086C331.093 142.626 330.765 142.181 330.437 141.745C329.767 140.871 329.035 140.045 328.296 139.226C326.841 137.612 325.363 136.029 324.06 134.283C323.333 133.31 322.702 132.265 322.178 131.164C322.178 131.117 322.239 131.086 322.262 131.164C324.159 135.203 327.946 137.792 330.643 141.215C331.032 141.697 331.393 142.202 331.725 142.727C331.994 143.104 332.219 143.513 332.395 143.944C333.878 145.155 335.218 146.539 336.388 148.068C336.284 147.279 336.129 146.497 335.923 145.729C335.646 144.665 335.228 143.644 334.681 142.696C334.681 142.649 334.727 142.602 334.75 142.649C335.319 143.594 335.777 144.604 336.113 145.659C336.361 146.5 336.504 147.37 336.54 148.248V148.248C337.119 149.048 337.646 149.887 338.117 150.759C338.071 150.501 338.026 150.252 337.972 149.979C337.744 148.786 337.485 147.593 337.211 146.423C336.663 144.025 335.712 141.743 334.399 139.678C334.392 139.668 334.389 139.655 334.391 139.643C334.394 139.631 334.4 139.619 334.411 139.612C334.421 139.605 334.433 139.602 334.445 139.604C334.457 139.607 334.468 139.614 334.475 139.624C335.816 141.663 336.865 143.886 337.591 146.228C337.965 147.398 338.262 148.567 338.521 149.799C338.65 150.384 338.765 150.977 338.879 151.569C338.932 151.881 339.001 152.193 339.047 152.505C340.208 155.112 341.112 157.831 341.744 160.622C342.875 165.613 343.692 170.674 344.189 175.773C344.791 181.106 345.058 186.474 344.989 191.843C344.989 192.513 344.944 193.184 344.906 193.862C344.906 194.034 344.647 194.057 344.639 193.862C344.525 191.204 344.456 188.545 344.304 185.894C344.151 183.242 343.923 180.583 343.641 177.94C343.111 172.738 342.297 167.571 341.203 162.462C340.258 158.088 339.031 153.683 336.692 149.846C335.528 147.941 334.107 146.214 332.472 144.716C330.834 143.211 329.035 141.885 327.306 140.489C325.557 139.123 323.97 137.553 322.575 135.811C321.146 133.876 319.901 131.805 318.857 129.628C318.575 129.09 318.293 128.552 318.019 128.006C317.958 128.021 318.064 127.975 318.087 128.021Z" fill="#263238"/>
<path d="M384 151C384 151 384.184 167.711 374.177 172.529C364.171 177.346 358.83 173.34 352 174.956C352.269 174.558 357.118 167.596 364.846 165.682C372.788 163.69 381.59 157.962 384 151Z" fill="#F6F6F6"/>
<path opacity="0.1" d="M384 151C384 151 384.184 167.711 374.177 172.529C364.171 177.346 358.83 173.34 352 174.956C355.596 173.256 359.435 172.127 363.38 171.609C369.703 170.836 381.759 166.731 384 151Z" fill="black"/>
<path d="M350.737 176.287C351.93 175.188 353.27 174.266 354.716 173.549C354.931 173.448 355.154 173.362 355.368 173.268C355.472 173.131 355.585 173.001 355.706 172.878C356.007 172.561 356.322 172.257 356.649 171.966C357.274 171.414 357.946 170.92 358.658 170.491C360.314 169.501 362.131 168.806 363.825 167.886C363.871 167.886 363.917 167.933 363.864 167.964C363.028 168.401 362.215 168.892 361.403 169.376C360.59 169.859 359.8 170.296 359.026 170.803C358.344 171.257 357.696 171.76 357.086 172.309C356.909 172.465 356.741 172.637 356.572 172.808C357.679 172.43 358.808 172.125 359.953 171.895C361.786 171.521 363.634 171.256 365.466 170.858C366.362 170.663 367.248 170.421 368.119 170.132C368.947 169.446 369.775 168.775 370.565 168.034C371.515 167.147 372.38 166.17 373.149 165.117C373.149 165.078 373.256 165.117 373.218 165.163C372.008 166.833 370.636 168.375 369.124 169.766C369.553 169.602 369.975 169.423 370.396 169.228C373.832 167.662 376.781 165.169 378.923 162.02C378.923 161.973 379.03 162.02 378.992 162.059C377.175 164.767 374.825 167.062 372.091 168.799C370.724 169.667 369.263 170.372 367.736 170.897C365.962 171.452 364.153 171.887 362.323 172.2C360.529 172.497 358.758 172.924 357.024 173.479C355.428 174.029 353.928 174.832 352.577 175.858C350.031 177.872 347.979 180.46 346.581 183.417C344.798 187.345 343.683 191.552 343.284 195.86C343.284 196.047 342.985 196.047 343.001 195.86C343.438 188.698 345.316 181.256 350.737 176.287Z" fill="#263238"/>
<path d="M363.009 169.942C363.58 169.156 364.349 168.511 365.249 168.062C366.285 167.564 367.194 166.868 367.916 166.019C367.916 165.973 368.033 166.019 367.991 166.066C367.336 166.84 366.538 167.5 365.634 168.015C364.644 168.503 363.771 169.172 363.068 169.981C363.043 170.027 362.976 169.981 363.009 169.942Z" fill="#263238"/>
<path d="M358 188L357.534 197.367L356.121 226H334.872L333.458 197.367L333 188H358Z" fill="#37474F"/>
<path d="M358 188L357.534 197H333.458L333 188H358Z" fill="#263238"/>
<path d="M359 184H331V193H359V184Z" fill="#37474F"/>
</svg>
