<svg width="30" height="30" viewBox="0 0 30 30" fill="none" xmlns="http://www.w3.org/2000/svg">
<rect width="30" height="30" rx="10" fill="#008E39"/>
<g clip-path="url(#clip0_3362_6441)">
<path d="M15.1227 8.65216L15.1233 10.5583C16.2204 10.697 17.2401 11.1967 18.0219 11.9787C18.8038 12.7606 19.3033 13.7804 19.4418 14.8775H21.348V16.1225L19.4418 16.1231C19.3031 17.2201 18.8036 18.2397 18.0217 19.0216C17.2399 19.8034 16.2203 20.303 15.1233 20.4416L15.1227 22.3478H13.8776V20.4416C12.7806 20.3031 11.7608 19.8036 10.9788 19.0217C10.1969 18.2399 9.69722 17.2202 9.55853 16.1231L7.65234 16.1225V14.8775H9.55853C9.6971 13.7803 10.1967 12.7604 10.9787 11.9785C11.7606 11.1965 12.7805 10.6969 13.8776 10.5583V8.65216H15.1227ZM14.5002 11.7648C13.5095 11.7648 12.5595 12.1583 11.859 12.8588C11.1585 13.5593 10.765 14.5094 10.765 15.5C10.765 16.4906 11.1585 17.4407 11.859 18.1412C12.5595 18.8416 13.5095 19.2352 14.5002 19.2352C15.4908 19.2352 16.4409 18.8416 17.1413 18.1412C17.8418 17.4407 18.2353 16.4906 18.2353 15.5C18.2353 14.5094 17.8418 13.5593 17.1413 12.8588C16.4409 12.1583 15.4908 11.7648 14.5002 11.7648ZM14.5002 14.2549C14.8304 14.2549 15.1471 14.3861 15.3806 14.6196C15.6141 14.8531 15.7452 15.1698 15.7452 15.5C15.7452 15.8302 15.6141 16.1469 15.3806 16.3804C15.1471 16.6139 14.8304 16.745 14.5002 16.745C14.17 16.745 13.8533 16.6139 13.6198 16.3804C13.3863 16.1469 13.2551 15.8302 13.2551 15.5C13.2551 15.1698 13.3863 14.8531 13.6198 14.6196C13.8533 14.3861 14.17 14.2549 14.5002 14.2549Z" fill="#F6F6F6"/>
</g>
<defs>
<clipPath id="clip0_3362_6441">
<rect width="15" height="15" fill="white" transform="translate(7 8)"/>
</clipPath>
</defs>
</svg>
