<svg width="519" height="510" viewBox="0 0 519 510" fill="none" xmlns="http://www.w3.org/2000/svg">
<path d="M259.5 510C402.818 510 519 439.485 519 352.5C519 265.515 402.818 195 259.5 195C116.182 195 0 265.515 0 352.5C0 439.485 116.182 510 259.5 510Z" fill="#FAFAFA"/>
<path d="M401 454C429.719 454 453 439.897 453 422.5C453 405.103 429.719 391 401 391C372.281 391 349 405.103 349 422.5C349 439.897 372.281 454 401 454Z" fill="#E0E0E0"/>
<path d="M63.4449 407.902L20.8041 382.009C18.3986 380.546 18.3986 378.186 20.8041 376.722L268.839 226.084C270.19 225.371 271.68 225 273.192 225C274.703 225 276.193 225.371 277.544 226.084L320.196 251.988C322.601 253.441 322.601 255.812 320.196 257.276L72.1608 407.902C70.8105 408.624 69.3174 409 67.8029 409C66.2883 409 64.7952 408.624 63.4449 407.902Z" fill="#E0E0E0"/>
<path d="M217.535 361.567L254.311 339.303C258.107 337.037 260 334 260 330.998C260 327.995 260 325.65 260 325.65L221.862 303.114C220.797 302.386 219.911 301.405 219.276 300.252C218.641 299.098 218.274 297.804 218.206 296.474V249L154 287.863V335.337C154.07 336.667 154.438 337.96 155.073 339.113C155.708 340.267 156.593 341.247 157.656 341.977L190.105 361.567C197.665 366.144 209.953 366.144 217.535 361.567Z" fill="#263238"/>
<path d="M169 344.633V350L157.547 342.855C156.513 342.122 155.653 341.135 155.037 339.975C154.421 338.815 154.066 337.514 154 336.177V288.441L165.895 281C166.147 284.271 166.411 287.655 166.663 290.948L158.316 296.179V333.488C158.378 334.826 158.733 336.13 159.352 337.291C159.971 338.451 160.835 339.437 161.874 340.166L169 344.633Z" fill="black"/>
<path d="M158 333.008C158.068 334.338 158.433 335.633 159.065 336.788C159.696 337.942 160.577 338.923 161.636 339.652L189.483 356.556C197.012 361.148 209.242 361.148 216.782 356.556L253.353 334.289C260.882 329.754 260.882 322.271 253.353 317.679L225.484 300.752C224.424 300.026 223.541 299.045 222.909 297.89C222.278 296.735 221.914 295.439 221.848 294.108V257L158.011 295.888L158 333.008Z" fill="#37474F"/>
<path d="M233 305.235L225.579 300.704C224.517 299.978 223.633 298.998 223.001 297.844C222.368 296.691 222.004 295.396 221.938 294.066V257L158 295.855V332.944C158.068 334.273 158.433 335.567 159.066 336.72C159.699 337.874 160.581 338.854 161.641 339.582L168.933 344L233 305.235Z" fill="#263238"/>
<path d="M259 326V331.318C259 334.297 257.116 337.265 253.368 339.547L216.966 361.627C212.977 363.862 208.521 365.021 204 365V359.705C208.522 359.731 212.979 358.572 216.966 356.332L253.368 334.229C257.116 331.913 259 328.934 259 326Z" fill="#455A64"/>
<path d="M55.2775 378.976C56.6579 379.678 58.176 380.028 59.709 379.998C61.2419 379.969 62.7468 379.56 64.1019 378.806L311.442 228.595C312.771 227.689 313.876 226.465 314.668 225.023C315.46 223.581 315.917 221.962 316 220.299V9.15016C315.938 7.53502 315.516 5.95787 314.767 4.54623C314.018 3.13459 312.964 1.92807 311.69 1.02424C310.31 0.32247 308.792 -0.0278081 307.259 0.00172385C305.726 0.0312558 304.221 0.439768 302.866 1.19424L55.5576 151.359C54.2312 152.268 53.1273 153.492 52.3354 154.934C51.5434 156.375 51.0859 157.993 51 159.655V370.85C51.0583 372.462 51.4757 374.037 52.2187 375.449C52.9617 376.86 54.0094 378.068 55.2775 378.976Z" fill="#455A64"/>
<path d="M64.539 379.358L311.45 229.041C312.774 228.132 313.876 226.907 314.667 225.464C315.458 224.021 315.914 222.403 316 220.739V9.42433C316 6.36197 313.967 5.12568 311.45 6.65686L64.5497 156.974C63.2256 157.883 62.1236 159.108 61.333 160.551C60.5425 161.993 60.0858 163.612 60 165.276V376.591C60 379.653 62.0329 380.855 64.539 379.358Z" fill="#C0C33F"/>
<path d="M64.539 379.358L311.45 229.041C312.774 228.132 313.876 226.907 314.667 225.464C315.458 224.021 315.914 222.403 316 220.739V9.42433C316 6.36197 313.967 5.12568 311.45 6.65686L64.5497 156.974C63.2256 157.883 62.1236 159.108 61.333 160.551C60.5425 161.993 60.0858 163.612 60 165.276V376.591C60 379.653 62.0329 380.855 64.539 379.358Z" fill="#37474F"/>
<path d="M63 384.164C61.7553 384.744 60.4097 385.029 59.0545 384.998C57.6993 384.967 56.3661 384.621 55.1451 383.985C53.9183 383.091 52.9037 381.896 52.1836 380.499C51.4634 379.102 51.0579 377.541 51 375.942V357L59.2176 362.142V381.084C59.2591 383.839 60.8756 385.083 63 384.164Z" fill="#263238"/>
<path d="M60 361.469V380.585C60 383.639 62.0328 384.872 64.5388 383.345L311.451 233.44C312.776 232.533 313.879 231.309 314.669 229.868C315.46 228.427 315.916 226.811 316 225.15V206L60 361.469Z" fill="#37474F"/>
<path opacity="0.2" d="M60 361.424V380.585C60 383.639 62.0329 384.872 64.539 383.345L311.45 233.44C312.776 232.533 313.879 231.309 314.669 229.868C315.46 228.427 315.916 226.811 316 225.15V206L60 361.424Z" fill="black"/>
<path d="M68 336.945V167.162C68.0518 166.165 68.3261 165.194 68.8009 164.329C69.2757 163.464 69.9375 162.729 70.7328 162.184L304.267 20.392C305.784 19.4756 307 20.2223 307 22.0439V191.838C306.948 192.836 306.674 193.806 306.199 194.671C305.724 195.536 305.062 196.271 304.267 196.817L70.6897 338.608C69.2158 339.525 68 338.778 68 336.945Z" fill="#C0C33F"/>
<path opacity="0.3" d="M68 336.945V167.162C68.0518 166.165 68.3261 165.194 68.8009 164.329C69.2757 163.464 69.9375 162.729 70.7328 162.184L304.267 20.392C305.784 19.4756 307 20.2223 307 22.0439V191.838C306.948 192.836 306.674 193.806 306.199 194.671C305.724 195.536 305.062 196.271 304.267 196.817L70.6897 338.608C69.2158 339.525 68 338.778 68 336.945Z" fill="black"/>
<path d="M187.5 289.637C186.195 290.515 185.107 291.701 184.325 293.099C183.543 294.497 183.089 296.067 183 297.681C183 300.644 185.003 301.85 187.5 300.363C188.806 299.486 189.895 298.301 190.677 296.903C191.459 295.505 191.913 293.934 192 292.319C191.966 289.356 189.964 288.15 187.5 289.637Z" fill="#455A64"/>
<path d="M61 160.179C60.1795 161.618 59.7119 163.244 59.6383 164.915V362L51 356.799V159.737C51.0631 158.064 51.5315 156.434 52.3617 155L61 160.179Z" fill="#263238"/>
<path d="M350.005 8.25342C349.637 8.0584 349.226 7.97329 348.816 8.00732C348.406 8.04135 348.012 8.19322 347.678 8.44644L101.239 158.468C100.303 159.101 99.5222 159.959 98.9606 160.971C98.399 161.984 98.0725 163.122 98.0076 164.292V339.429C97.9696 339.997 98.074 340.565 98.3103 341.078C98.5466 341.59 98.9066 342.027 99.3541 342.347C99.8711 342.642 102.585 344.322 103.426 344.788C103.716 344.945 104.041 345.017 104.367 344.997C104.692 344.977 105.007 344.865 105.278 344.674L351.75 194.596C352.687 193.963 353.468 193.106 354.029 192.093C354.591 191.081 354.917 189.943 354.981 188.772V12.7837C355.035 12.3453 354.971 11.8996 354.796 11.4979C354.621 11.0962 354.341 10.7548 353.99 10.5129C353.387 10.2972 350.587 8.66217 350.005 8.25342Z" fill="#C0C33F"/>
<path d="M105.233 160.647L351.767 10.4557C353.534 9.38686 355 10.2624 355 12.4114V188.652C354.936 189.824 354.61 190.964 354.048 191.978C353.486 192.992 352.704 193.851 351.767 194.485L105.233 344.676C103.466 345.745 102 344.005 102 341.856V166.48C102.064 165.307 102.39 164.167 102.952 163.153C103.514 162.14 104.296 161.281 105.233 160.647Z" fill="#FAFAFA"/>
<path d="M353.2 11.1821C353.793 11.1821 353.89 11.9778 353.89 12.4552V188.639C353.832 189.609 353.561 190.551 353.099 191.391C352.638 192.231 351.997 192.947 351.228 193.482L104.694 343.681C104.541 343.792 104.362 343.856 104.177 343.863C103.616 343.863 103.099 342.92 103.099 341.851V166.531C103.157 165.56 103.428 164.617 103.89 163.775C104.351 162.933 104.992 162.215 105.761 161.678L352.306 11.489C352.575 11.3091 352.883 11.2036 353.2 11.1821ZM353.2 10.0455C352.694 10.0657 352.2 10.2222 351.767 10.5001L105.233 160.7C104.296 161.334 103.514 162.192 102.952 163.206C102.39 164.219 102.064 165.359 102 166.531V341.851C102 343.556 102.894 345 104.155 345C104.536 344.996 104.909 344.882 105.233 344.67L351.767 194.425C352.704 193.791 353.486 192.933 354.048 191.919C354.61 190.906 354.936 189.766 355 188.594V12.4097C355 10.8752 354.278 10 353.233 10L353.2 10.0455Z" fill="#E0E0E0"/>
<path d="M99.2824 341.668C99.6092 341.86 101.968 343.355 103 344C102.627 343.66 102.332 343.228 102.139 342.738C101.945 342.248 101.859 341.715 101.887 341.181V177.514L98.0058 175V338.758C97.9738 339.324 98.0746 339.889 98.2983 340.399C98.5221 340.909 98.8611 341.346 99.2824 341.668Z" fill="#F0F0F0"/>
<path d="M355 12.3722C355 10.253 353.556 9.39177 351.767 10.457L105.233 160.205C104.296 160.837 103.514 161.693 102.952 162.704C102.39 163.714 102.064 164.85 102 166.019V177L355 23.3988V12.3722Z" fill="#C0C33F"/>
<g opacity="0.4">
<path d="M351.855 10.9268L105.304 160.509C104.363 161.123 103.587 161.98 103.052 163L99 160.531C99.5272 159.526 100.292 158.679 101.22 158.074L347.782 8.44679C348.114 8.19574 348.505 8.04419 348.914 8.00829C349.322 7.9724 349.731 8.0535 350.099 8.24295C350.67 8.61665 353.332 10.202 354 10.5757C353.642 10.4487 353.26 10.4143 352.887 10.4754C352.513 10.5365 352.16 10.6914 351.855 10.9268Z" fill="white"/>
</g>
<path opacity="0.15" d="M98 175.507V164.446C98.0398 163.226 98.3749 162.038 98.9722 161L103 163.493C102.42 164.512 102.096 165.675 102.06 166.87V178L98 175.507Z" fill="black"/>
<path d="M102.011 178.144L102 198L355 43.8792V24L102.011 178.144Z" fill="#EBEBEB"/>
<path d="M113.011 175.989L129 166V175.954L113 186L113.011 175.989Z" fill="#E0E0E0"/>
<path d="M133 164.036V168L141 162.953V159L133 164.036Z" fill="#E0E0E0"/>
<path d="M133 170.036V174L141 168.953V165L133 170.036Z" fill="#E0E0E0"/>
<path d="M145 156.036V160L153 154.964V151L145 156.036Z" fill="#E0E0E0"/>
<path d="M145 162.036V166L153 160.964V157L145 162.036Z" fill="#E0E0E0"/>
<path d="M158 149.036V153L166 147.964V144L158 149.036Z" fill="#E0E0E0"/>
<path d="M158 155.036V159L166 153.964V150L158 155.036Z" fill="#E0E0E0"/>
<path d="M194 127.036V131L202 125.964V122L194 127.036Z" fill="#E0E0E0"/>
<path d="M194 133.047V137L202 131.964V128L194 133.047Z" fill="#E0E0E0"/>
<path d="M206 119.047V123L214 117.964V114L206 119.047Z" fill="#E0E0E0"/>
<path d="M206 125.047V129L214 123.964V120L206 125.047Z" fill="#E0E0E0"/>
<path d="M219 112.036L219.011 116L227 110.964V107L219 112.036Z" fill="#E0E0E0"/>
<path d="M219 118.036L219.011 122L227 116.953V113L219 118.036Z" fill="#E0E0E0"/>
<path d="M170 141.225L190 129V138.775L170 151V141.225Z" fill="#E0E0E0"/>
<path d="M231.011 103.983L247 94V103.96L231 114L231.011 103.983Z" fill="#E0E0E0"/>
<path d="M251 92.0359L251.011 96L259 90.9642V87L251 92.0359Z" fill="#E0E0E0"/>
<path d="M251 98.0359L251.011 102L259 96.9641V93L251 98.0359Z" fill="#E0E0E0"/>
<path d="M264 84.0409V88L272 82.9591V79L264 84.0409Z" fill="#E0E0E0"/>
<path d="M264 91.0409V95L272 89.9591V86L264 91.0409Z" fill="#E0E0E0"/>
<path d="M276 77.0409V81L284 75.9591V72L276 77.0409Z" fill="#E0E0E0"/>
<path d="M276 83.0359V87L284 81.9526V78L276 83.0359Z" fill="#E0E0E0"/>
<path d="M312 55.0409V59L320 53.9591V50L312 55.0409Z" fill="#E0E0E0"/>
<path d="M312 61.0359V65L320 59.9526V56L312 61.0359Z" fill="#E0E0E0"/>
<path d="M325 47.0359V51L333 45.9641V42L325 47.0359Z" fill="#E0E0E0"/>
<path d="M325 53.0358V57L333 51.9641V48L325 53.0358Z" fill="#E0E0E0"/>
<path d="M337 40.0359V44L345 38.9642V35L337 40.0359Z" fill="#E0E0E0"/>
<path d="M337 46.0359V50L345 44.9641V41L337 46.0359Z" fill="#E0E0E0"/>
<path d="M288 69.2247L308 57V66.7865L288 79V69.2247Z" fill="#E0E0E0"/>
<path d="M102 177.482L98 175V194.552L101.989 197L102 177.482Z" fill="#E0E0E0"/>
<path d="M290 55.9405V56.6869C290 57.8351 290.775 58.3404 291.734 57.7547L341.266 27.2682C341.771 26.9146 342.191 26.4395 342.493 25.881C342.794 25.3225 342.967 24.6963 343 24.0531V23.3182C343 22.1699 342.225 21.6532 341.266 22.2503L291.734 52.7368C291.228 53.0872 290.808 53.5601 290.506 54.1169C290.205 54.6737 290.032 55.2985 290 55.9405Z" fill="#F5F5F5"/>
<path d="M343 24.0044V23.287C343 22.1659 342.243 21.6614 341.308 22.2443L335 26.1009V31L341.308 27.1435C341.801 26.7983 342.211 26.3343 342.505 25.7891C342.799 25.2438 342.968 24.6325 343 24.0044Z" fill="#455A64"/>
<path d="M106 199.953L351 51V60.906L126.407 197.488V326.595L106 339V199.953Z" fill="#F0F0F0"/>
<path d="M127 197.22L147 185V194.758L127 207V197.22Z" fill="#C0C33F"/>
<path d="M127 277.22L147 265V274.758L127 287V277.22Z" fill="#C0C33F"/>
<path d="M127 286.22L147 274V283.758L127 296V286.22Z" fill="#C0C33F"/>
<path opacity="0.8" d="M127 286.22L147 274V283.758L127 296V286.22Z" fill="white"/>
<path d="M249 202.22L269 190V199.758L249 212V202.22Z" fill="#C0C33F"/>
<path opacity="0.3" d="M249 202.22L269 190V199.758L249 212V202.22Z" fill="black"/>
<path d="M249 212.22L269 200V209.758L249 222V212.22Z" fill="#C0C33F"/>
<path opacity="0.4" d="M249 212.22L269 200V209.758L249 222V212.22Z" fill="black"/>
<path d="M249 222.22L269 210V219.758L249 232V222.22Z" fill="#C0C33F"/>
<path opacity="0.5" d="M249 222.22L269 210V219.758L249 232V222.22Z" fill="black"/>
<path d="M249 232.22L269 220V229.758L249 242V232.22Z" fill="#C0C33F"/>
<path opacity="0.3" d="M249 232.22L269 220V229.758L249 242V232.22Z" fill="black"/>
<path d="M229 135.389L249 123V172.589L229 185V135.389Z" fill="#C0C33F"/>
<path d="M229 195.414L249 183V252.563L229 265V195.414Z" fill="#C0C33F"/>
<path d="M147 244.22L167 232V241.758L147 254V244.22Z" fill="#C0C33F"/>
<path opacity="0.3" d="M147 244.22L167 232V241.758L147 254V244.22Z" fill="black"/>
<path d="M188 170.22L208 158V167.758L188 180V170.22Z" fill="#C0C33F"/>
<path opacity="0.6" d="M188 170.22L208 158V167.758L188 180V170.22Z" fill="white"/>
<path d="M290 167.22L310 155V164.758L290 177V167.22Z" fill="#C0C33F"/>
<path opacity="0.8" d="M290 167.22L310 155V164.758L290 177V167.22Z" fill="white"/>
<path d="M290 187.22L310 175V184.758L290 197V187.22Z" fill="#C0C33F"/>
<path d="M106.248 199.512L106 199.66V340L351.741 190.488L352 190.34V50L106.248 199.512ZM351.018 179.816L331.602 191.624V182.907L351.018 171.11V179.816ZM106.982 210.207L126.398 198.398V207.116L106.982 218.924V210.207ZM228.488 195.932V204.649L209.071 216.458V207.741L228.488 195.932ZM209.071 206.513V197.796L228.488 185.987V194.704L209.071 206.513ZM229.491 195.318L248.908 183.51V192.227L229.491 204.035V195.318ZM229.491 194.091V185.385L248.908 173.565V182.293L229.491 194.091ZM229.491 184.157V175.474L248.908 163.666V172.383L229.491 184.157ZM229.491 174.213V165.507L248.908 153.687V162.404L229.491 174.213ZM228.488 174.826L209.071 186.635V177.918L228.488 166.109V174.826ZM228.488 176.054V184.771L209.071 196.58V187.863L228.488 176.054ZM208.068 197.194L188.651 209.002V200.285L208.068 188.476V197.194ZM208.068 198.41V207.127L188.651 218.936V210.218L208.068 198.41ZM208.068 208.354V217.072L188.651 228.88V220.163L208.068 208.354ZM208.068 218.288V227.005L188.651 238.814V230.096L208.068 218.288ZM209.071 217.674L228.488 205.865V214.583L209.071 226.391V217.674ZM228.488 215.81V224.527L209.071 236.336V227.619L228.488 215.81ZM229.491 215.196L248.908 203.388V212.105L229.491 223.914V215.196ZM229.491 213.969V205.252L248.908 193.443V202.16L229.491 213.969ZM249.911 192.841L269.328 181.032V189.749L249.911 201.558V192.841ZM249.911 191.613V182.896L269.328 171.087V179.804L249.911 191.613ZM249.911 181.68V172.962L269.328 161.154V169.871L249.911 181.68ZM249.911 171.735V162.972L269.328 151.164V159.881L249.911 171.735ZM249.911 161.802V153.084L269.328 141.276V149.982L249.911 161.802ZM249.911 151.857V143.14L269.328 131.331V140.048L249.911 151.857ZM248.908 152.471L229.491 164.279V155.562L248.908 143.753V152.471ZM228.488 164.893L209.071 176.702V167.984L228.488 156.176V164.893ZM208.068 177.315L188.651 189.124V180.407L208.068 168.598V177.315ZM208.068 178.532V187.249L188.651 199.057V190.34L208.068 178.532ZM187.648 199.671L168.231 211.48V202.751L187.648 190.943V199.671ZM187.648 200.899V209.57L168.231 221.39V212.673L187.648 200.899ZM187.648 210.832V219.549L168.231 231.358V222.641L187.648 210.832ZM187.648 220.777V229.483L168.231 241.303V232.585L187.648 220.777ZM187.648 230.71V239.427L168.231 251.236V242.53L187.648 230.71ZM187.648 240.655V249.349L168.231 261.169V252.452L187.648 240.655ZM188.651 240.041L208.068 228.232V236.95L188.651 248.758V240.041ZM208.068 238.166V246.883L188.651 258.692V249.975L208.068 238.166ZM209.071 237.552L228.488 225.743V234.461L209.071 246.269V237.552ZM229.491 225.13L248.908 213.321V222.072L229.491 233.881V225.13ZM249.911 212.719L269.328 200.91V209.627L249.911 221.436V212.719ZM249.911 211.491V202.751L269.328 190.943V199.66L249.911 211.491ZM270.331 190.352L289.748 178.543V187.26L270.331 199.069V190.352ZM270.331 189.135V180.418L289.748 168.61V177.327L270.331 189.135ZM270.331 179.191V170.473L289.748 158.665V167.382L270.331 179.191ZM270.331 169.257V160.54L289.748 148.731V157.449L270.331 169.257ZM270.331 159.313V150.595L289.748 138.787V147.504L270.331 159.313ZM270.331 149.379V140.662L289.748 128.853V137.571L270.331 149.379ZM270.331 139.434V130.717L289.748 118.909V127.626L270.331 139.434ZM270.331 129.501V120.784L289.748 108.975V117.692L270.331 129.501ZM269.328 130.103L249.911 141.923V133.206L269.328 121.398V130.103ZM248.908 142.514L229.491 154.323V145.617L248.908 133.797V142.514ZM228.488 154.937L209.071 166.746V158.028L228.488 146.22V154.937ZM208.068 167.359L188.651 179.168V170.451L208.068 158.642V167.359ZM187.648 179.793L168.231 191.602V182.884L187.648 171.076V179.793ZM187.648 181.021V189.726L168.231 201.546V192.829L187.648 181.021ZM167.228 202.149L147.811 213.958V205.252L167.228 193.432V202.149ZM167.228 203.376V212.094L147.811 223.902V215.185L167.228 203.376ZM167.228 213.31V222.072L147.811 233.881V225.164L167.228 213.31ZM167.228 223.254V231.972L147.811 243.78V235.063L167.228 223.254ZM167.228 233.188V241.905L147.811 253.714V245.008L167.228 233.188ZM167.228 243.133V251.85L147.811 263.658V254.941L167.228 243.133ZM167.228 253.066V261.783L147.811 273.592V264.886L167.228 253.066ZM167.228 263.011V271.728L147.811 283.537V274.819L167.228 263.011ZM168.231 262.397L187.648 250.588V259.306L168.231 271.114V262.397ZM187.648 260.533V269.25L168.231 281.059V272.342L187.648 260.533ZM188.651 259.919L208.068 248.111V256.828L188.651 268.637V259.919ZM209.071 247.497L228.488 235.688V244.405L209.071 256.214V247.497ZM229.491 235.074L248.908 223.266V231.983L229.491 243.792V235.074ZM249.911 222.652L269.328 210.843V219.561L249.911 231.369V222.652ZM270.331 210.23L289.748 198.421V207.138L270.331 218.947V210.23ZM270.331 209.014V200.296L289.748 188.488V197.205L270.331 209.014ZM290.708 187.874L310.124 176.065V184.782L290.708 196.591V187.874ZM290.708 186.646V177.929L310.124 166.12V174.838L290.708 186.646ZM290.708 176.713V167.996L310.124 156.153V164.87L290.708 176.713ZM290.708 166.768V158.051L310.124 146.242V155.016L290.708 166.768ZM290.708 156.835V148.118L310.124 136.309V145.026L290.708 156.835ZM290.708 146.89V138.173L310.124 126.364V135.082L290.708 146.89ZM290.708 136.957V128.24L310.124 116.431V125.148L290.708 136.957ZM290.708 127.012V118.295L310.124 106.486V115.237L290.708 127.012ZM290.708 117.079V108.418L310.124 96.6096V105.327L290.708 117.079ZM290.708 107.134V98.4167L310.124 86.608V95.3253L290.708 107.134ZM289.704 107.748L270.288 119.556V110.839L289.704 99.0304V107.748ZM269.284 120.17L249.868 131.979V123.261L269.284 111.453V120.17ZM248.864 132.592L229.448 144.401V135.695L248.864 123.887V132.592ZM228.488 145.015L209.071 156.824V148.106L228.488 136.298V145.015ZM208.068 157.437L188.651 169.246V160.529L208.068 148.72V157.437ZM187.648 169.848L168.231 181.668V172.951L187.648 161.142V169.848ZM167.228 182.293L147.811 194.102V185.396L167.228 173.576V182.293ZM167.228 183.521V192.238L147.811 204.047V195.33L167.228 183.521ZM146.808 204.661L127.391 216.469V207.752L146.808 195.943V204.661ZM146.808 205.877V214.594L127.391 226.403V217.685L146.808 205.877ZM146.808 215.821V224.539L127.391 236.347V227.63L146.808 215.821ZM146.808 225.755V234.472L127.391 246.281V237.563L146.808 225.755ZM146.808 235.7V244.417L127.391 256.169V247.451L146.808 235.7ZM146.808 245.633V254.35L127.391 266.159V257.419L146.808 245.633ZM146.808 255.578V264.295L127.391 276.104V267.386L146.808 255.578ZM146.808 265.511V274.228L127.391 286.037V277.32L146.808 265.511ZM146.808 275.456V284.173L127.391 295.948V287.23L146.808 275.456ZM146.808 285.389V294.106L127.391 305.915V297.198L146.808 285.389ZM147.811 284.787L167.228 272.967V281.684L147.811 293.493V284.787ZM167.228 282.911V291.629L147.811 303.437V294.697L167.228 282.911ZM168.231 282.298L187.648 270.489V279.206L168.231 291.015V282.298ZM188.651 269.807L208.068 257.998V266.716L188.651 278.524V269.807ZM209.071 257.385L228.488 245.576V254.293L209.071 266.102V257.385ZM229.491 244.974L248.908 233.154V241.871L229.491 253.68V244.974ZM249.911 232.551L269.328 220.743V229.46L249.911 241.269V232.551ZM270.331 220.129L289.748 208.32V217.038L270.331 228.846V220.129ZM290.708 207.752L310.124 195.932V204.649L290.708 216.458V207.752ZM290.708 206.525V197.807L310.124 185.999V194.716L290.708 206.525ZM311.203 185.396L330.62 173.576V182.293L311.203 194.102V185.396ZM311.203 184.169V175.474L330.62 163.666V172.383L311.203 184.169ZM311.203 174.224V165.518L330.62 153.698V162.415L311.203 174.224ZM311.203 164.291V155.573L330.62 143.765V152.482L311.203 164.291ZM311.203 154.346V145.64L330.62 133.82V142.514L311.203 154.346ZM311.203 144.413V135.695L330.62 123.887V132.604L311.203 144.413ZM311.203 134.468V125.762L330.62 113.942V122.659L311.203 134.468ZM311.203 124.534V115.817L330.62 104.008V112.726L311.203 124.534ZM311.203 114.59V105.884L330.62 94.0637V102.736L311.203 114.59ZM311.203 104.656V95.9163L330.62 84.1076V92.8249L311.203 104.656ZM311.203 94.7116V86.0056L330.62 74.1856V82.9029L311.203 94.7116ZM311.203 84.7782V76.0609L330.62 64.2522V72.9695L311.203 84.7782ZM310.189 85.3919L290.772 97.2006V88.4833L310.189 76.6746V85.3919ZM289.78 97.8143L270.363 109.623V100.906L289.78 89.097V97.8143ZM269.36 110.225L249.943 122.045V113.328L269.36 101.519V110.225ZM248.94 122.648L229.523 134.456V125.751L248.94 113.942V122.648ZM228.52 135.07L209.103 146.879V138.173L228.52 126.364V135.07ZM208.1 147.493L188.683 159.301V150.595L208.1 138.787V147.493ZM187.68 159.915L168.263 171.724V162.972L187.68 151.164V159.915ZM167.26 172.337L147.843 184.146V175.474L167.26 163.654V172.337ZM146.808 184.76L127.391 196.568V187.851L146.808 176.042V184.76ZM146.808 185.976V194.693L127.391 206.502V197.785L146.808 185.976ZM106.982 220.152L126.398 208.343V217.06L106.982 228.869V220.152ZM106.982 230.085L126.398 218.276V226.994L106.982 238.802V230.085ZM106.982 240.03L126.398 228.221V236.938L106.982 248.747V240.03ZM106.982 249.963L126.398 238.154V246.872L106.982 258.68V249.963ZM106.982 259.908L126.398 248.099V256.816L106.982 268.625V259.908ZM106.982 269.841L126.398 258.033V266.75L106.982 278.559V269.841ZM106.982 279.786L126.398 267.977V276.695L106.982 288.503V279.786ZM106.982 289.719L126.398 277.911V286.628L106.982 298.437V289.719ZM106.982 299.664L126.398 287.855V296.573L106.982 308.381V299.664ZM106.982 309.598L126.398 297.789V306.506L106.982 318.315V309.598ZM106.982 319.542L126.398 307.734V316.405L106.982 328.214V319.542ZM127.391 307.12L146.808 295.311V304.028L127.391 315.837V307.12ZM146.808 305.245V313.928L127.391 325.748V317.053L146.808 305.245ZM147.811 304.631L167.228 292.822V301.517L147.811 313.325V304.631ZM168.231 292.22L187.648 280.411V289.128L168.231 300.937V292.22ZM188.651 279.797L208.068 267.989V276.626L188.651 288.435V279.797ZM209.071 267.375L228.488 255.566V264.249L209.071 276.058V267.375ZM229.491 254.953L248.908 243.144V251.827L229.491 263.636V254.953ZM249.911 242.53L269.328 230.722V239.405L249.911 251.213V242.53ZM270.331 230.108L289.748 218.299V226.982L270.331 238.791V230.108ZM290.708 217.685L310.124 205.877V214.56L290.708 226.369V217.685ZM311.203 205.274L330.62 193.454V202.137L311.203 213.946V205.274ZM311.203 204.047V195.33L330.62 183.521V192.238L311.203 204.047ZM351.029 169.882L331.612 181.691V172.974L351.029 161.165V169.882ZM351.029 159.938L331.612 171.746V163.029L351.029 151.232V159.938ZM351.029 150.004L331.591 161.836V153.118L351.008 141.31L351.029 150.004ZM351.029 140.06L331.612 151.868V143.151L351.029 131.342V140.06ZM351.029 130.126L331.612 141.935V133.218L351.029 121.409V130.126ZM351.029 120.181L331.612 131.99V123.273L351.029 111.464V120.181ZM351.029 110.248L331.591 122.057V113.339L351.008 101.531L351.029 110.248ZM351.029 100.303L331.612 112.112V103.395L351.029 91.5861V100.303ZM351.029 90.37L331.612 102.179V93.4614L351.029 81.6527V90.37ZM351.029 80.4252L331.612 92.2339V83.5166L351.029 71.7079V80.4252ZM351.029 70.4918L331.591 82.2778V73.5832L351.008 61.7746L351.029 70.4918ZM351.029 60.5471L331.612 72.3558V63.6499L351.029 51.8412V60.5471ZM126.388 188.465V197.182L106.971 208.979V200.274L126.388 188.465ZM106.971 329.476L126.388 317.667V326.35L106.971 338.159V329.476ZM331.591 201.535V192.852L351.008 181.043V189.726L331.591 201.535Z" fill="#E0E0E0"/>
<path d="M270 110.494L352 61V110.528L270 160V110.494Z" fill="#FAFAFA"/>
<path d="M269 161V110.16L269.27 110.001L352 60V110.851L269 161ZM270.081 110.817V159.04L350.919 110.194V61.9375L270.081 110.817Z" fill="#E0E0E0"/>
<path d="M273.399 147.99H273.27C273.169 147.95 273.086 147.869 273.04 147.766C272.994 147.662 272.987 147.544 273.022 147.436L284.054 115.753C284.076 115.696 284.109 115.644 284.151 115.602C284.193 115.559 284.243 115.527 284.298 115.507C284.353 115.486 284.412 115.479 284.47 115.484C284.528 115.489 284.585 115.508 284.636 115.538L296.561 123.097L308.595 110.22C308.668 110.157 308.759 110.123 308.853 110.123C308.948 110.123 309.039 110.157 309.112 110.22L320.962 118.401L332.996 87.2608C333.018 87.2068 333.05 87.1582 333.09 87.1178C333.131 87.0775 333.179 87.0463 333.232 87.0261C333.284 87.006 333.34 86.9973 333.396 87.0007C333.451 87.0041 333.506 87.0194 333.556 87.0458L345.783 93.6313C345.83 93.6566 345.871 93.6913 345.905 93.7334C345.939 93.7755 345.965 93.8242 345.981 93.8767C345.997 93.9293 346.003 93.9846 345.999 94.0396C345.994 94.0945 345.98 94.1481 345.956 94.1971C345.932 94.2462 345.899 94.2897 345.858 94.3254C345.818 94.361 345.772 94.388 345.722 94.4048C345.672 94.4216 345.619 94.4279 345.567 94.4234C345.515 94.4188 345.464 94.4034 345.417 94.3782L333.567 88.0076L321.501 119.204C321.478 119.262 321.443 119.313 321.398 119.355C321.353 119.396 321.3 119.426 321.242 119.442C321.191 119.47 321.133 119.484 321.075 119.484C321.017 119.484 320.96 119.47 320.908 119.442L308.95 111.17L296.928 124.036C296.864 124.103 296.781 124.146 296.691 124.158C296.601 124.171 296.51 124.151 296.432 124.104L284.657 116.703L273.798 147.855C273.749 147.912 273.686 147.955 273.616 147.978C273.546 148.002 273.471 148.006 273.399 147.99Z" fill="#455A64"/>
<path d="M285 114.165C284.706 114.386 284.462 114.685 284.288 115.036C284.114 115.388 284.015 115.782 284 116.186C284 116.924 284.447 117.196 285 116.853C285.294 116.631 285.537 116.332 285.711 115.981C285.885 115.63 285.984 115.236 286 114.832C286 114.094 285.553 113.781 285 114.165Z" fill="#C0C33F"/>
<path d="M297 122.155C296.707 122.378 296.464 122.679 296.291 123.031C296.117 123.383 296.017 123.778 296 124.183C296 124.923 296.447 125.197 297 124.852C297.292 124.629 297.535 124.328 297.709 123.976C297.882 123.624 297.982 123.229 298 122.824C298.017 122.094 297.57 121.79 297 122.155Z" fill="#C0C33F"/>
<path d="M309 109.155C308.707 109.378 308.464 109.679 308.291 110.031C308.117 110.383 308.017 110.778 308 111.183C308 111.923 308.447 112.197 309 111.852C309.294 111.63 309.537 111.33 309.711 110.977C309.885 110.625 309.984 110.229 310 109.824C310 109.094 309.553 108.79 309 109.155Z" fill="#C0C33F"/>
<path d="M321 117.132C320.706 117.356 320.462 117.658 320.288 118.014C320.114 118.369 320.015 118.768 320 119.177C320 119.923 320.447 120.199 321 119.851C321.294 119.628 321.538 119.325 321.712 118.97C321.886 118.614 321.985 118.216 322 117.807C322 117.132 321.553 116.795 321 117.132Z" fill="#C0C33F"/>
<path d="M334 86.1641C333.706 86.3853 333.462 86.6841 333.288 87.0357C333.114 87.3872 333.015 87.7815 333 88.1857C333 88.9236 333.447 89.1965 334 88.8529C334.294 88.6311 334.537 88.3321 334.711 87.9807C334.885 87.6293 334.984 87.2354 335 86.8313C335 86.0732 334.553 85.7901 334 86.1641Z" fill="#C0C33F"/>
<path d="M346 92.1606C345.706 92.3821 345.462 92.6812 345.288 93.0332C345.114 93.3852 345.015 93.78 345 94.1847C345 94.9235 345.447 95.1968 346 94.8527C346.294 94.6312 346.538 94.3321 346.712 93.9801C346.886 93.6281 346.985 93.2334 347 92.8286C347 92.0898 346.553 91.7862 346 92.1606Z" fill="#C0C33F"/>
<path d="M385.5 244L364 257L385.5 270L407 257L385.5 244Z" fill="#455A64"/>
<path d="M407 257V309.738L385 323V270.296L407 257Z" fill="#37474F"/>
<path d="M386 270.296V323L364 309.738V257L386 270.296Z" fill="#263238"/>
<path d="M356.5 284L335 297L356.5 310L378 297L356.5 284Z" fill="#C0C33F"/>
<path opacity="0.3" d="M356.5 284L335 297L356.5 310L378 297L356.5 284Z" fill="white"/>
<path d="M379 297V326.781L357 340V310.254L379 297Z" fill="#C0C33F"/>
<path d="M357 310.246V340L335 326.777V297L357 310.246Z" fill="#C0C33F"/>
<path opacity="0.1" d="M357 310.246V340L335 326.777V297L357 310.246Z" fill="black"/>
<path d="M328.5 289L307 302L328.5 315L350 302L328.5 289Z" fill="#C0C33F"/>
<path opacity="0.88" d="M328.5 289L307 302L328.5 315L350 302L328.5 289Z" fill="white"/>
<path d="M350 302V343.866L328 357V315.157L350 302Z" fill="#C0C33F"/>
<path opacity="0.75" d="M350 302V343.866L328 357V315.157L350 302Z" fill="white"/>
<path d="M329 315.157V357L307 343.866V302L329 315.157Z" fill="#C0C33F"/>
<path opacity="0.6" d="M329 315.157V357L307 343.866V302L329 315.157Z" fill="white"/>
<path d="M299.5 334L278 347L299.5 360L321 347L299.5 334Z" fill="#C0C33F"/>
<path opacity="0.3" d="M299.5 334L278 347L299.5 360L321 347L299.5 334Z" fill="black"/>
<path d="M322 347V361.832L300 375V360.202L322 347Z" fill="#C0C33F"/>
<path opacity="0.4" d="M322 347V361.832L300 375V360.202L322 347Z" fill="black"/>
<path d="M300 360.202V375L278 361.832V347L300 360.202Z" fill="#C0C33F"/>
<path opacity="0.55" d="M300 360.202V375L278 361.832V347L300 360.202Z" fill="black"/>
<path d="M181 426.305V435L173 411.672V403L181 426.305Z" fill="#263238"/>
<path d="M181 426.303V435L215 422.697V414L181 426.303Z" fill="#37474F"/>
<path d="M173 402.366L181.204 426L215 413.553C205.719 404.963 189.582 400.668 173 402.366Z" fill="#455A64"/>
<path d="M138.004 427C137.999 427.087 137.999 427.175 138.004 427.263V427Z" fill="#C0C33F"/>
<path d="M178 437.133L173.049 462C152.605 459.891 137.828 448.982 138.002 436.503V428C138.002 440.376 152.735 451.182 173.06 453.268L176.491 436.182L178 437.133Z" fill="#C0C33F"/>
<path opacity="0.4" d="M178 437.133L173.049 462C152.605 459.891 137.828 448.982 138.002 436.503V428C138.002 440.376 152.735 451.182 173.06 453.268L176.491 436.182L178 437.133Z" fill="black"/>
<path d="M177 453.139V461.891C185.38 462.393 193.772 461.157 201.71 458.25C211.284 454.712 218.043 449.061 220.749 442.434C221.543 440.506 221.968 438.429 222 436.324C222 435.486 222 427.273 222 427.273C222 427.273 219.682 427.078 216.965 424L210.691 426.297L181.981 436.91L177 453.139Z" fill="#C0C33F"/>
<path opacity="0.6" d="M177 453.139V461.891C185.38 462.393 193.772 461.157 201.71 458.25C211.284 454.712 218.043 449.061 220.749 442.434C221.543 440.506 221.968 438.429 222 436.324C222 435.486 222 427.273 222 427.273C222 427.273 219.682 427.078 216.965 424L210.691 426.297L181.981 436.91L177 453.139Z" fill="white"/>
<path d="M152 417.717L177 433V424.283L152 409V417.717Z" fill="#C0C33F"/>
<path opacity="0.1" d="M152 417.717L177 433V424.283L152 409V417.717Z" fill="black"/>
<path d="M138.315 423.97C135.573 437.431 151.009 449.762 173.003 452L178 427.474L148.971 410C142.857 413.967 139.399 418.545 138.315 423.97Z" fill="#C0C33F"/>
<path opacity="0.3" d="M138.315 423.97C135.573 437.431 151.009 449.762 173.003 452L178 427.474L148.971 410C142.857 413.967 139.399 418.545 138.315 423.97Z" fill="black"/>
<path d="M177.14 453.159L177 453.884C185.376 454.403 193.767 453.179 201.707 450.28C211.279 446.733 218.038 441.068 220.743 434.424C223.287 428.125 221.94 421.608 216.96 416L210.686 418.303L181.98 428.943L177.14 453.159Z" fill="#C0C33F"/>
<path opacity="0.75" d="M177.14 453.159L177 453.884C185.376 454.403 193.767 453.179 201.707 450.28C211.279 446.733 218.038 441.068 220.743 434.424C223.287 428.125 221.94 421.608 216.96 416L210.686 418.303L181.98 428.943L177.14 453.159Z" fill="white"/>
<path d="M152 408.818L177 424L169.653 403C163.482 403.796 157.5 405.767 152 408.818Z" fill="#C0C33F"/>
<path d="M178 436.576V428L173 452.424V461L178 436.576Z" fill="#C0C33F"/>
<path opacity="0.55" d="M178 436.576V428L173 452.424V461L178 436.576Z" fill="black"/>
<path d="M209.5 389L204 392.5L209.5 396L215 392.5L209.5 389Z" fill="#C0C33F"/>
<path opacity="0.3" d="M209.5 389L204 392.5L209.5 396L215 392.5L209.5 389Z" fill="black"/>
<path d="M215 393V396.506L210 400V396.494L215 393Z" fill="#C0C33F"/>
<path opacity="0.4" d="M215 393V396.506L210 400V396.494L215 393Z" fill="black"/>
<path d="M209 396.494V400L204 396.506V393L209 396.494Z" fill="#C0C33F"/>
<path opacity="0.55" d="M209 396.494V400L204 396.506V393L209 396.494Z" fill="black"/>
<path d="M217.942 386.92L238.01 374.576C238.655 374.212 239.372 374.015 240.102 374.001C240.831 373.987 241.554 374.157 242.211 374.496C243.285 375.183 243.285 376.34 242.071 377.084L222.003 389.428C221.357 389.79 220.641 389.985 219.911 389.999C219.182 390.013 218.459 389.845 217.802 389.508C216.685 388.821 216.738 387.664 217.942 386.92Z" fill="#E0E0E0"/>
<path d="M222.5 397L217 400.5L222.5 404L228 400.5L222.5 397Z" fill="#C0C33F"/>
<path opacity="0.88" d="M222.5 397L217 400.5L222.5 404L228 400.5L222.5 397Z" fill="white"/>
<path d="M227 400V403.506L222 407V403.506L227 400Z" fill="#C0C33F"/>
<path opacity="0.75" d="M227 400V403.506L222 407V403.506L227 400Z" fill="white"/>
<path d="M222 403.506V407L217 403.506V400L222 403.506Z" fill="#C0C33F"/>
<path opacity="0.6" d="M222 403.506V407L217 403.506V400L222 403.506Z" fill="white"/>
<path d="M229.937 393.912L249.989 381.582C250.633 381.216 251.349 381.017 252.079 381.001C252.809 380.985 253.532 381.153 254.189 381.49C255.317 382.188 255.263 383.343 254.06 384.075L233.997 396.428C233.351 396.79 232.635 396.985 231.906 396.999C231.176 397.013 230.454 396.845 229.797 396.508C228.712 395.811 228.712 394.655 229.937 393.912Z" fill="#E0E0E0"/>
<path d="M234.495 404L229 407.5L234.505 411L240 407.5L234.495 404Z" fill="#C0C33F"/>
<path opacity="0.3" d="M234.495 404L229 407.5L234.505 411L240 407.5L234.495 404Z" fill="white"/>
<path d="M239 408V411.506L234 415V411.506L239 408Z" fill="#C0C33F"/>
<path d="M234 411.506V415L229 411.506V408L234 411.506Z" fill="#C0C33F"/>
<path opacity="0.1" d="M234 411.506V415L229 411.506V408L234 411.506Z" fill="black"/>
<path d="M242.936 401.923L262.991 389.572C263.637 389.21 264.353 389.015 265.081 389.001C265.81 388.987 266.532 389.155 267.189 389.492C268.317 390.19 268.263 391.346 267.061 392.079L247.005 404.418C246.361 404.784 245.645 404.983 244.916 404.999C244.187 405.015 243.464 404.847 242.807 404.509C241.679 403.811 241.744 402.655 242.936 401.923Z" fill="#E0E0E0"/>
<path d="M246.5 412L241 415.5L246.5 419L252 415.5L246.5 412Z" fill="#455A64"/>
<path d="M251 415V418.506L246 422V418.494L251 415Z" fill="#37474F"/>
<path d="M246 418.494V422L241 418.506V415L246 418.494Z" fill="#263238"/>
<path d="M254.936 408.927L274.992 396.572C275.638 396.21 276.354 396.015 277.083 396.001C277.812 395.987 278.533 396.155 279.191 396.492C280.318 397.179 280.264 398.336 279.051 399.08L259.005 411.424C258.36 411.788 257.644 411.985 256.915 411.999C256.185 412.013 255.463 411.843 254.807 411.504C253.679 410.817 253.744 409.66 254.936 408.927Z" fill="#E0E0E0"/>
<path d="M417 233C424.573 233 428.169 235.275 430.901 242.76C433.633 250.246 440.857 267.616 440.999 272.758C441.152 278.093 424.606 294.27 425.24 293.997C425.415 293.906 420.202 284.191 420.202 284.191L429.491 272.349L424.169 256.275L417 233Z" fill="#FFA8A7"/>
<path d="M426.223 408.927C426.689 409.387 426.776 409.824 426.754 411.484C426.733 413.144 427.417 414.994 426.592 416.542C425.984 417.663 422.836 418.493 421.241 417.663C419.85 416.723 418.606 415.569 417.55 414.243C416.558 413.073 415.469 411.996 414.294 411.024C412.938 409.981 411.364 409.286 409.953 408.333C408.847 407.593 407.918 406.602 407.237 405.436C406.556 404.271 406.141 402.96 406.024 401.604C405.932 400.719 406.107 399.826 406.523 399.047C406.861 398.629 407.305 398.317 407.806 398.146C408.307 397.976 408.844 397.954 409.356 398.083C410.886 398.34 416.074 401.335 417.268 402.187C418.831 403.241 425.745 408.456 426.223 408.927Z" fill="#263238"/>
<path d="M418.985 402.393C418.929 403.628 413.956 400.74 411.921 401.019H411.865C409.962 401.974 411.542 404.757 413.3 406.178C415.058 407.598 420.821 412 420.821 412L422 404.862L418.985 402.393Z" fill="#FFA8A7"/>
<path d="M398.096 422C398.997 422 399.398 425.064 399.572 427.419C399.691 429.244 400.364 432.229 399.735 433.57C399.105 434.911 396.75 435.744 393.093 435.666C390.716 435.666 387.004 437.231 384.464 438.662C381.908 439.94 379.019 440.316 376.238 439.732C372.982 439.293 369.639 437.288 369.129 435.891C368.619 434.494 369.313 433.818 377.019 430.528C377.095 430.528 385.159 426.844 388.958 422.642L398.096 422Z" fill="#263238"/>
<path d="M376.853 430.105C375.767 430.566 374.866 430.98 374.051 431.348C373.845 432.12 374.127 433.352 377.537 433.95C382.729 434.871 398 422.679 398 422.679C398 422.679 395.828 423.324 395.404 422H388.768C384.967 426.34 376.853 430.071 376.853 430.105Z" fill="#FFA8A7"/>
<path d="M429.992 369.828C430.072 364.54 429.569 359.26 428.494 354.093C428.494 354.093 429.405 333.832 429.503 321.104C429.709 295.92 429.253 292.222 423.923 281.399C423.923 281.399 392.799 277.599 391.485 293.447C389.857 313.186 387.957 346.209 388.001 355.613C388.001 362.613 388.804 370.202 389.173 386.072C389.412 396.282 390.432 410.599 389.043 422.624C390.802 425.709 395.556 425.652 398.27 423.247C399.052 411.472 404.654 388.92 405.522 381.058C405.993 375.379 405.767 369.661 404.849 364.042C404.849 364.042 408.974 330.418 409.702 325.301C410.758 330.712 411.361 336.208 411.504 341.728C411.504 343.997 412.242 351.45 413.469 364.042C414.218 371.711 419.407 401.682 420.536 411.313C423.142 413.945 426.507 412.13 426.659 410.996C427.527 399.243 429.992 377.167 429.992 369.828Z" fill="#FFA8A7"/>
<path opacity="0.15" d="M409 325.065L411.746 308.723C416.43 307.966 420.741 305.601 424 302C424 302 422.35 308.53 414.232 310.756L410.975 325.52L410.433 339L409 325.065Z" fill="black"/>
<path d="M402 227.377L403.317 242L416 241.226L415.026 225L402 227.377Z" fill="#FFA8A7"/>
<path d="M426.941 285.232C425.525 281.301 423.718 277.538 421.55 274.006C426.833 256.13 428.526 250.115 427.501 242.469C426.844 237.609 423.189 232.749 418.704 233.01H415.319C415.125 236.408 406.166 236.556 402.77 234.222L399.633 234.313C397.423 235.14 389.93 246.773 389.068 254.42C388.388 260.662 393.056 266.076 393.056 266.076C393.073 268.727 392.926 271.376 392.614 274.006C392.614 274.006 392.614 289.129 392.614 296.662C392.614 296.662 394.35 302.462 412.484 300.649C428.655 299.041 429 293.252 429 293.252C428.614 290.503 427.922 287.812 426.941 285.232Z" fill="#C0C33F"/>
<g opacity="0.3">
<path d="M425.941 285.232C424.525 281.301 422.718 277.538 420.55 274.006C425.833 256.13 427.526 250.115 426.501 242.469C425.844 237.609 422.189 232.749 417.704 233.01H414.319C414.125 236.408 405.166 236.556 401.77 234.222L398.633 234.313C396.423 235.14 388.93 246.773 388.068 254.42C387.388 260.662 392.056 266.076 392.056 266.076C392.073 268.727 391.926 271.376 391.614 274.006C391.614 274.006 391.614 289.129 391.614 296.662C391.614 296.662 393.35 302.462 411.484 300.649C427.655 299.041 428 293.252 428 293.252C427.614 290.503 426.922 287.812 425.941 285.232Z" fill="black"/>
</g>
<path d="M404 193.103C402.118 192.85 400.203 193.064 398.419 193.728C396.634 194.391 395.031 195.485 393.744 196.916C387.219 204.452 394.379 210 394.379 210L404 193.103Z" fill="#263238"/>
<path d="M392 211C392 211 389.733 215.524 390.026 216.008C390.552 216.472 391.136 216.808 391.751 217L392 211Z" fill="#F28F8F"/>
<path d="M400.8 197.115C398.148 198.551 393.563 201.197 392.361 211.464C391.126 222.013 393.348 225.676 394.712 227.067C395.625 228.006 400.381 228.356 402.862 227.553C405.975 226.547 412.708 223.031 415.864 217.626C419.59 211.237 420.385 202.701 416.111 199.343C410.098 194.65 403.044 195.905 400.8 197.115Z" fill="#FFA8A7"/>
<path d="M399.339 209.475C393.732 206.513 395.164 198.786 395.164 198.786C395.164 198.786 403.167 186.904 417.939 194.585C423.047 197.243 426.116 203.28 425.997 210.353C425.997 214.768 424.308 219.002 421.302 222.124C418.296 225.246 414.219 227 409.967 227C407.488 227 405.11 225.977 403.357 224.156C401.604 222.336 400.619 219.866 400.619 217.291V216.649L401.096 216.807C401.859 216.994 402.654 216.982 403.411 216.772C404.168 216.562 404.863 216.16 405.434 215.602C407.896 213.349 408.189 209.081 405.076 207.999C401.964 206.918 400.348 210.703 400.348 210.703L399.144 214.081C398.853 213.972 398.586 213.804 398.358 213.588C398.13 213.371 397.945 213.11 397.814 212.819C397.683 212.528 397.609 212.214 397.595 211.893C397.581 211.572 397.629 211.252 397.734 210.95C397.865 210.587 398.08 210.263 398.36 210.005C398.64 209.748 398.976 209.566 399.339 209.475Z" fill="#263238"/>
<path d="M365.346 212L339 226.032L351.391 264L376 249.911L365.346 212Z" fill="#C0C33F"/>
<path d="M364.367 216L342 227.66L353.108 260L374 248.295L364.367 216Z" fill="#F5F5F5"/>
<path opacity="0.15" d="M360 219.38L359.582 218.301C359.351 217.697 357.468 218.031 355.377 219.045L351.381 220.976C349.3 221.99 347.792 223.306 348.023 223.921L348.442 225L360 219.38Z" fill="black"/>
<path d="M359.739 214.444C359.597 214.054 358.791 214.109 357.93 214.552L356.383 215.343C356.383 215.343 355.478 212.961 351.915 214.542C348.352 216.122 349.115 218.872 349.115 218.872L347.47 219.738C346.565 220.214 345.912 220.917 346.01 221.296L346.195 222L360 215.148L359.739 214.444Z" fill="#37474F"/>
<path d="M358.796 216.574C357.462 217.244 356.941 217.567 357.303 218.607C357.665 219.647 358.106 220.64 358.106 220.64L351.772 224C351.772 224 351.274 222.493 351.048 221.919C350.821 221.345 350.38 221.046 349.373 221.584L349 221.154L359 216L358.796 216.574Z" fill="#263238"/>
<path d="M360 219.384L359.592 218.304C359.361 217.699 357.477 218.023 355.384 219.039L351.384 220.982C349.291 221.998 347.792 223.315 348.024 223.92L348.431 225L360 219.384Z" fill="#37474F"/>
<path d="M399.473 234.006C395.298 233.937 392.774 234.325 387.079 243.275C381.384 252.225 370.813 268.663 369.583 270.844C367.858 273.812 367.426 278.367 368.871 281.118C370.177 283.709 372.485 284.611 379.054 277.225C383.908 271.757 394.155 257.236 394.155 257.236C394.155 257.236 402.083 241.586 399.473 234.006Z" fill="#FFA8A7"/>
<path d="M371 282.942C367.562 284.073 354.939 268.313 351.436 263.576C348.618 259.63 345.304 256.1 341.584 253.084C336.723 249.184 337.531 243.339 339.763 238.014C340.539 236.16 342.996 237.415 342.996 237.415L343.848 239.981L345.314 244.424C346.338 245.453 346.931 245.792 346.995 245.487C347.135 244.922 346.284 242.536 346.338 240.061C346.413 237.087 348.375 239.077 348.946 240.128C349.732 241.729 350.406 243.388 350.962 245.092C351.91 247.771 351.458 250.45 352.643 252.293C353.829 254.136 370.968 269.059 370.968 269.059L371 282.942Z" fill="#FFA8A7"/>
<path d="M420.92 274C420.92 274 408.868 281.491 391.989 274C390.483 283.319 389.461 292.717 388.924 302.152C388.322 314.169 387 339.956 387 339.956C387 339.956 391.978 346.078 409.76 344.833C426.855 343.701 429.865 338.949 429.865 338.949C429.865 338.949 429.865 315.787 429.994 305.66C430.113 292.715 428.392 285.677 420.92 274Z" fill="#C0C33F"/>
<path opacity="0.5" d="M420.92 274C420.92 274 408.868 281.491 391.989 274C390.483 283.319 389.461 292.717 388.924 302.152C388.322 314.169 387 339.956 387 339.956C387 339.956 391.978 346.078 409.76 344.833C426.855 343.701 429.865 338.949 429.865 338.949C429.865 338.949 429.865 315.787 429.994 305.66C430.113 292.715 428.392 285.677 420.92 274Z" fill="black"/>
<path d="M426.477 205.584L429.359 202.84C428.972 202.405 428.455 202.12 427.893 202.03C427.331 201.941 426.757 202.052 426.263 202.346C425.769 202.64 425.385 203.099 425.173 203.65C424.961 204.2 424.934 204.81 425.096 205.378C424.745 205.378 424.384 205.321 424 205.321V229.423C424 232.749 425.263 235.939 427.511 238.296C429.76 240.653 432.812 241.985 436 242V217.829C435.989 214.961 435.038 212.183 433.306 209.956C431.574 207.729 429.164 206.186 426.477 205.584Z" fill="#263238"/>
</svg>
