<svg width="370" height="309" viewBox="0 0 370 309" fill="none" xmlns="http://www.w3.org/2000/svg">
<path d="M370 271.92H0V272.127H370V271.92Z" fill="#EBEBEB"/>
<path d="M332.9 285.404H308.834V285.611H332.9V285.404Z" fill="#EBEBEB"/>
<path d="M244.661 287.651H238.645V287.858H244.661V287.651Z" fill="#EBEBEB"/>
<path d="M307.832 277.538H293.794V277.746H307.832V277.538Z" fill="#EBEBEB"/>
<path d="M71.1922 278.662H39.1055V278.869H71.1922V278.662Z" fill="#EBEBEB"/>
<path d="M82.222 278.662H77.2085V278.869H82.222V278.662Z" fill="#EBEBEB"/>
<path d="M166.45 282.033H97.2627V282.24H166.45V282.033Z" fill="#EBEBEB"/>
<path d="M175.257 234.84H32.2959C31.1759 234.838 30.1025 234.337 29.3113 233.448C28.5201 232.559 28.0757 231.354 28.0757 230.098V4.70012C28.0854 3.45121 28.5341 2.25704 29.3243 1.377C30.1145 0.496966 31.1823 0.00213946 32.2959 0H175.257C176.379 0 177.454 0.499565 178.247 1.3888C179.039 2.27803 179.485 3.48408 179.485 4.74164V230.098C179.485 231.356 179.039 232.562 178.247 233.451C177.454 234.34 176.379 234.84 175.257 234.84V234.84ZM32.2959 0.166083C31.225 0.168282 30.1987 0.646944 29.4422 1.497C28.6857 2.34706 28.2608 3.49906 28.2608 4.70012V230.098C28.2608 231.299 28.6857 232.451 29.4422 233.301C30.1987 234.152 31.225 234.63 32.2959 234.632H175.257C176.329 234.63 177.356 234.152 178.114 233.302C178.871 232.452 179.298 231.3 179.3 230.098V4.70012C179.298 3.49829 178.871 2.34632 178.114 1.4965C177.356 0.646674 176.329 0.168278 175.257 0.166083H32.2959Z" fill="#EBEBEB"/>
<path d="M335.706 234.84H192.737C191.616 234.838 190.542 234.338 189.75 233.449C188.957 232.56 188.511 231.355 188.509 230.098V4.70012C188.521 3.45045 188.971 2.25629 189.763 1.37648C190.554 0.496676 191.623 0.00211613 192.737 0H335.706C336.818 0.00432187 337.884 0.500114 338.672 1.37992C339.461 2.25972 339.909 3.45264 339.918 4.70012V230.098C339.918 231.353 339.475 232.557 338.685 233.445C337.896 234.334 336.824 234.836 335.706 234.84V234.84ZM192.737 0.166083C191.665 0.168278 190.638 0.646674 189.881 1.4965C189.123 2.34632 188.696 3.49829 188.694 4.70012V230.098C188.696 231.3 189.123 232.452 189.881 233.302C190.638 234.152 191.665 234.63 192.737 234.632H335.706C336.777 234.63 337.804 234.152 338.562 233.302C339.32 232.452 339.746 231.3 339.748 230.098V4.70012C339.746 3.49829 339.32 2.34632 338.562 1.4965C337.804 0.646674 336.777 0.168278 335.706 0.166083H192.737Z" fill="#EBEBEB"/>
<path d="M82.2222 271.92V153.938H49.1327L49.1327 271.92H82.2222Z" fill="#F0F0F0"/>
<path d="M80.2168 192.142V157.309H50.1355V192.142H80.2168Z" fill="#E6E6E6"/>
<path d="M80.2168 230.345V195.513H50.1355V230.345H80.2168Z" fill="#E6E6E6"/>
<path d="M80.2168 267.425V232.593H50.1355V267.425H80.2168Z" fill="#E6E6E6"/>
<path d="M80.2168 192.142V157.309H68.1843V192.142H80.2168Z" fill="#E0E0E0"/>
<path d="M80.2168 230.345V195.513H68.1843V230.345H80.2168Z" fill="#E0E0E0"/>
<path d="M76.2058 177.535H68.1841V191.018H76.2058V177.535Z" fill="#F0F0F0"/>
<path d="M65.176 192.142H68.1841V178.658H65.176V192.142Z" fill="#E0E0E0"/>
<path d="M66.179 182.029H56.1519V192.142H66.179V182.029Z" fill="#F0F0F0"/>
<path d="M52.141 192.142H56.1519V182.029H52.141V192.142Z" fill="#E0E0E0"/>
<path d="M80.2168 267.425V232.593H68.1843V267.425H80.2168Z" fill="#E0E0E0"/>
<path d="M49.1328 271.92L49.1328 153.938H40.1084L40.1084 271.92H49.1328Z" fill="#F5F5F5"/>
<path d="M77.2085 247.2H55.1489V267.425H77.2085V247.2Z" fill="#F0F0F0"/>
<path d="M51.1381 267.425H55.1489V247.2H51.1381V267.425Z" fill="#E0E0E0"/>
<path d="M73.1978 213.491H53.1436V229.222H73.1978V213.491Z" fill="#FAFAFA"/>
<path d="M50.1354 229.222H53.1436V213.491H50.1354V229.222Z" fill="#F0F0F0"/>
<path d="M329.892 271.92V153.938H296.802V271.92H329.892Z" fill="#F0F0F0"/>
<path d="M328.889 192.142V157.309H298.807V192.142H328.889Z" fill="#E6E6E6"/>
<path d="M328.889 230.345V195.513H298.807V230.345H328.889Z" fill="#E6E6E6"/>
<path d="M328.889 267.425V232.593H298.807V267.425H328.889Z" fill="#E6E6E6"/>
<path d="M328.889 192.142V157.309H316.856V192.142H328.889Z" fill="#E0E0E0"/>
<path d="M328.889 230.345V195.513H316.856V230.345H328.889Z" fill="#E0E0E0"/>
<path d="M311.843 219.109H303.821V229.222H311.843V219.109Z" fill="#F0F0F0"/>
<path d="M300.813 229.222H303.821V219.109H300.813V229.222Z" fill="#E0E0E0"/>
<path d="M318.862 208.996H310.84V219.109H318.862V208.996Z" fill="#F0F0F0"/>
<path d="M307.832 219.109H310.84V208.996H307.832V219.109Z" fill="#E0E0E0"/>
<path d="M324.878 219.109H316.856V229.222H324.878V219.109Z" fill="#F0F0F0"/>
<path d="M313.848 229.222H316.856V219.109H313.848V229.222Z" fill="#E0E0E0"/>
<path d="M328.889 267.425V232.593H316.856V267.425H328.889Z" fill="#E0E0E0"/>
<path d="M296.802 271.92V153.938H287.778V271.92H296.802Z" fill="#F5F5F5"/>
<path d="M319.865 239.335H301.816V266.302H319.865V239.335Z" fill="#F0F0F0"/>
<path d="M297.805 267.425H301.816V240.458H297.805V267.425Z" fill="#E0E0E0"/>
<path d="M325.881 169.669H301.816V191.018H325.881V169.669Z" fill="#FAFAFA"/>
<path d="M297.805 192.142H301.816V170.793H297.805V192.142Z" fill="#F0F0F0"/>
<path d="M267.724 22.4727H96.2603V148.32H267.724V22.4727Z" fill="#E6E6E6"/>
<path d="M270.731 22.4727H99.2681V148.32H270.731V22.4727Z" fill="#F5F5F5"/>
<path d="M266.721 142.702V26.9673L103.279 26.9673V142.702H266.721Z" fill="white"/>
<path d="M266.721 142.702V26.9673H264.715V142.702H266.721Z" fill="#E6E6E6"/>
<path d="M268.727 106.745H101.274V113.487H268.727V106.745Z" fill="#F5F5F5"/>
<path d="M274.108 13.4837H91.8886C91.8047 13.4828 91.7213 13.4967 91.6435 13.5246C91.5656 13.5524 91.4948 13.5936 91.4351 13.6459C91.3754 13.6982 91.3279 13.7604 91.2956 13.829C91.2632 13.8976 91.2466 13.9712 91.2466 14.0455C91.2485 14.1951 91.317 14.338 91.4372 14.4431C91.5574 14.5483 91.7196 14.6073 91.8886 14.6073H274.108C274.276 14.6056 274.436 14.5458 274.555 14.4409C274.673 14.3359 274.741 14.194 274.743 14.0455V14.0455C274.743 13.8965 274.676 13.7536 274.557 13.6482C274.438 13.5429 274.276 13.4837 274.108 13.4837Z" fill="#E6E6E6"/>
<path d="M276.748 14.0455C276.748 14.3788 276.66 14.7047 276.494 14.9818C276.329 15.259 276.094 15.475 275.819 15.6026C275.545 15.7302 275.242 15.7636 274.95 15.6985C274.659 15.6335 274.391 15.473 274.18 15.2372C273.97 15.0015 273.827 14.7012 273.769 14.3743C273.711 14.0473 273.74 13.7084 273.854 13.4005C273.968 13.0925 274.161 12.8293 274.408 12.6441C274.656 12.4589 274.946 12.36 275.244 12.36C275.441 12.36 275.637 12.4036 275.819 12.4883C276.002 12.573 276.168 12.6972 276.307 12.8537C276.447 13.0102 276.558 13.196 276.633 13.4005C276.709 13.6049 276.748 13.8241 276.748 14.0455V14.0455Z" fill="#E6E6E6"/>
<path d="M97.2672 19.1018C97.0009 19.0994 96.7461 18.9844 96.5577 18.7816C96.3693 18.5788 96.2625 18.3044 96.2603 18.0176V15.6915C96.2603 15.404 96.3663 15.1282 96.5552 14.9248C96.744 14.7215 97.0002 14.6073 97.2672 14.6073C97.532 14.6073 97.786 14.7205 97.9732 14.9221C98.1605 15.1237 98.2656 15.3972 98.2656 15.6823V18.0083C98.2668 18.1507 98.2418 18.2919 98.1923 18.4239C98.1427 18.5559 98.0695 18.6762 97.9768 18.7777C97.8841 18.8793 97.7737 18.9601 97.652 19.0157C97.5302 19.0714 97.3995 19.1006 97.2672 19.1018V19.1018Z" fill="#E6E6E6"/>
<path d="M265.714 19.1018C265.448 19.0994 265.194 18.9841 265.007 18.781C264.82 18.5779 264.715 18.3035 264.715 18.0176V15.6915C264.714 15.5496 264.739 15.4088 264.789 15.2773C264.839 15.1458 264.912 15.0262 265.005 14.9254C265.098 14.8246 265.208 14.7446 265.33 14.69C265.451 14.6354 265.582 14.6073 265.714 14.6073C265.979 14.6073 266.234 14.7202 266.423 14.9216C266.611 15.1229 266.718 15.3963 266.721 15.6823V18.0083C266.721 18.2967 266.615 18.5735 266.426 18.7783C266.238 18.9831 265.982 19.0994 265.714 19.1018V19.1018Z" fill="#E6E6E6"/>
<path opacity="0.4" d="M274.743 14.6073H101.274V138.207H274.743V14.6073Z" fill="#E0E0E0"/>
<path d="M109.295 14.0455C109.295 14.3792 109.207 14.7053 109.041 14.9827C108.876 15.26 108.64 15.476 108.365 15.6034C108.09 15.7307 107.787 15.7636 107.495 15.6979C107.203 15.6323 106.935 15.471 106.725 15.2345C106.515 14.998 106.372 14.6969 106.315 14.3695C106.258 14.042 106.289 13.7029 106.404 13.3951C106.519 13.0872 106.712 12.8245 106.961 12.6403C107.209 12.456 107.5 12.3585 107.798 12.36C108.196 12.3621 108.577 12.5406 108.857 12.8564C109.138 13.1723 109.295 13.5998 109.295 14.0455Z" fill="#E6E6E6"/>
<path d="M120.325 204.502L277.75 204.502V197.76L120.325 197.76V204.502Z" fill="#F0F0F0"/>
<path d="M121.328 197.76H102.276V204.502H121.328V197.76Z" fill="#E6E6E6"/>
<path d="M275.745 204.502H105.285V208.996H275.745V204.502Z" fill="#E0E0E0"/>
<path d="M273.74 207.873V271.92H275.745V207.873H273.74Z" fill="#E0E0E0"/>
<path d="M120.325 207.873V271.92H122.331V207.873H120.325Z" fill="#E0E0E0"/>
<path d="M105.285 207.873V271.92H107.29V207.873H105.285Z" fill="#E0E0E0"/>
<path d="M257.696 207.873V271.92H259.702V207.873H257.696Z" fill="#E0E0E0"/>
<path d="M221.625 131.465L227.704 144.07C227.518 171.282 229.599 172.856 229.621 177.535H223.207C222.601 154.744 218.81 156.682 221.625 131.465Z" fill="#E0E0E0"/>
<path d="M226.587 163.988C224.354 138.23 187.209 142.351 183.682 154.453C180.155 166.556 227.881 178.805 226.587 163.988Z" fill="#E0E0E0"/>
<path d="M223.908 153.144C228.848 134.135 206.337 130.549 196.285 136.07C190.363 142.501 221.067 164.079 223.908 153.144Z" fill="#E0E0E0"/>
<path d="M217.686 141.407C229.078 137.242 221.702 123.716 214.901 120.251C209.294 119.401 211.136 143.847 217.686 141.407Z" fill="#E0E0E0"/>
<path d="M230.426 154.069C217.674 143.085 233.139 132.54 243.397 132.589C250.966 134.788 237.761 160.358 230.426 154.069Z" fill="#E0E0E0"/>
<path d="M228.022 143.606C210.451 138.669 220.959 124.724 231.128 121.366C239.585 120.686 238.123 146.452 228.022 143.606Z" fill="#E0E0E0"/>
<path d="M224.82 165.708C221.563 141.743 256.695 142.891 259.541 152.396C262.386 161.902 226.654 179.496 224.82 165.708Z" fill="#E0E0E0"/>
<path d="M223.107 196.636C210.549 196.636 199.978 196.019 197.407 182.762C196.784 179.245 195.887 175.795 194.725 172.451L194.526 171.916H251.68L251.481 172.451C250.319 175.794 249.424 179.244 248.807 182.762C246.229 195.995 235.65 196.636 223.107 196.636Z" fill="#FAFAFA"/>
<path d="M254.849 173.04H190.354L188.509 167.422H256.694L254.849 173.04Z" fill="#F0F0F0"/>
<path d="M184.499 309C263.69 309 327.886 304.724 327.886 299.449C327.886 294.174 263.69 289.898 184.499 289.898C105.308 289.898 41.1113 294.174 41.1113 299.449C41.1113 304.724 105.308 309 184.499 309Z" fill="#F5F5F5"/>
<path d="M281.761 293.269L275.768 293.168L275.745 277.538L281.731 277.639L281.761 293.269Z" fill="#FFB573"/>
<path d="M311.843 293.269H305.655L303.821 277.538H310.009L311.843 293.269Z" fill="#FFB573"/>
<path d="M305.087 292.146H312.39C312.507 292.146 312.621 292.193 312.711 292.28C312.801 292.366 312.861 292.487 312.882 292.62L313.837 298.77C313.858 298.923 313.849 299.078 313.813 299.226C313.776 299.374 313.712 299.511 313.624 299.628C313.537 299.744 313.429 299.837 313.307 299.901C313.185 299.964 313.053 299.996 312.92 299.994C310.57 299.951 308.862 299.787 305.9 299.787C304.08 299.787 298.59 300.011 296.076 300.011C293.563 300.011 293.339 297.142 294.376 296.875C299.03 295.712 302.581 294.11 304.073 292.568C304.354 292.286 304.715 292.136 305.087 292.146Z" fill="#263238"/>
<path d="M275.906 292.145L282.457 292.264C282.574 292.263 282.688 292.311 282.776 292.399C282.864 292.487 282.921 292.608 282.936 292.74L283.758 298.813C283.777 298.964 283.766 299.117 283.727 299.263C283.689 299.408 283.623 299.543 283.534 299.656C283.445 299.77 283.335 299.861 283.213 299.922C283.09 299.983 282.957 300.013 282.824 300.011C280.46 299.926 277.058 299.705 274.089 299.654C270.619 299.595 270.23 299.756 266.161 299.654C263.701 299.612 263.17 296.775 264.232 296.537C268.996 295.45 270.215 295.39 274.433 292.621C274.878 292.316 275.386 292.152 275.906 292.145V292.145Z" fill="#263238"/>
<path d="M277.75 94.547C276.155 99.3256 274.337 104.009 272.306 108.578C271.291 110.856 270.225 113.125 269.054 115.354C267.894 117.63 266.623 119.834 265.247 121.956L264.128 123.607C263.44 124.584 262.581 125.396 261.603 125.992C260.582 126.607 259.444 126.941 258.284 126.966C257.334 126.999 256.386 126.86 255.477 126.554C254.06 126.075 252.718 125.354 251.499 124.416C250.459 123.617 249.47 122.74 248.536 121.791C245.108 118.215 242.119 114.149 239.647 109.7L243.173 106.638C244.692 108.289 246.292 109.94 247.907 111.491C249.465 113.03 251.105 114.463 252.818 115.783C253.599 116.397 254.418 116.948 255.269 117.434C255.93 117.822 256.639 118.1 257.373 118.259C257.53 118.31 257.697 118.31 257.855 118.259C257.906 118.218 257.803 118.209 257.714 118.259C257.625 118.308 257.603 118.259 257.655 118.193L258.432 116.815C260.592 112.765 262.534 108.576 264.247 104.269C266.032 99.9199 267.751 95.3888 269.343 91.0145L277.75 94.547Z" fill="#FFB573"/>
<path d="M279.512 90.1746C281.438 96.1205 271.333 113.487 271.333 113.487L259.702 106.171C261.494 100.755 263.795 95.575 266.564 90.7197C270.773 83.7746 277.411 83.659 279.512 90.1746Z" fill="#C0C33F"/>
<path opacity="0.5" d="M279.512 90.1746C281.438 96.1205 271.333 113.487 271.333 113.487L259.702 106.171C261.494 100.755 263.795 95.575 266.564 90.7197C270.773 83.7746 277.411 83.659 279.512 90.1746Z" fill="white"/>
<path opacity="0.2" d="M273.894 96.7368C271.571 98.0133 266.302 104.289 264.715 109.048L272.087 113.487C274.606 109.279 276.834 104.875 278.753 100.311C277.098 98.565 275.124 96.0945 273.894 96.7368Z" fill="#C0C33F"/>
<path d="M243.683 106.844L240.061 103.375L236.64 109.568C236.64 109.568 240.12 113.885 243.972 111.79L244.492 110.22C244.687 109.635 244.714 109.003 244.57 108.402C244.426 107.802 244.118 107.26 243.683 106.844V106.844Z" fill="#FFB573"/>
<path d="M234.658 100.004L233.631 106.154L237.145 108.993L240.65 102.666L234.658 100.004Z" fill="#FFB573"/>
<path opacity="0.2" d="M275.745 277.538L275.76 285.299L281.761 285.404L281.754 277.643L275.745 277.538Z" fill="black"/>
<path opacity="0.2" d="M309.908 277.538H303.821L304.761 285.404H310.84L309.908 277.538Z" fill="black"/>
<path d="M305.827 86.1674C300.996 111.79 303.797 138.379 303.542 143.825L272.313 143.511C266.064 106.136 273.113 86.1674 273.113 86.1674C273.113 86.1674 275.085 85.5806 277.783 85.0599C278.627 84.8946 279.544 84.7375 280.497 84.6135C281.021 84.5392 281.559 84.4813 282.104 84.4235C286.529 84.1833 290.961 84.2302 295.38 84.564C296.217 84.6136 297.068 84.6962 297.89 84.7871C298.712 84.878 299.41 84.9772 300.116 85.0847C303.331 85.5641 305.827 86.1674 305.827 86.1674Z" fill="#C0C33F"/>
<path opacity="0.5" d="M305.827 86.1674C300.996 111.79 303.797 138.379 303.542 143.825L272.313 143.511C266.064 106.136 273.113 86.1674 273.113 86.1674C273.113 86.1674 275.085 85.5806 277.783 85.0599C278.627 84.8946 279.544 84.7375 280.497 84.6135C281.021 84.5392 281.559 84.4813 282.104 84.4235C286.529 84.1833 290.961 84.2302 295.38 84.564C296.217 84.6136 297.068 84.6962 297.89 84.7871C298.712 84.878 299.41 84.9772 300.116 85.0847C303.331 85.5641 305.827 86.1674 305.827 86.1674Z" fill="white"/>
<path opacity="0.2" d="M299.891 96.6327C299.462 99.0553 300.764 109.852 303.199 112.364C303.295 108.867 303.495 105.217 303.821 101.47L299.891 96.6327Z" fill="black"/>
<path d="M294.639 67.4182C293.784 72.2026 292.894 80.9794 295.799 84.2126C293.506 86.7762 290.509 89.7399 285.546 89.8869C280.583 90.0338 281.473 86.1312 282.804 84.0738C287.475 82.8491 287.39 78.8811 286.607 75.15L294.639 67.4182Z" fill="#FFB573"/>
<path d="M294.569 82.0255C294.569 82.0255 293.029 86.7122 284.77 89.7805C286.102 90.5063 287.185 91.733 287.842 93.2618C287.842 93.2618 297.496 90.4127 296.762 83.3236C296.085 82.7786 295.347 82.342 294.569 82.0255Z" fill="white"/>
<path d="M281.666 92.1382C282.38 90.8137 283.473 89.7913 284.769 89.2326C283.854 88.3038 282.374 85.4063 283.024 83.1517C282.38 83.1326 281.737 83.2182 281.115 83.4057C281.115 83.4057 277.718 87.0099 281.666 92.1382Z" fill="white"/>
<path d="M284.759 95.5751C284.702 96.2005 284.442 96.6695 284.169 96.6304C283.896 96.5913 283.725 96.0676 283.775 95.4422C283.826 94.8169 284.099 94.3557 284.366 94.3869C284.632 94.4182 284.816 94.9654 284.759 95.5751Z" fill="white"/>
<path d="M283.767 102.263C283.767 102.885 283.523 103.382 283.247 103.374C282.97 103.367 282.752 102.861 282.765 102.239C282.778 101.617 283.009 101.12 283.285 101.127C283.561 101.135 283.767 101.648 283.767 102.263Z" fill="white"/>
<path opacity="0.2" d="M291.64 69.6655L286.775 74.6425C286.974 75.5894 287.103 76.556 287.161 77.5309C288.989 77.2287 291.531 74.8113 291.72 72.4828C291.833 71.5455 291.806 70.5909 291.64 69.6655Z" fill="black"/>
<path d="M285.772 56.2024C284.801 57.372 284.08 58.7927 283.67 60.3487C283.259 61.9046 283.169 63.5517 283.408 65.1557C282.05 66.5252 279.59 66.277 279.59 66.277L278.812 65.3697C278.441 64.9325 278.155 64.4073 277.974 63.8297C277.793 63.2522 277.72 62.6359 277.762 62.0229C277.901 60.0199 278.291 56.9813 279.377 55.0554C281.147 51.9825 285.772 56.2024 285.772 56.2024Z" fill="#263238"/>
<path d="M295.774 59.0785C295.358 65.6605 295.417 69.4699 292.404 72.7938C287.867 77.8043 280.591 74.7355 279.23 68.1864C278.01 62.2955 278.895 52.5541 284.705 50.0858C285.981 49.518 287.367 49.3199 288.732 49.5103C290.097 49.7007 291.395 50.2733 292.503 51.1739C293.612 52.0745 294.494 53.2733 295.067 54.6566C295.639 56.0399 295.883 57.5619 295.774 59.0785V59.0785Z" fill="#FFB573"/>
<path d="M290.786 55.4109C291.696 57.9186 291.787 60.7613 291.039 63.3493C290.959 63.6108 290.922 63.8898 290.931 64.1693C290.94 64.4488 290.996 64.7231 291.094 64.9755C291.192 65.2279 291.331 65.4532 291.502 65.6377C291.673 65.8222 291.872 65.9621 292.088 66.0489C292.562 66.2224 293.054 66.305 293.548 66.2935L296.174 65.6777C296.174 65.6777 297.278 60.8691 296.558 57.3512C295.838 53.8333 290.786 55.4109 290.786 55.4109Z" fill="#263238"/>
<path d="M290.674 56.9445C286.356 57.3829 282.005 57.1301 277.75 56.1938C277.75 56.1938 279.133 51.2447 282.235 49.595C285.337 47.9452 291.894 48.0525 293.916 49.0093C295.938 49.9662 298.577 52.8862 297.592 60.013C295.497 62.5618 290.674 56.9445 290.674 56.9445Z" fill="#263238"/>
<path d="M298.808 58.4291C298.808 58.4291 282.059 55.5162 275.117 54.0553C275.012 54.0322 274.917 53.9658 274.848 53.8675C274.78 53.7693 274.743 53.6454 274.743 53.5175C274.743 53.3896 274.78 53.2658 274.848 53.1675C274.917 53.0693 275.012 53.0028 275.117 52.9798C278.021 52.6484 280.949 52.8053 283.817 53.4458L298.808 58.4291Z" fill="#C0C33F"/>
<path d="M277.75 53.2652C278.046 51.5637 280.601 42.7757 291.322 45.447C301.253 47.9141 298.439 58.4291 298.439 58.4291L277.75 53.2652Z" fill="#C0C33F"/>
<path d="M283.767 46.3225L287.403 44.9454L291.788 45.4045V46.3703L289.005 47.1927L283.767 46.3225Z" fill="#C0C33F"/>
<path opacity="0.2" d="M285.033 55.0564C284.999 55.0575 284.965 55.0502 284.933 55.035C284.901 55.0199 284.872 54.997 284.847 54.9679C284.823 54.9388 284.803 54.904 284.79 54.8655C284.776 54.8271 284.77 54.7858 284.77 54.744C284.77 54.6765 284.846 47.8898 291.447 46.0835C291.482 46.0703 291.519 46.0661 291.555 46.0712C291.591 46.0763 291.626 46.0905 291.658 46.1129C291.689 46.1353 291.717 46.1655 291.738 46.2015C291.76 46.2375 291.775 46.2786 291.783 46.3221C291.79 46.3655 291.79 46.4105 291.783 46.4541C291.776 46.4977 291.761 46.5389 291.74 46.5752C291.719 46.6115 291.692 46.6421 291.66 46.665C291.629 46.6878 291.594 46.7025 291.558 46.7081C285.38 48.3963 285.317 54.4824 285.317 54.744C285.318 54.7881 285.31 54.8316 285.296 54.8719C285.281 54.9122 285.26 54.9482 285.233 54.9777C285.206 55.0072 285.174 55.0295 285.14 55.043C285.105 55.0566 285.069 55.0611 285.033 55.0564V55.0564Z" fill="black"/>
<path d="M297.412 66.4801C296.682 68.0068 295.494 69.1161 294.106 69.5674C292.267 70.1424 291.394 68.0901 291.959 65.9758C292.453 64.065 294.013 61.4642 295.845 61.8358C297.677 62.2073 298.285 64.5958 297.412 66.4801Z" fill="#FFB573"/>
<path d="M274.288 284.106L284.337 284.28C284.337 284.28 287.058 239.711 286.755 218.98C286.666 212.673 287.28 203.795 288.233 194.263C289.409 182.253 290.03 177.453 291.576 162.268C292.677 151.443 293.794 144.033 293.794 144.033L272.927 143.825C272.927 143.825 270.258 198.117 270.805 218.425C271.33 239.454 274.288 284.106 274.288 284.106Z" fill="#263238"/>
<path opacity="0.2" d="M286.553 158.433C283.531 169.053 284.834 193.306 286.89 200.007C287.062 197.966 287.255 195.891 287.456 193.751C288.594 181.813 289.203 177.047 290.7 161.973C290.7 161.668 290.757 161.38 290.786 161.092C289.522 159.927 288.089 159.026 286.553 158.433Z" fill="black"/>
<path d="M283.767 143.825C283.767 143.825 290.785 199.73 293.291 219.029C296.031 240.16 302.083 284.28 302.083 284.28H312.845C312.845 284.28 310.823 242.698 308.501 222.039C305.863 198.503 304.039 144.033 304.039 144.033L283.767 143.825Z" fill="#263238"/>
<path d="M301.29 284.28H313.848V280.055L299.81 279.785L301.29 284.28Z" fill="#C0C33F"/>
<path d="M272.551 284.086L284.235 284.28L284.77 280.22L271.734 279.785L272.551 284.086Z" fill="#C0C33F"/>
<path d="M285.772 61.8001C285.772 62.4243 285.543 62.9236 285.261 62.9236C284.979 62.9236 284.763 62.4147 284.77 61.7905C284.776 61.1663 284.999 60.6669 285.281 60.6765C285.562 60.6861 285.779 61.1855 285.772 61.8001Z" fill="#263238"/>
<path d="M280.758 61.8095C280.758 62.4337 280.529 62.9331 280.254 62.9235C279.979 62.9139 279.756 62.4145 279.756 61.7999C279.756 61.1853 279.985 60.6764 280.267 60.6764C280.549 60.6764 280.765 61.1949 280.758 61.8095Z" fill="#263238"/>
<path d="M281.761 61.8C281.258 63.5802 280.583 65.2528 279.756 66.7703C280.036 67.0597 280.357 67.259 280.697 67.3542C281.036 67.4494 281.387 67.4382 281.723 67.3215L281.761 61.8Z" fill="#ED893E"/>
<path d="M284.423 68.4681C284.884 68.3949 285.329 68.1863 285.732 67.8549C286.134 67.5236 286.486 67.0767 286.764 66.5417C286.776 66.5041 286.778 66.4617 286.77 66.422C286.762 66.3823 286.745 66.3478 286.722 66.3247C286.698 66.3015 286.669 66.2912 286.641 66.2955C286.613 66.2998 286.586 66.3184 286.566 66.3481C286.25 66.936 285.843 67.4088 285.378 67.7289C284.913 68.0489 284.403 68.2074 283.888 68.1916C283.856 68.1916 283.825 68.21 283.802 68.2429C283.779 68.2757 283.767 68.3202 283.767 68.3667C283.767 68.4131 283.779 68.4577 283.802 68.4905C283.825 68.5234 283.856 68.5418 283.888 68.5418C284.067 68.5316 284.246 68.5069 284.423 68.4681V68.4681Z" fill="#263238"/>
<path d="M288.495 59.5476C288.55 59.5373 288.603 59.513 288.649 59.4762C288.718 59.4152 288.764 59.3242 288.777 59.223C288.79 59.1218 288.768 59.0186 288.718 58.9361C288.418 58.4331 288.021 58.0228 287.561 57.7391C287.101 57.4555 286.591 57.3068 286.073 57.3055C286.031 57.308 285.989 57.3207 285.951 57.3427C285.913 57.3648 285.879 57.3957 285.851 57.4337C285.823 57.4718 285.802 57.5161 285.788 57.5641C285.775 57.6121 285.77 57.6628 285.774 57.7131C285.776 57.764 285.786 57.8139 285.805 57.8599C285.823 57.9058 285.849 57.9471 285.881 57.9812C285.913 58.0152 285.95 58.0415 285.99 58.0585C286.03 58.0754 286.073 58.0827 286.116 58.08V58.08C286.525 58.0857 286.928 58.208 287.29 58.4367C287.652 58.6654 287.962 58.9939 288.196 59.3947C288.228 59.4519 288.273 59.4968 288.326 59.5239C288.379 59.551 288.438 59.5592 288.495 59.5476V59.5476Z" fill="#263238"/>
<path d="M279.017 59.5498C279.056 59.5441 279.093 59.5258 279.126 59.4965C279.158 59.4671 279.185 59.4276 279.204 59.3812C279.328 59.0146 279.514 58.6932 279.748 58.444C279.982 58.1947 280.256 58.0248 280.549 57.9483C280.611 57.9382 280.669 57.8948 280.708 57.8277C280.747 57.7605 280.765 57.675 280.757 57.5901C280.75 57.5051 280.718 57.4276 280.668 57.3747C280.618 57.3217 280.555 57.2976 280.493 57.3077C280.122 57.3966 279.773 57.6056 279.475 57.9167C279.177 58.2279 278.938 58.632 278.781 59.0946C278.766 59.132 278.757 59.1731 278.754 59.2154C278.752 59.2576 278.755 59.3002 278.765 59.3404C278.775 59.3807 278.791 59.4177 278.812 59.4494C278.833 59.481 278.858 59.5066 278.887 59.5245C278.928 59.5491 278.973 59.5579 279.017 59.5498V59.5498Z" fill="#263238"/>
<path d="M303.187 294.386C303.702 294.364 304.214 294.257 304.714 294.068C304.74 294.055 304.764 294.033 304.783 294.002C304.802 293.971 304.816 293.933 304.822 293.892C304.826 293.852 304.822 293.812 304.812 293.775C304.802 293.739 304.785 293.707 304.764 293.683C304.562 293.485 302.731 291.739 302.08 292.233C302.007 292.29 301.946 292.375 301.901 292.479C301.857 292.583 301.831 292.703 301.826 292.826C301.804 293.027 301.816 293.233 301.86 293.425C301.904 293.617 301.98 293.789 302.08 293.925C302.403 294.266 302.794 294.428 303.187 294.386V294.386ZM304.323 293.771C303.324 294.068 302.572 294.013 302.26 293.606C302.193 293.514 302.143 293.396 302.116 293.265C302.088 293.134 302.083 292.994 302.101 292.859C302.099 292.808 302.107 292.757 302.123 292.712C302.14 292.667 302.165 292.63 302.195 292.607C302.535 292.343 303.577 293.101 304.323 293.815V293.771Z" fill="#C0C33F"/>
<path d="M304.659 293.26C304.689 293.269 304.72 293.269 304.75 293.26C304.773 293.243 304.792 293.219 304.805 293.191C304.818 293.163 304.824 293.132 304.824 293.101C304.824 293.008 304.742 290.841 304.002 290.131C303.913 290.042 303.808 289.976 303.694 289.938C303.581 289.899 303.461 289.889 303.344 289.907C303.227 289.909 303.113 289.955 303.021 290.038C302.929 290.121 302.863 290.236 302.834 290.365C302.662 291.205 303.92 292.849 304.585 293.269L304.659 293.26ZM303.443 290.243C303.508 290.242 303.573 290.255 303.633 290.283C303.694 290.31 303.749 290.35 303.796 290.402C304.238 291.082 304.479 291.902 304.487 292.746C303.829 292.158 303.04 290.878 303.139 290.43C303.139 290.384 303.139 290.271 303.377 290.243H303.443Z" fill="#C0C33F"/>
<path d="M275.636 294.119C275.663 294.104 275.687 294.081 275.706 294.05C275.724 294.019 275.737 293.983 275.742 293.944C275.749 293.904 275.745 293.861 275.732 293.824C275.719 293.786 275.696 293.756 275.669 293.737C275.384 293.519 272.854 291.687 272.032 292.254C271.955 292.31 271.89 292.389 271.84 292.486C271.791 292.583 271.759 292.694 271.748 292.81C271.724 292.992 271.732 293.179 271.773 293.356C271.815 293.532 271.887 293.693 271.983 293.824C272.659 294.686 274.546 294.38 275.612 294.119H275.636ZM272.219 292.592C272.724 292.374 274.107 293.126 275.115 293.813C273.651 294.108 272.585 293.999 272.211 293.519C272.144 293.434 272.094 293.327 272.067 293.208C272.039 293.09 272.036 292.964 272.057 292.843C272.057 292.797 272.067 292.751 272.086 292.713C272.104 292.674 272.131 292.644 272.162 292.625L272.219 292.592Z" fill="#C0C33F"/>
<path d="M274.677 293.249C274.696 293.231 274.712 293.208 274.724 293.18C274.735 293.153 274.741 293.123 274.742 293.092C274.742 293.009 274.691 291.003 274.015 290.217C273.918 290.103 273.803 290.016 273.677 289.962C273.552 289.908 273.419 289.888 273.287 289.903V289.903C272.909 289.903 272.785 290.18 272.749 290.384C272.596 291.216 273.906 292.852 274.589 293.268C274.619 293.272 274.65 293.266 274.677 293.249V293.249ZM273.142 290.254H273.28C273.38 290.244 273.481 290.26 273.576 290.301C273.672 290.342 273.759 290.408 273.833 290.495C274.235 291.155 274.462 291.961 274.48 292.796C273.789 292.232 272.909 290.948 273.026 290.448C273.011 290.421 273.055 290.301 273.142 290.254Z" fill="#C0C33F"/>
<path d="M297.842 82.0475C297.474 81.993 297.099 82.0399 296.75 82.1842C296.401 82.3284 296.088 82.5658 295.836 82.8764C293.822 85.3632 289.021 92.9646 288.029 110.704C287.237 124.101 288.323 137.557 291.246 150.567L303.724 146.539C304.124 146.411 304.471 146.126 304.702 145.734C304.934 145.342 305.034 144.869 304.986 144.4C304.65 141.084 303.928 133.102 303.724 124.174C303.585 117.891 304.001 112.229 303.979 109.659C302.607 106.609 300.141 101.627 301.06 96.1974C302.053 90.1379 304.986 89.309 306.985 88.1982C307.244 88.0446 307.461 87.8122 307.61 87.527C307.76 87.2418 307.836 86.9149 307.832 86.583C307.827 86.251 307.742 85.9271 307.584 85.6473C307.427 85.3675 307.204 85.1429 306.941 84.9985C304.053 83.5122 300.987 82.5178 297.842 82.0475V82.0475Z" fill="#C0C33F"/>
<path d="M280.741 150.567L271.866 147.524C271.533 147.409 271.238 147.192 271.015 146.898C270.792 146.605 270.651 146.248 270.609 145.869C269.852 139.468 266.686 110.082 270.775 88.2634C270.911 87.5269 271.22 86.8415 271.671 86.2746C272.123 85.7076 272.701 85.2786 273.35 85.0295C275.905 84.0824 278.549 83.4526 281.233 83.1521C281.312 83.1429 281.391 83.155 281.464 83.1875C281.537 83.2199 281.602 83.2717 281.652 83.338C281.702 83.4044 281.737 83.4833 281.752 83.5678C281.768 83.6523 281.764 83.7396 281.741 83.822C280.059 90.5627 277.258 127.475 280.741 150.567Z" fill="#C0C33F"/>
<path d="M268.726 128.095C268.88 131.091 269.078 133.855 269.276 136.282C272.394 136.667 275.584 136.931 278.753 137.084C278.606 134.432 278.504 131.716 278.452 128.984C275.166 128.808 271.895 128.519 268.726 128.095Z" fill="white"/>
<path d="M278.753 113.278C275.317 113.117 271.938 112.821 268.726 112.364C268.726 115.138 268.726 117.865 268.806 120.487C271.996 120.92 275.317 121.2 278.623 121.353C278.63 118.618 278.681 115.908 278.753 113.278Z" fill="white"/>
<path d="M303.336 129.218C298.814 129.714 293.437 130.031 287.778 130.031C287.98 133.014 288.255 135.761 288.567 138.207C294.103 138.207 299.335 137.842 303.821 137.346C303.655 134.867 303.481 132.103 303.336 129.218Z" fill="white"/>
<path d="M303.821 112.364C298.989 112.911 293.496 113.284 287.872 113.363C287.77 116.132 287.755 118.806 287.806 121.353C293.365 121.273 298.771 120.916 303.61 120.385C303.618 117.291 303.741 114.49 303.821 112.364Z" fill="white"/>
<path d="M327.317 156.58L294.181 162.898C293.968 162.943 293.749 162.936 293.538 162.878C293.328 162.819 293.131 162.71 292.96 162.558C292.789 162.406 292.648 162.214 292.546 161.996C292.445 161.777 292.386 161.536 292.372 161.289L290.789 137.818C290.762 137.292 290.904 136.772 291.189 136.358C291.474 135.943 291.882 135.662 292.335 135.567L325.494 129.249C325.707 129.203 325.926 129.208 326.137 129.266C326.348 129.324 326.546 129.433 326.717 129.585C326.888 129.738 327.029 129.93 327.13 130.149C327.231 130.369 327.29 130.61 327.303 130.858L328.886 154.329C328.912 154.859 328.767 155.381 328.477 155.797C328.188 156.212 327.775 156.49 327.317 156.58V156.58Z" fill="#C0C33F"/>
<path opacity="0.4" d="M327.306 156.701L294.252 162.896C294.035 162.943 293.811 162.937 293.595 162.879C293.38 162.821 293.178 162.711 293.003 162.558C292.828 162.405 292.684 162.212 292.581 161.992C292.478 161.771 292.418 161.529 292.405 161.28L290.789 137.705C290.761 137.177 290.907 136.655 291.197 136.239C291.488 135.822 291.905 135.54 292.368 135.445L325.422 129.249C325.64 129.203 325.864 129.208 326.079 129.267C326.294 129.325 326.496 129.434 326.671 129.587C326.846 129.74 326.99 129.933 327.093 130.154C327.196 130.374 327.256 130.617 327.269 130.865L328.885 154.44C328.913 154.969 328.768 155.49 328.477 155.907C328.186 156.323 327.77 156.606 327.306 156.701V156.701Z" fill="black"/>
<path d="M307.884 89.8909C309.706 94.7019 311.319 99.4879 312.781 104.433C313.501 106.888 314.221 109.377 314.862 111.883C315.186 113.144 315.496 114.389 315.791 115.692L316.015 116.644L316.245 117.746C316.411 118.498 316.504 119.25 316.62 119.993C317.178 125.646 316.745 131.371 315.345 136.823C314.723 139.42 313.963 141.97 313.069 144.458C312.615 145.694 312.14 146.905 311.629 148.108C311.117 149.31 310.613 150.463 309.994 151.691L306.069 149.528C306.695 147.264 307.329 144.825 307.797 142.445C308.265 140.064 308.719 137.642 309.029 135.262C309.332 132.919 309.496 130.555 309.518 128.187C309.559 125.965 309.378 123.745 308.978 121.572C308.856 121.071 308.777 120.545 308.625 120.068L308.416 119.317L308.15 118.481C307.797 117.312 307.43 116.151 307.034 114.982C306.313 112.635 305.471 110.296 304.679 107.949L299.81 93.9168L307.884 89.8909Z" fill="#FFB573"/>
<path d="M306.043 86.1557C311.398 88.3898 314.851 105.509 314.851 105.509L303.005 114.611C303.005 114.611 299.366 104.475 297.361 96.573C295.2 87.9761 299.567 83.508 306.043 86.1557Z" fill="#C0C33F"/>
<path opacity="0.5" d="M306.043 86.1557C311.398 88.3898 314.851 105.509 314.851 105.509L303.005 114.611C303.005 114.611 299.366 104.475 297.361 96.573C295.2 87.9761 299.567 83.508 306.043 86.1557Z" fill="white"/>
<path d="M305.832 150.738L304.824 156.185L311.796 155.937C311.796 155.937 312.354 149.356 309.619 148.32L307.443 148.825C307.051 148.919 306.691 149.15 306.405 149.49C306.119 149.829 305.92 150.263 305.832 150.738Z" fill="#FFB573"/>
<path d="M306.951 161.781L311.035 160.785C311.275 160.726 311.489 160.565 311.637 160.333C311.785 160.1 311.857 159.81 311.84 159.519L311.614 155.062L304.824 155.298L305.756 160.827C305.809 161.142 305.965 161.42 306.189 161.599C306.412 161.777 306.686 161.843 306.951 161.781V161.781Z" fill="#FFB573"/>
<path d="M244.826 49.44H117.005C116.645 49.441 116.288 49.5228 115.956 49.6807C115.624 49.8386 115.324 50.0694 115.072 50.3594C114.821 50.6495 114.624 50.9929 114.493 51.3695C114.363 51.7462 114.3 52.1484 114.31 52.5524L119.493 249.88C119.514 250.668 119.808 251.415 120.313 251.963C120.817 252.512 121.493 252.819 122.196 252.818H249.979C250.341 252.818 250.699 252.737 251.033 252.579C251.366 252.421 251.668 252.19 251.92 251.899C252.172 251.608 252.369 251.263 252.5 250.885C252.631 250.507 252.693 250.103 252.682 249.697L247.499 52.3781C247.48 51.5956 247.19 50.852 246.692 50.304C246.193 49.7559 245.524 49.4462 244.826 49.44V49.44Z" fill="#C0C33F"/>
<path opacity="0.2" d="M244.826 49.44H117.005C116.645 49.441 116.288 49.5228 115.956 49.6807C115.624 49.8386 115.324 50.0694 115.072 50.3594C114.821 50.6495 114.624 50.9929 114.493 51.3695C114.363 51.7462 114.3 52.1484 114.31 52.5524L119.493 249.88C119.514 250.668 119.808 251.415 120.313 251.963C120.817 252.512 121.493 252.819 122.196 252.818H249.979C250.341 252.818 250.699 252.737 251.033 252.579C251.366 252.421 251.668 252.19 251.92 251.899C252.172 251.608 252.369 251.263 252.5 250.885C252.631 250.507 252.693 250.103 252.682 249.697L247.499 52.3781C247.48 51.5956 247.19 50.852 246.692 50.304C246.193 49.7559 245.524 49.4462 244.826 49.44V49.44Z" fill="black"/>
<path d="M145.393 47.1927H133.36V48.3164H145.393V47.1927Z" fill="#C0C33F"/>
<path d="M128.347 47.1927H125.339V48.3164H128.347V47.1927Z" fill="#C0C33F"/>
<path d="M245.829 49.44H118.016C117.654 49.4399 117.297 49.5209 116.964 49.6783C116.631 49.8357 116.33 50.0663 116.078 50.3564C115.826 50.6466 115.628 50.9904 115.497 51.3676C115.366 51.7448 115.303 52.1477 115.313 52.5524L120.496 249.88C120.519 250.667 120.814 251.413 121.318 251.961C121.822 252.509 122.496 252.816 123.199 252.818H250.99C251.351 252.817 251.708 252.735 252.041 252.577C252.373 252.418 252.674 252.187 252.925 251.896C253.176 251.605 253.373 251.261 253.504 250.883C253.634 250.505 253.696 250.102 253.685 249.697L248.502 52.3781C248.481 51.5963 248.191 50.8539 247.693 50.3063C247.194 49.7586 246.527 49.4482 245.829 49.44V49.44Z" fill="#C0C33F"/>
<path opacity="0.2" d="M121.33 60.2633L126.11 244.234C126.134 245.026 126.43 245.777 126.934 246.329C127.439 246.882 128.113 247.194 128.817 247.2H244.12C244.462 247.201 244.801 247.125 245.116 246.975C245.431 246.825 245.716 246.605 245.954 246.328C246.192 246.051 246.377 245.723 246.5 245.363C246.622 245.003 246.678 244.619 246.665 244.234L241.885 60.2633C241.861 59.4719 241.565 58.722 241.06 58.1707C240.556 57.6194 239.881 57.3093 239.178 57.3055H123.875C123.533 57.303 123.194 57.3785 122.879 57.5274C122.564 57.6763 122.279 57.8956 122.041 58.172C121.803 58.4484 121.618 58.7762 121.496 59.1356C121.373 59.495 121.317 59.8786 121.33 60.2633V60.2633Z" fill="black"/>
<path d="M121.33 59.1398L126.11 243.118C126.134 243.91 126.43 244.66 126.935 245.211C127.439 245.762 128.114 246.072 128.817 246.076H244.12C244.462 246.079 244.801 246.003 245.116 245.854C245.431 245.705 245.716 245.486 245.954 245.21C246.192 244.933 246.377 244.606 246.499 244.246C246.622 243.887 246.678 243.503 246.665 243.118L241.885 59.1398C241.861 58.3484 241.565 57.5985 241.06 57.0471C240.556 56.4957 239.881 56.1857 239.178 56.1819H123.875C123.533 56.1793 123.194 56.2548 122.879 56.4038C122.564 56.5527 122.279 56.772 122.041 57.0484C121.803 57.3248 121.618 57.6526 121.496 58.0121C121.373 58.3715 121.317 58.7551 121.33 59.1398V59.1398Z" fill="white"/>
<path d="M157.426 117.982H135.02L134.363 93.2618H156.769L157.426 117.982Z" fill="#F5F5F5"/>
<path d="M229.621 103.375H166.569L166.45 98.88H229.502L229.621 103.375Z" fill="#E0E0E0"/>
<path d="M216.585 113.487H167.578L167.453 108.993H216.467L216.585 113.487Z" fill="#E0E0E0"/>
<path d="M158.429 162.927H136.023L135.366 138.207H157.772L158.429 162.927Z" fill="#F5F5F5"/>
<path d="M190.515 148.32H167.57L167.453 143.825H190.39L190.515 148.32Z" fill="#E0E0E0"/>
<path d="M212.575 148.32H195.654L195.529 143.825H212.457L212.575 148.32Z" fill="#E0E0E0"/>
<path d="M223.605 158.433H168.574L168.456 153.938H223.486L223.605 158.433Z" fill="#E0E0E0"/>
<path d="M159.431 207.873H137.025L136.369 183.153H158.775L159.431 207.873Z" fill="#F5F5F5"/>
<path d="M232.51 197.76H169.458L169.577 202.255H232.629L232.51 197.76Z" fill="#E0E0E0"/>
<path d="M218.473 188.771H169.458L169.583 193.265H218.591L218.473 188.771Z" fill="#E0E0E0"/>
<path d="M147.403 111.913C147.307 112.059 147.178 112.177 147.029 112.255C146.88 112.334 146.716 112.371 146.55 112.363C146.385 112.354 146.224 112.301 146.082 112.209C145.94 112.116 145.822 111.986 145.739 111.831V111.831C144.227 109.214 141.445 106.826 139.827 105.64C139.616 105.49 139.466 105.259 139.406 104.993C139.346 104.728 139.38 104.448 139.502 104.209V104.209C139.569 104.083 139.66 103.974 139.769 103.888C139.878 103.802 140.003 103.742 140.134 103.711C140.266 103.681 140.402 103.68 140.534 103.709C140.666 103.739 140.791 103.798 140.9 103.882C142.692 105.183 144.334 106.709 145.792 108.429C145.884 108.551 145.999 108.648 146.13 108.716C146.26 108.783 146.403 108.818 146.548 108.818C146.693 108.818 146.836 108.783 146.967 108.716C147.097 108.648 147.213 108.551 147.304 108.429C150.698 104.074 154.57 100.182 158.834 96.8409C159.047 96.6725 159.313 96.6021 159.573 96.645C159.834 96.6879 160.068 96.8406 160.225 97.0698C160.305 97.1803 160.364 97.3067 160.398 97.4418C160.433 97.577 160.442 97.7182 160.426 97.8573C160.41 97.9963 160.369 98.1306 160.304 98.2523C160.24 98.374 160.154 98.4808 160.051 98.5664C154.245 103.318 150.117 107.693 147.44 111.913H147.403Z" fill="#C0C33F"/>
<path d="M148.419 156.868C148.321 157.012 148.192 157.128 148.043 157.205C147.893 157.281 147.729 157.317 147.564 157.308C147.399 157.299 147.238 157.246 147.097 157.153C146.955 157.061 146.837 156.932 146.753 156.778V156.778C145.277 154.159 142.452 151.769 140.824 150.59C140.615 150.437 140.466 150.206 140.407 149.94C140.348 149.675 140.384 149.396 140.506 149.157V149.157C140.576 149.032 140.669 148.924 140.779 148.84C140.889 148.756 141.014 148.697 141.146 148.667C141.278 148.637 141.415 148.637 141.547 148.666C141.679 148.695 141.804 148.754 141.915 148.838C143.708 150.135 145.35 151.66 146.806 153.381C146.899 153.501 147.014 153.598 147.145 153.665C147.276 153.731 147.419 153.765 147.564 153.765C147.708 153.765 147.851 153.731 147.982 153.665C148.113 153.598 148.228 153.501 148.321 153.381C151.71 149.026 155.578 145.134 159.838 141.79C159.943 141.705 160.063 141.644 160.19 141.61C160.317 141.576 160.449 141.569 160.579 141.59C160.708 141.612 160.833 141.661 160.945 141.734C161.057 141.808 161.154 141.905 161.231 142.019V142.019C161.39 142.242 161.461 142.524 161.429 142.803C161.396 143.082 161.262 143.336 161.057 143.509C155.242 148.273 151.107 152.653 148.427 156.877L148.419 156.868Z" fill="#C0C33F"/>
<path d="M149.037 201.814C148.944 201.958 148.821 202.073 148.678 202.15C148.536 202.227 148.38 202.262 148.222 202.253C148.065 202.244 147.912 202.191 147.777 202.099C147.643 202.007 147.53 201.878 147.45 201.724C146.007 199.106 143.353 196.717 141.809 195.539C141.61 195.386 141.468 195.155 141.41 194.891C141.353 194.626 141.385 194.347 141.499 194.107V194.107C141.564 193.981 141.651 193.871 141.754 193.786C141.858 193.7 141.977 193.64 142.103 193.609C142.228 193.578 142.358 193.577 142.484 193.607C142.61 193.636 142.729 193.695 142.834 193.78C144.541 195.08 146.108 196.604 147.501 198.32C147.589 198.441 147.699 198.537 147.824 198.604C147.948 198.67 148.084 198.704 148.222 198.704C148.36 198.704 148.496 198.67 148.62 198.604C148.745 198.537 148.855 198.441 148.943 198.32C152.168 193.966 155.85 190.075 159.908 186.735C160.008 186.651 160.122 186.59 160.243 186.555C160.364 186.521 160.49 186.515 160.614 186.536C160.737 186.557 160.855 186.606 160.962 186.679C161.069 186.753 161.162 186.85 161.235 186.964V186.964C161.312 187.074 161.369 187.199 161.402 187.334C161.435 187.469 161.445 187.61 161.429 187.748C161.414 187.887 161.374 188.021 161.312 188.142C161.25 188.263 161.168 188.369 161.069 188.453C155.536 193.215 151.591 197.592 149.037 201.814V201.814Z" fill="#C0C33F"/>
<path d="M201.522 234.839C199.034 234.864 196.613 233.939 194.673 232.222C193.129 231.044 191.704 229.94 188.787 229.94C186.677 229.897 184.625 230.709 183.021 232.222C181.15 233.946 178.781 234.875 176.342 234.839C173.85 234.865 171.427 233.941 169.484 232.222C167.941 231.044 166.516 229.94 163.599 229.94C161.49 229.895 159.44 230.708 157.84 232.222C155.969 233.945 153.6 234.873 151.161 234.839C148.672 234.864 146.252 233.939 144.311 232.222C142.767 231.044 141.343 229.94 138.426 229.94L138.374 228.1C140.865 228.074 143.288 228.998 145.231 230.717C146.887 232.22 148.972 233.028 151.117 232.999C153.225 233.043 155.275 232.231 156.876 230.717C158.756 228.984 161.14 228.055 163.592 228.1C166.081 228.075 168.501 228.999 170.442 230.717C171.985 231.895 173.41 232.999 176.327 232.999C178.436 233.043 180.486 232.231 182.086 230.717C183.968 228.986 186.351 228.058 188.802 228.1C191.294 228.074 193.717 228.998 195.66 230.717C197.203 231.895 198.628 232.999 201.545 232.999L201.522 234.839Z" fill="#EBEBEB"/>
<path d="M211.634 55.8052H211.494C209.794 49.5956 205.717 45.4784 201.264 45.4784H192.197C191.495 45.4481 190.818 45.1678 190.261 44.6762C189.703 44.1845 189.292 43.5058 189.084 42.7336C187.869 38.7774 184.889 35.9564 181.466 35.9564C178.044 35.9564 175.196 38.7774 174.158 42.7336C173.985 43.5015 173.6 44.1841 173.061 44.679C172.522 45.1739 171.859 45.4544 171.17 45.4784H162.11C157.657 45.4784 153.764 49.5956 152.351 55.8052H152.218C151.96 55.8254 151.707 55.905 151.475 56.0394C151.244 56.1737 151.038 56.3601 150.87 56.5874C150.702 56.8148 150.575 57.0786 150.497 57.3633C150.419 57.648 150.391 57.9478 150.415 58.245C150.402 58.8554 150.594 59.4482 150.95 59.9007C151.306 60.3532 151.8 60.6309 152.329 60.6764H211.759C212.018 60.6572 212.271 60.5786 212.503 60.4453C212.735 60.312 212.941 60.1265 213.11 59.9C213.278 59.6734 213.406 59.4102 213.485 59.126C213.564 58.8418 213.593 58.5423 213.57 58.245C213.584 57.6291 213.39 57.0307 213.03 56.5756C212.669 56.1206 212.168 55.8445 211.634 55.8052V55.8052Z" fill="#263238"/>
<path d="M144.566 75.9947L144.992 76.2984L145.393 76.4981L144.952 77.5309C144.701 77.4033 144.459 77.2553 144.229 77.0883C144.057 76.9672 143.891 76.8369 143.731 76.6977C143.285 76.8934 142.806 76.9851 142.326 76.9668C141.598 77.0101 140.881 76.756 140.318 76.255C140.019 75.9568 139.782 75.5924 139.624 75.1866C139.466 74.7807 139.39 74.343 139.403 73.9029C139.348 73.4921 139.381 73.0731 139.499 72.6781C139.616 72.283 139.816 71.9223 140.083 71.6234C140.349 71.3245 140.675 71.0953 141.036 70.9534C141.397 70.8114 141.783 70.7605 142.165 70.8044C142.552 70.7778 142.939 70.8339 143.306 70.9695C143.672 71.105 144.011 71.3173 144.301 71.5942C144.777 72.1996 145.059 72.9545 145.107 73.7471C145.155 74.5396 144.965 75.3277 144.566 75.9947V75.9947ZM143.241 75.0486C143.388 74.6766 143.446 74.2707 143.41 73.8682C143.432 73.4102 143.31 72.9577 143.064 72.5837C142.955 72.4539 142.821 72.3516 142.671 72.2841C142.521 72.2166 142.359 72.1855 142.197 72.1931C142.044 72.1877 141.891 72.2209 141.752 72.2902C141.613 72.3595 141.49 72.4629 141.394 72.5923C141.16 72.9501 141.06 73.3904 141.113 73.8248C141.083 74.3108 141.205 74.7936 141.458 75.1962C141.565 75.3255 141.696 75.4277 141.843 75.4953C141.99 75.5629 142.15 75.5941 142.31 75.5867C142.419 75.6004 142.529 75.6004 142.639 75.5867C142.435 75.3997 142.201 75.2554 141.948 75.1614L142.197 74.5018C142.319 74.518 142.438 74.5531 142.551 74.606C142.725 74.7107 142.894 74.8266 143.056 74.9531L143.241 75.0486Z" fill="#263238"/>
<path d="M148.74 70.8052H150.311L150.401 74.1C150.42 74.4033 150.389 74.7078 150.311 75.0001C150.231 75.2874 150.087 75.5495 149.89 75.7635C149.714 75.9642 149.498 76.1206 149.258 76.2216C148.901 76.3529 148.524 76.4155 148.145 76.4064C147.871 76.4059 147.598 76.3871 147.326 76.3501C147.065 76.3224 146.81 76.2463 146.574 76.1251C146.361 76.0034 146.17 75.843 146.01 75.651C145.855 75.4653 145.735 75.2499 145.656 75.0161C145.556 74.7163 145.497 74.4021 145.483 74.0839L145.393 70.7891H146.987L147.078 74.1563C147.073 74.2865 147.094 74.4163 147.138 74.5378C147.182 74.6594 147.248 74.7702 147.333 74.8635C147.42 74.9513 147.523 75.0194 147.636 75.0636C147.748 75.1078 147.868 75.1272 147.988 75.1206C148.105 75.1273 148.222 75.1079 148.332 75.0637C148.442 75.0194 148.543 74.9512 148.627 74.8635C148.765 74.6743 148.83 74.4353 148.807 74.1964L148.74 70.8052Z" fill="#263238"/>
<path d="M154.332 75.4832H152.393L152.152 76.4073H150.407L152.321 70.7891H154.179L156.423 76.4073H154.629L154.332 75.4832ZM153.93 74.2401L153.262 72.2202L152.723 74.2401H153.93Z" fill="#263238"/>
<path d="M156.423 70.7891H157.93L158.037 75.0252H160.398L160.434 76.4073H156.565L156.423 70.7891Z" fill="#263238"/>
<path d="M161.437 70.7891H163.27L163.442 76.4073H161.609L161.437 70.7891Z" fill="#263238"/>
<path d="M163.442 70.7891H168.417L168.455 72.1793H166.789L166.905 76.4073H165.27L165.146 72.1793H163.48L163.442 70.7891Z" fill="#263238"/>
<path d="M168.456 70.7891H170.356L171.524 72.6864L172.587 70.7891H174.472L172.418 74.0602L172.483 76.4073H170.767L170.703 74.0602L168.456 70.7891Z" fill="#263238"/>
<path d="M180.399 75.4832H178.458L178.217 76.4073H176.477L178.394 70.7891H180.254L182.493 76.4073H180.705L180.399 75.4832ZM180.013 74.2401L179.344 72.2202L178.797 74.2401H180.013Z" fill="#263238"/>
<path d="M182.493 74.5189L184.1 74.4161C184.124 74.629 184.201 74.8328 184.325 75.0092C184.421 75.1243 184.545 75.2146 184.685 75.2724C184.825 75.3303 184.977 75.3539 185.128 75.3414C185.33 75.3578 185.531 75.2985 185.69 75.1753C185.749 75.1267 185.795 75.0661 185.827 74.9978C185.859 74.9295 185.876 74.8551 185.875 74.7799C185.87 74.7063 185.85 74.6346 185.815 74.5692C185.781 74.5038 185.733 74.4463 185.674 74.4003C185.405 74.2368 185.104 74.1317 184.791 74.0918C184.21 73.9968 183.66 73.7693 183.184 73.4275C182.916 73.2093 182.739 72.9022 182.686 72.5642C182.633 72.2261 182.707 71.8806 182.895 71.5928C183.066 71.3269 183.32 71.1219 183.618 71.0076C184.048 70.8465 184.507 70.7738 184.967 70.7941C185.53 70.7607 186.09 70.8958 186.574 71.1816C186.772 71.3257 186.936 71.5095 187.057 71.7208C187.177 71.9321 187.251 72.1661 187.273 72.4074L185.666 72.5023C185.639 72.2985 185.539 72.1108 185.385 71.9724C185.219 71.8556 185.018 71.7971 184.815 71.8063C184.655 71.7941 184.497 71.8359 184.365 71.925C184.319 71.9605 184.283 72.0064 184.259 72.0587C184.235 72.1111 184.225 72.1683 184.228 72.2255C184.23 72.2721 184.242 72.3179 184.264 72.359C184.286 72.4002 184.318 72.4357 184.357 72.4627C184.533 72.5683 184.73 72.6357 184.935 72.6604C185.488 72.7586 186.027 72.9205 186.542 73.1428C186.835 73.273 187.085 73.4812 187.265 73.7439C187.415 73.9818 187.498 74.2547 187.506 74.5347C187.517 74.8726 187.424 75.2059 187.241 75.4916C187.052 75.7937 186.771 76.029 186.437 76.1638C186.016 76.3286 185.565 76.4067 185.112 76.3932C184.411 76.4631 183.708 76.2712 183.144 75.8554C182.775 75.4982 182.545 75.0255 182.493 74.5189V74.5189Z" fill="#263238"/>
<path d="M187.507 74.5188L189.124 74.4159C189.15 74.6297 189.231 74.8336 189.358 75.0091C189.452 75.1186 189.569 75.2055 189.703 75.2631C189.836 75.3208 189.981 75.3475 190.126 75.3413C190.33 75.3577 190.532 75.2984 190.692 75.1752C190.751 75.1266 190.798 75.066 190.83 74.9977C190.862 74.9294 190.879 74.855 190.878 74.7798C190.873 74.7062 190.853 74.6345 190.818 74.5691C190.783 74.5037 190.735 74.4462 190.676 74.4001C190.405 74.2367 190.102 74.1315 189.787 74.0917C189.202 73.998 188.648 73.7704 188.17 73.4273C188.009 73.3021 187.88 73.1434 187.79 72.9627C187.701 72.7821 187.653 72.5841 187.652 72.3834C187.643 72.1043 187.719 71.8289 187.871 71.5925C188.048 71.3278 188.305 71.1234 188.606 71.0072C189.04 70.8461 189.502 70.7735 189.965 70.7937C190.531 70.7618 191.094 70.8968 191.582 71.1812C191.781 71.3254 191.946 71.5092 192.068 71.7205C192.189 71.9318 192.263 72.1658 192.285 72.4071L190.668 72.502C190.641 72.2962 190.538 72.1074 190.377 71.9721C190.211 71.8529 190.008 71.7942 189.803 71.806C189.645 71.7949 189.488 71.8368 189.358 71.9246C189.313 71.961 189.276 72.0069 189.251 72.0589C189.226 72.1109 189.213 72.1677 189.213 72.2252C189.218 72.2719 189.232 72.317 189.256 72.3579C189.28 72.3987 189.312 72.4343 189.35 72.4624C189.528 72.568 189.726 72.6354 189.932 72.6602C190.489 72.7583 191.032 72.9203 191.549 73.1426C191.843 73.2749 192.095 73.4826 192.277 73.7437C192.428 73.9817 192.512 74.2546 192.52 74.5346C192.53 74.8725 192.437 75.2058 192.253 75.4915C192.064 75.7944 191.78 76.03 191.444 76.1638C191.023 76.3286 190.572 76.4067 190.118 76.3932C189.412 76.4631 188.705 76.2712 188.137 75.8554C187.775 75.4947 187.552 75.0223 187.507 74.5188V74.5188Z" fill="#263238"/>
<path d="M195.849 70.8211H197.442L197.533 74.0972C197.543 74.406 197.502 74.7143 197.412 75.0082C197.332 75.2939 197.188 75.5545 196.991 75.7673C196.815 75.9668 196.6 76.1223 196.36 76.2227C196.003 76.3527 195.626 76.4149 195.248 76.4065C194.974 76.4063 194.701 76.3876 194.429 76.3506C194.168 76.323 193.914 76.2473 193.678 76.1268C193.465 76.0058 193.275 75.8463 193.114 75.6554C192.964 75.4593 192.852 75.234 192.784 74.9922C192.683 74.694 192.625 74.3816 192.611 74.0653L192.521 70.7891H194.106L194.204 74.1372C194.196 74.3972 194.285 74.6501 194.452 74.8404C194.541 74.9272 194.645 74.9945 194.758 75.0383C194.872 75.0822 194.992 75.1018 195.113 75.0961C195.23 75.1027 195.348 75.0835 195.457 75.0394C195.567 74.9954 195.668 74.9276 195.752 74.8404C195.832 74.7458 195.892 74.6342 195.928 74.5129C195.964 74.3916 195.976 74.2635 195.962 74.1372L195.849 70.8211Z" fill="#263238"/>
<path d="M198.681 76.391L198.537 70.7914H201.087C201.453 70.7778 201.82 70.8245 202.174 70.93C202.423 71.0231 202.64 71.2028 202.794 71.4435C202.955 71.7101 203.043 72.025 203.046 72.3482C203.062 72.6313 203.007 72.9137 202.887 73.1633C202.776 73.3885 202.615 73.5768 202.419 73.7094C202.253 73.8155 202.073 73.8898 201.886 73.9295C202.029 73.9735 202.165 74.0422 202.29 74.1332C202.471 74.3252 202.63 74.5414 202.765 74.7771L203.55 76.4073H201.821L200.964 74.6956C200.891 74.5336 200.794 74.3874 200.676 74.2636C200.562 74.1804 200.43 74.1352 200.294 74.1332H200.157L200.222 76.4073L198.681 76.391ZM200.121 73.0655H200.762C200.899 73.0543 201.034 73.027 201.166 72.984C201.263 72.9615 201.35 72.9009 201.411 72.8128C201.468 72.7166 201.498 72.6029 201.497 72.4868C201.499 72.4079 201.485 72.3296 201.456 72.2577C201.427 72.1858 201.385 72.122 201.332 72.0711C201.161 71.9532 200.961 71.9016 200.762 71.9244H200.085L200.121 73.0655Z" fill="#263238"/>
<path d="M207.475 75.4832H205.537L205.296 76.4073H203.55L205.465 70.7891H207.323L209.567 76.4073H207.773L207.475 75.4832ZM207.105 74.2401L206.438 72.2202L205.899 74.2401H207.105Z" fill="#263238"/>
<path d="M209.566 70.7891H211.045L213.034 73.8967L212.953 70.7891H214.432L214.58 76.4073H213.101L211.119 73.3242L211.201 76.4073H209.722L209.566 70.7891Z" fill="#263238"/>
<path d="M219.187 74.09L220.597 74.5325C220.531 74.9047 220.391 75.2578 220.184 75.5675C219.989 75.8401 219.731 76.0551 219.434 76.1917C219.075 76.3468 218.689 76.4195 218.302 76.4051C217.83 76.4228 217.359 76.3339 216.922 76.1443C216.551 75.9377 216.241 75.6257 216.03 75.2436C215.742 74.7436 215.591 74.1692 215.595 73.5843C215.561 73.2129 215.599 72.8383 215.706 72.4826C215.813 72.127 215.987 71.7977 216.217 71.5142C216.47 71.2626 216.77 71.0688 217.098 70.9451C217.426 70.8214 217.775 70.7704 218.122 70.7952C218.664 70.7638 219.203 70.9071 219.667 71.2061C220.073 71.5254 220.374 71.97 220.529 72.4782L219.134 72.81C219.093 72.6826 219.037 72.5606 218.969 72.4466C218.879 72.3237 218.764 72.2237 218.632 72.1542C218.497 72.0815 218.348 72.0436 218.197 72.0436C218.034 72.0373 217.873 72.0764 217.73 72.1568C217.586 72.2373 217.465 72.3564 217.379 72.5019C217.222 72.8341 217.157 73.2068 217.192 73.5764C217.162 74.0096 217.265 74.4415 217.484 74.809C217.577 74.922 217.692 75.0114 217.822 75.0702C217.952 75.1291 218.093 75.156 218.234 75.1488C218.36 75.1582 218.487 75.1383 218.605 75.0905C218.723 75.0427 218.829 74.9682 218.917 74.8722C219.072 74.6416 219.165 74.3715 219.187 74.09V74.09Z" fill="#263238"/>
<path d="M221.599 70.7891H225.534V71.9912H223.072V72.8826H225.354V74.0275H223.072V75.1397H225.61V76.4073H221.606L221.599 70.7891Z" fill="#263238"/>
<path d="M93.2522 143.825C93.2522 143.825 91.1839 195.408 90.7906 216.296C90.3755 238.03 90.1935 288.775 90.1935 288.775H85.3796C85.3796 288.775 77.6891 246.6 79.9686 216.296C76.5239 193.029 74.2007 143.825 74.2007 143.825H93.2522Z" fill="#FF8B7B"/>
<path d="M86.2332 143.825C86.2332 143.825 74.7574 197.845 70.0681 218.045C65.1166 239.256 58.4612 287.2 58.4175 288.775H54.2525C54.2525 288.775 52.9418 233.388 59.5389 214.555C59.5389 190.956 68.1603 143.825 68.1603 143.825H86.2332Z" fill="#FF8B7B"/>
<path d="M54.1048 285.162C53.2646 286.208 52.5632 291.621 53.8581 294.033C55.153 296.444 53.8581 300.011 58.0975 300.011C62.3368 300.011 62.7222 298.999 61.6816 296.841C60.641 294.682 59.3693 290.626 59.4155 288.088C59.4617 284.817 60.6102 283.13 54.1048 285.162Z" fill="#263238"/>
<path d="M53.211 291.022C53.0959 293.582 53.163 297.764 53.163 297.764H53.9977C53.9977 297.764 54.6213 293.186 55.149 291.487L53.211 291.022Z" fill="#263238"/>
<path d="M97.4639 110.116C97.9925 114.317 98.4616 118.517 98.8935 122.726C99.3254 126.935 99.7498 131.152 100.159 135.402C100.256 136.452 100.331 137.56 100.494 138.437C100.561 138.892 100.643 139.363 100.74 139.867C100.837 140.372 100.911 140.851 101.023 141.339C101.425 143.307 101.939 145.284 102.512 147.26C103.086 149.236 103.637 151.212 104.292 153.172C104.947 155.132 105.602 157.116 106.287 159.026L103.54 160.68C101.393 156.994 99.5152 153.123 97.9255 149.104C97.1245 147.079 96.4187 145.009 95.8109 142.902C95.6471 142.381 95.5131 141.827 95.3716 141.29C95.2301 140.752 95.0886 140.206 94.9695 139.636C94.7362 138.558 94.5523 137.468 94.4185 136.37C93.8229 132.153 93.2619 127.93 92.7358 123.702C92.1848 119.477 91.6784 115.251 91.2466 111.009L97.4639 110.116Z" fill="#FF8B7B"/>
<path d="M95.6505 104.498C97.1795 107.793 97.9732 120.796 99.2546 129.724C99.2961 130.039 99.2411 130.361 99.0989 130.635C98.9568 130.909 98.7364 131.117 98.4755 131.225C96.7669 132.007 95.1863 133.118 93.8011 134.511C93.6449 134.664 93.4566 134.768 93.2548 134.813C93.053 134.857 92.8447 134.839 92.6505 134.762C92.4563 134.685 92.283 134.551 92.1476 134.373C92.0123 134.195 91.9196 133.98 91.8788 133.748L88.2383 114.374L89.8183 110.702C90.2083 109.156 90.9566 107.762 91.9828 106.669C93.0091 105.576 94.2745 104.826 95.6432 104.498H95.6505Z" fill="#263238"/>
<path d="M106.108 158.433L111.301 161.674L105.687 164.051C105.687 164.051 102.833 161.317 103.34 158.655L106.108 158.433Z" fill="#FF8B7B"/>
<path d="M113.306 166.878L108.192 168.545L105.285 164.135L111.274 161.804L113.306 166.878Z" fill="#FF8B7B"/>
<path d="M103.279 165.971L160.367 158.433L160.434 159.038L103.442 167.422L103.279 165.971Z" fill="#263238"/>
<path d="M96.2449 106.57C96.3401 111.563 96.0691 125.643 92.9858 147.196H67.286C67.7035 135.796 68.9559 124.977 64.1733 101.677C67.4577 100.917 70.7869 100.433 74.1339 100.229C77.8522 99.9287 81.5846 99.9287 85.3029 100.229C87.7052 100.478 90.2686 100.919 92.2314 101.302C93.3333 101.517 94.3356 102.16 95.0674 103.12C95.7992 104.081 96.2153 105.3 96.2449 106.57V106.57Z" fill="#263238"/>
<path opacity="0.2" d="M83.2875 147.195C83.2695 147.189 83.2534 147.174 83.2421 147.153C83.2307 147.132 83.2247 147.106 83.2251 147.079C85.0389 122.424 83.4462 112.594 83.4292 112.494C83.4256 112.468 83.4288 112.441 83.4382 112.418C83.4477 112.395 83.4626 112.378 83.4802 112.37C83.4891 112.365 83.4987 112.363 83.5083 112.364C83.5178 112.365 83.5271 112.369 83.5353 112.377C83.5435 112.384 83.5505 112.394 83.5557 112.406C83.5609 112.417 83.5641 112.431 83.5652 112.445C83.5652 112.544 85.1806 122.383 83.3668 147.104C83.3662 147.118 83.3635 147.131 83.3591 147.143C83.3546 147.156 83.3485 147.167 83.341 147.175C83.3335 147.184 83.3249 147.19 83.3157 147.193C83.3064 147.197 83.2968 147.197 83.2875 147.195V147.195Z" fill="white"/>
<path d="M85.111 100.004H74.2007C74.2007 100.004 77.9495 107.361 82.9218 111.24C84.7731 107.919 85.5494 103.934 85.111 100.004Z" fill="#E0E0E0"/>
<path d="M78.8591 81.5164C81.3239 86.1828 80.3394 91.9453 76.6602 94.4114C72.981 96.8776 68.0371 95.0401 65.5436 90.3817C63.05 85.7234 64.0633 79.9045 67.7425 77.4867C71.4217 75.0688 76.3943 76.8419 78.8591 81.5164Z" fill="#263238"/>
<path d="M63.1872 87.6436C63.0509 84.8606 63.771 82.1139 65.2125 79.9193C65.865 78.8864 66.7 78.0373 67.6583 77.4322C68.6166 76.8271 69.6748 76.4808 70.7578 76.4177C71.8408 76.3547 72.9222 76.5766 73.9254 77.0676C74.9285 77.5586 75.8288 78.3067 76.5625 79.259C78.1814 81.2838 79.1244 83.9442 79.2143 86.74H78.85C78.7643 84.0487 77.8576 81.4873 76.3003 79.537C75.603 78.6279 74.7461 77.9135 73.7908 77.4447C72.8355 76.9759 71.8052 76.7642 70.7734 76.8248C69.7416 76.8854 68.7337 77.2167 67.8216 77.7952C66.9095 78.3736 66.1156 79.1849 65.4966 80.1713C64.0983 82.2826 63.396 84.9312 63.5224 87.6176L63.1872 87.6436Z" fill="#263238"/>
<path d="M92.3448 90.3384C94.4083 85.5974 92.8558 79.9838 88.8771 77.8C84.8985 75.6162 80.0004 77.6893 77.9369 82.4302C75.8735 87.1712 77.426 92.7848 81.4046 94.9686C85.3833 97.1524 90.2814 95.0793 92.3448 90.3384Z" fill="#263238"/>
<path d="M75.2928 85.3964C76.0161 89.4984 76.6815 97.0243 74.2007 99.7618C74.2007 99.7618 76.1173 104.107 81.7876 105.622C85.3099 103.11 85.2303 99.7618 85.2303 99.7618C81.2741 98.6651 81.3754 95.2747 82.0625 92.0852L75.2928 85.3964Z" fill="#FF8B7B"/>
<path d="M80.2167 105.897L75.2126 98.88L73.4835 99.9696L73.1978 110.116L76.9051 104.328L80.2167 105.897Z" fill="white"/>
<path d="M83.2251 104.77L84.8801 98.88L86.9601 99.8969L89.2414 107.869L85.8418 103.305L83.2251 104.77Z" fill="white"/>
<path opacity="0.2" d="M78.3422 88.7673L82.2223 92.3363C82.0556 93.0072 81.9454 93.6931 81.8931 94.3855C80.4293 94.1586 78.3913 92.4195 78.2652 90.7635C78.1733 90.0988 78.1994 89.4214 78.3422 88.7673V88.7673Z" fill="black"/>
<path d="M71.4414 79.0363C72.8357 85.7043 73.3077 88.5299 76.7934 91.3805C82.0438 95.6647 88.8483 92.214 89.2114 85.2459C89.5382 78.9529 87.1998 69.1426 81.0562 67.6339C79.7031 67.2939 78.2967 67.3566 76.9706 67.816C75.6444 68.2754 74.4427 69.1162 73.4793 70.2586C72.516 71.4011 71.8231 72.8072 71.4664 74.3434C71.1097 75.8797 71.1011 77.4951 71.4414 79.0363Z" fill="#FF8B7B"/>
<path d="M73.3792 80.9018C77.0472 78.4475 76.563 71.0845 76.563 71.0845C82.9085 70.9945 85.3661 71.0845 87.2954 71.3872C89.2247 71.6899 88.029 68.8101 85.2047 66.4785C82.3803 64.1469 74.7217 64.8423 72.3375 69.301C69.4032 70.61 66.6009 78.0384 73.3792 80.9018Z" fill="#263238"/>
<path d="M68.1841 75.2836C68.1841 75.2836 88.8961 70.0903 93.2518 68.6103C93.2518 65.5549 82.5979 69.3373 82.5979 69.3373L68.1841 75.2836Z" fill="#C0C33F"/>
<path d="M88.2386 67.8155C87.8373 66.2134 84.7536 58.1626 74.1206 61.4631C64.3271 64.5472 67.7675 74.16 67.7675 74.16L88.2386 67.8155Z" fill="#C0C33F"/>
<path d="M81.2194 61.7404L77.4844 60.6764L73.1978 61.5446L73.2499 62.4044L76.0605 62.9236L81.2194 61.7404Z" fill="#C0C33F"/>
<path opacity="0.4" d="M80.8536 70.7891C80.7617 70.7894 80.673 70.748 80.6053 70.6731C80.5376 70.5982 80.4959 70.4953 80.4885 70.385C80.4885 70.1127 80.0285 63.876 73.5077 62.6726C73.4126 62.6531 73.3276 62.5901 73.2704 62.4967C73.2132 62.4033 73.1883 62.2869 73.201 62.1719C73.2188 62.0585 73.2716 61.9575 73.3489 61.8891C73.4261 61.8206 73.5219 61.7899 73.6172 61.803C80.7295 63.1206 81.2114 70.2533 81.2187 70.3235C81.2217 70.3812 81.2152 70.4391 81.1995 70.4937C81.1839 70.5484 81.1594 70.5988 81.1275 70.642C81.0956 70.6853 81.0569 70.7205 81.0137 70.7458C80.9705 70.771 80.9235 70.7857 80.8755 70.7891H80.8536Z" fill="black"/>
<path opacity="0.2" d="M90.9489 208.996L78.1927 205.7C77.8417 202.833 77.5213 199.779 77.2085 196.636L91.2464 199.238C91.132 202.727 91.0328 206.032 90.9489 208.996Z" fill="black"/>
<path opacity="0.2" d="M60.881 193.265L75.2032 196.066C74.5522 198.993 73.9162 201.818 73.3176 204.502L60.1626 200.871C60.3646 198.431 60.6041 195.84 60.881 193.265Z" fill="black"/>
<path d="M82.2406 78.769C82.3083 79.398 82.5851 79.846 82.8558 79.7697C83.1264 79.6935 83.2802 79.1312 83.2064 78.5021C83.1326 77.8731 82.8619 77.4347 82.5913 77.5491C82.3206 77.6634 82.1668 78.14 82.2406 78.769Z" fill="#263238"/>
<path d="M87.2543 77.6475C87.322 78.2669 87.5988 78.7147 87.8695 78.648C88.1401 78.5813 88.2939 78.0096 88.2201 77.3807C88.1463 76.7519 87.8756 76.3041 87.6049 76.4279C87.3343 76.5518 87.1805 77.0187 87.2543 77.6475Z" fill="#263238"/>
<path d="M88.2383 76.1947L89.241 75.2836C89.241 75.2836 88.8466 76.9935 88.2383 76.1947Z" fill="#263238"/>
<path d="M86.2329 78.6545C86.7851 79.6688 87.4599 80.5933 88.2383 81.4019C88.048 81.618 87.8177 81.7852 87.5636 81.8919C87.3095 81.9986 87.0376 82.0422 86.7668 82.0197L86.2329 78.6545Z" fill="#FF5652"/>
<path d="M84.2338 84.2723C84.5255 84.2724 84.8166 84.2518 85.1037 84.2107C85.1232 84.2084 85.1419 84.2031 85.1588 84.195C85.1756 84.1869 85.1903 84.1763 85.2019 84.1636C85.2134 84.151 85.2217 84.1366 85.2262 84.1214C85.2307 84.1062 85.2313 84.0904 85.228 84.075C85.2204 84.0432 85.1975 84.0151 85.164 83.9966C85.1306 83.9782 85.0894 83.9709 85.0493 83.9763C84.4175 84.0753 83.7652 84.0555 83.1448 83.9184C82.5243 83.7813 81.953 83.5307 81.4764 83.1868C81.4496 83.1639 81.4125 83.1503 81.3731 83.1492C81.3338 83.148 81.2955 83.1593 81.2667 83.1806C81.2378 83.2018 81.2208 83.2313 81.2193 83.2626C81.2179 83.2938 81.2321 83.3242 81.2589 83.3471C82.0594 83.9534 83.1277 84.2857 84.2338 84.2723V84.2723Z" fill="#263238"/>
<path d="M70.4095 81.6427C70.6494 82.2024 70.999 82.7097 71.4382 83.1354C71.8775 83.5612 72.3977 83.8969 72.9689 84.1234C74.5247 84.7224 75.4271 83.4245 75.1548 81.9192C74.9059 80.5675 73.8246 78.6167 72.2299 78.6551C71.8779 78.6638 71.5338 78.76 71.2294 78.9349C70.9251 79.1097 70.6704 79.3576 70.4889 79.6555C70.3074 79.9534 70.2049 80.2917 70.1911 80.639C70.1772 80.9864 70.2523 81.3316 70.4095 81.6427V81.6427Z" fill="#FF8B7B"/>
<path d="M79.561 76.406C79.6044 76.4006 79.6464 76.3841 79.6845 76.3575C79.7226 76.3309 79.756 76.2949 79.7826 76.2516C80.0265 75.8484 80.3419 75.5222 80.7039 75.2987C81.0659 75.0753 81.4645 74.9608 81.8679 74.9644C81.91 74.9701 81.9526 74.9653 81.9932 74.9502C82.0338 74.9351 82.0716 74.9101 82.1044 74.8766C82.1372 74.8431 82.1644 74.8017 82.1844 74.7549C82.2044 74.7082 82.2169 74.6569 82.221 74.604C82.2278 74.4963 82.2007 74.3896 82.1454 74.3068C82.0901 74.224 82.0111 74.1717 81.9254 74.1612C81.4154 74.1455 80.9098 74.2819 80.4502 74.5594C79.9905 74.837 79.5901 75.2475 79.2818 75.7573C79.2303 75.8415 79.2066 75.9474 79.2158 76.0529C79.225 76.1584 79.2663 76.2554 79.3311 76.3237C79.3974 76.3846 79.479 76.4138 79.561 76.406V76.406Z" fill="#263238"/>
<path d="M89.0427 74.1435C89.1148 74.1131 89.1746 74.0475 89.2087 73.9612C89.2267 73.9166 89.2374 73.8679 89.2403 73.8179C89.2431 73.768 89.2381 73.7178 89.2254 73.6704C89.2127 73.6229 89.1927 73.5792 89.1665 73.5418C89.1403 73.5044 89.1084 73.4741 89.0729 73.4526C88.6563 73.1791 88.1943 73.0364 87.7255 73.0364C87.2567 73.0364 86.7947 73.1791 86.3782 73.4526C86.311 73.5045 86.2623 73.5876 86.2426 73.6844C86.2228 73.7812 86.2336 73.8839 86.2725 73.9708C86.292 74.0141 86.3181 74.0519 86.3493 74.0822C86.3805 74.1125 86.4161 74.1345 86.4541 74.147C86.492 74.1596 86.5316 74.1623 86.5704 74.1551C86.6092 74.1479 86.6465 74.1309 86.6801 74.1051C87.0102 73.888 87.3765 73.7748 87.7482 73.7748C88.1198 73.7748 88.4861 73.888 88.8162 74.1051C88.8493 74.1327 88.8868 74.1504 88.926 74.1571C88.9652 74.1637 89.0051 74.1591 89.0427 74.1435V74.1435Z" fill="#263238"/>
<path d="M82.2222 77.3184L83.2249 76.4073C83.2249 76.4073 82.8305 78.1171 82.2222 77.3184Z" fill="#263238"/>
<path d="M93.2518 147.196L92.1993 204.502L59.3873 199.235C58.0716 169.269 62.6765 153.542 67.6031 147.196H93.2518Z" fill="#263238"/>
<path opacity="0.2" d="M85.2302 180.905L77.2085 170.23V161.804L85.2302 180.905Z" fill="black"/>
<path d="M67.8439 109.105C66.846 112.464 65.8853 115.975 64.9768 119.409C64.0682 122.844 63.2639 126.346 62.616 129.798C62.3107 131.477 62.0128 133.241 61.8713 134.912V135.231V135.382C61.8713 135.433 61.8713 135.382 61.8713 135.382C61.8548 135.5 61.8731 135.621 61.9234 135.727C62.142 136.25 62.4451 136.722 62.8171 137.121C63.8244 138.251 64.941 139.251 66.146 140.102C67.4269 141.026 68.8344 141.916 70.1898 142.714L69.2366 146.073C67.5337 145.706 65.8619 145.175 64.2395 144.486C62.5058 143.775 60.8689 142.794 59.3765 141.571C58.4752 140.814 57.701 139.881 57.0902 138.817C56.7083 138.13 56.4338 137.375 56.2785 136.583C56.1947 136.144 56.1522 135.697 56.1519 135.248V134.744V134.366C56.204 133.375 56.2785 132.384 56.3827 131.427C56.487 130.469 56.6136 129.512 56.7402 128.563C57.3027 124.837 58.0335 121.145 58.9297 117.503C59.3517 115.689 59.8159 113.889 60.3223 112.103C60.8212 110.315 61.3202 108.559 61.9085 106.745L67.8439 109.105Z" fill="#FF8B7B"/>
<path d="M86.2332 132.489L82.3244 129.218L73.3701 144.392L63.1709 158.525L67.087 161.804L76.034 146.622L86.2332 132.489Z" fill="#FAFAFA"/>
<path d="M83.2251 129.218C84.1284 130.889 85.5659 132.097 87.2359 132.589C86.3327 130.918 84.8951 129.71 83.2251 129.218V129.218Z" fill="#E6E6E6"/>
<path d="M63.1709 158.433C64.0742 160.104 65.5117 161.312 67.1817 161.804C66.2785 160.133 64.841 158.925 63.1709 158.433V158.433Z" fill="#E6E6E6"/>
<path d="M69.3512 141.578L76.206 142.077L71.7208 147.196C71.7208 147.196 67.7817 146.029 67.1816 143.203L69.3512 141.578Z" fill="#FF8B7B"/>
<path d="M77.9827 146.855L76.0207 149.996C75.8487 150.269 75.5944 150.46 75.3061 150.534C75.0178 150.608 74.7157 150.558 74.4574 150.395L70.1895 147.68L75.7393 142.702L77.8577 145.08C78.0605 145.311 78.1844 145.616 78.2073 145.941C78.2302 146.266 78.1506 146.59 77.9827 146.855V146.855Z" fill="#FF8B7B"/>
<path d="M69.4666 107.163C69.011 104.011 66.921 102.154 64.2379 101.127C60.2893 104.345 58.3583 114.974 56.1743 127.371C56.1175 127.73 56.1693 128.1 56.3214 128.422C56.4735 128.744 56.7171 128.999 57.0132 129.146C58.7416 129.961 60.217 130.775 61.2077 131.297C61.3801 131.395 61.5688 131.451 61.7617 131.463C61.9546 131.475 62.1475 131.441 62.3283 131.365C62.5092 131.288 62.6739 131.17 62.8121 131.018C62.9504 130.866 63.0591 130.684 63.1314 130.482L70.1898 110.755L69.4666 107.163Z" fill="#263238"/>
<path d="M99.8556 298.638C99.0986 298.008 98.2566 297.524 97.3628 297.204V297.204C97.3628 297.204 92.9442 294.346 90.6454 285.77L85.5402 284.311C85.4132 284.275 85.2809 284.27 85.1521 284.297C85.0233 284.323 84.9009 284.381 84.793 284.466C84.6851 284.55 84.5941 284.66 84.526 284.788C84.458 284.916 84.4145 285.059 84.3983 285.207C84.346 285.668 84.3162 286.197 84.2639 286.624C84.2154 287.553 84.2154 288.485 84.2639 289.414C84.3087 292.307 84.5923 298.8 84.5923 298.8H85.1894C85.1893 296.823 85.294 294.849 85.5029 292.887C85.794 290.975 86.9956 293.237 87.6375 295.395C88.2794 297.554 90.9589 299.867 94.8176 299.969C99.3332 300.123 101.169 299.892 99.8556 298.638Z" fill="#263238"/>
</svg>
