<svg width="48" height="48" viewBox="0 0 48 48" fill="none" xmlns="http://www.w3.org/2000/svg">
<rect width="48" height="48" rx="8" fill="#008E39"/>
<path d="M16.1429 13C15.3093 13 14.5099 13.3311 13.9205 13.9205C13.3311 14.5099 13 15.3093 13 16.1429V19.2857C13 20.1193 13.3311 20.9186 13.9205 21.508C14.5099 22.0974 15.3093 22.4286 16.1429 22.4286H19.2857C20.1193 22.4286 20.9186 22.0974 21.508 21.508C22.0974 20.9186 22.4286 20.1193 22.4286 19.2857V16.1429C22.4286 15.3093 22.0974 14.5099 21.508 13.9205C20.9186 13.3311 20.1193 13 19.2857 13H16.1429ZM16.1429 25.5714C15.3093 25.5714 14.5099 25.9026 13.9205 26.492C13.3311 27.0814 13 27.8807 13 28.7143V31.8571C13 32.6907 13.3311 33.4901 13.9205 34.0795C14.5099 34.6689 15.3093 35 16.1429 35H19.2857C20.1193 35 20.9186 34.6689 21.508 34.0795C22.0974 33.4901 22.4286 32.6907 22.4286 31.8571V28.7143C22.4286 27.8807 22.0974 27.0814 21.508 26.492C20.9186 25.9026 20.1193 25.5714 19.2857 25.5714H16.1429ZM25.5714 16.1429C25.5714 15.3093 25.9026 14.5099 26.492 13.9205C27.0814 13.3311 27.8807 13 28.7143 13H31.8571C32.6907 13 33.4901 13.3311 34.0795 13.9205C34.6689 14.5099 35 15.3093 35 16.1429V19.2857C35 20.1193 34.6689 20.9186 34.0795 21.508C33.4901 22.0974 32.6907 22.4286 31.8571 22.4286H28.7143C27.8807 22.4286 27.0814 22.0974 26.492 21.508C25.9026 20.9186 25.5714 20.1193 25.5714 19.2857V16.1429ZM25.5714 28.7143C25.5714 27.8807 25.9026 27.0814 26.492 26.492C27.0814 25.9026 27.8807 25.5714 28.7143 25.5714H31.8571C32.6907 25.5714 33.4901 25.9026 34.0795 26.492C34.6689 27.0814 35 27.8807 35 28.7143V31.8571C35 32.6907 34.6689 33.4901 34.0795 34.0795C33.4901 34.6689 32.6907 35 31.8571 35H28.7143C27.8807 35 27.0814 34.6689 26.492 34.0795C25.9026 33.4901 25.5714 32.6907 25.5714 31.8571V28.7143Z" fill="white"/>
</svg>
