<svg width="48" height="48" viewBox="0 0 48 48" fill="none" xmlns="http://www.w3.org/2000/svg">
<rect width="48" height="48" rx="8" fill="#008E39"/>
<path d="M23.7818 14.9418C23.7818 14.692 23.688 14.4525 23.5209 14.2759C23.3538 14.0992 23.1272 14 22.8909 14C22.6546 14 22.428 14.0992 22.2609 14.2759C22.0939 14.4525 22 14.692 22 14.9418V25.3019C22.0001 25.4679 22.0416 25.631 22.1205 25.7745C22.1993 25.9181 22.3127 26.0371 22.449 26.1194L28.6855 29.8867C28.8901 30.0037 29.1299 30.0313 29.3536 29.9638C29.5773 29.8963 29.7672 29.739 29.8826 29.5254C29.998 29.3119 30.0299 29.0591 29.9713 28.8211C29.9128 28.5831 29.7685 28.3788 29.5693 28.2517L23.7818 24.7557V14.9418Z" fill="white"/>
<path d="M24 40C28.2435 40 32.3131 38.3143 35.3137 35.3137C38.3143 32.3131 40 28.2435 40 24C40 19.7565 38.3143 15.6869 35.3137 12.6863C32.3131 9.68571 28.2435 8 24 8C19.7565 8 15.6869 9.68571 12.6863 12.6863C9.68571 15.6869 8 19.7565 8 24C8 28.2435 9.68571 32.3131 12.6863 35.3137C15.6869 38.3143 19.7565 40 24 40ZM38 24C38 27.713 36.525 31.274 33.8995 33.8995C31.274 36.525 27.713 38 24 38C20.287 38 16.726 36.525 14.1005 33.8995C11.475 31.274 10 27.713 10 24C10 20.287 11.475 16.726 14.1005 14.1005C16.726 11.475 20.287 10 24 10C27.713 10 31.274 11.475 33.8995 14.1005C36.525 16.726 38 20.287 38 24Z" fill="white"/>
</svg>
