<svg width="30" height="30" viewBox="0 0 30 30" fill="none" xmlns="http://www.w3.org/2000/svg">
<rect width="30" height="30" rx="10" fill="#008E39"/>
<g clip-path="url(#clip0_3362_6447)">
<path d="M10.3333 11V8.75C10.3333 8.55109 10.4211 8.36032 10.5774 8.21967C10.7337 8.07902 10.9457 8 11.1667 8H21.1667C21.3877 8 21.5996 8.07902 21.7559 8.21967C21.9122 8.36032 22 8.55109 22 8.75V19.25C22 19.4489 21.9122 19.6397 21.7559 19.7803C21.5996 19.921 21.3877 20 21.1667 20H18.6667V22.25C18.6667 22.664 18.2917 23 17.8275 23H7.83917C7.72927 23.0006 7.62033 22.9816 7.5186 22.9442C7.41687 22.9068 7.32436 22.8517 7.24638 22.782C7.1684 22.7123 7.10649 22.6294 7.06421 22.5381C7.02193 22.4468 7.00011 22.3489 7 22.25L7.0025 11.75C7.0025 11.336 7.3775 11 7.84083 11H10.3333ZM8.66833 12.5L8.66667 21.5H17V12.5H8.66833ZM12 11H18.6667V18.5H20.3333V9.5H12V11ZM10.3333 14.75H15.3333V16.25H10.3333V14.75ZM10.3333 17.75H15.3333V19.25H10.3333V17.75Z" fill="#F6F6F6"/>
</g>
<defs>
<clipPath id="clip0_3362_6447">
<rect width="15" height="15" fill="white" transform="translate(7 8)"/>
</clipPath>
</defs>
</svg>
