<svg width="30" height="30" viewBox="0 0 30 30" fill="none" xmlns="http://www.w3.org/2000/svg">
<rect opacity="0.3" width="30" height="30" rx="10" fill="#008E39"/>
<rect width="30" height="30" rx="10" fill="#008E39"/>
<path d="M14.4999 15.9395L17.3911 19.121L16.4269 20.1822L15.1813 18.8113V23H13.8185V18.8098L12.5729 20.1822L11.6088 19.121L14.4999 15.9395ZM14.4999 8C15.6699 8.00006 16.799 8.47334 17.6726 9.32984C18.5463 10.1863 19.1035 11.3663 19.2383 12.6455C20.0862 12.9 20.8258 13.4743 21.3279 14.2681C21.8301 15.062 22.0628 16.0248 21.9854 16.9883C21.9081 17.9518 21.5256 18.8548 20.9047 19.5394C20.2839 20.2239 19.4642 20.6466 18.589 20.7335V19.223C18.9025 19.1737 19.204 19.0562 19.4758 18.8772C19.7477 18.6983 19.9844 18.4615 20.1722 18.1808C20.36 17.9001 20.4951 17.581 20.5697 17.2421C20.6442 16.9033 20.6567 16.5515 20.6064 16.2073C20.556 15.8631 20.4439 15.5334 20.2766 15.2374C20.1092 14.9414 19.89 14.6851 19.6316 14.4834C19.3733 14.2816 19.081 14.1386 18.7719 14.0626C18.4628 13.9865 18.143 13.979 17.8312 14.0405C17.938 13.4937 17.9322 12.9275 17.8144 12.3834C17.6965 11.8394 17.4696 11.3312 17.1503 10.8961C16.8309 10.4611 16.4272 10.1102 15.9686 9.86915C15.5101 9.62809 15.0084 9.50298 14.5003 9.50298C13.9921 9.50298 13.4904 9.62809 13.0319 9.86915C12.5733 10.1102 12.1696 10.4611 11.8503 10.8961C11.5309 11.3312 11.304 11.8394 11.1861 12.3834C11.0683 12.9275 11.0625 13.4937 11.1693 14.0405C10.5476 13.912 9.90502 14.0606 9.38288 14.4536C8.86075 14.8466 8.50183 15.4517 8.38509 16.136C8.26835 16.8203 8.40334 17.5275 8.76037 18.1022C9.11741 18.6769 9.66724 19.072 10.2889 19.2005L10.4116 19.223V20.7335C9.53627 20.6467 8.71652 20.2242 8.09559 19.5396C7.47465 18.8551 7.09203 17.9522 7.01458 16.9886C6.93714 16.0251 7.16981 15.0622 7.67192 14.2683C8.17403 13.4744 8.91365 12.9 9.7615 12.6455C9.89622 11.3663 10.4534 10.1862 11.3271 9.32965C12.2007 8.47311 13.3299 7.9999 14.4999 8V8Z" fill="#F6F6F6"/>
</svg>
