<svg width="30" height="30" viewBox="0 0 30 30" fill="none" xmlns="http://www.w3.org/2000/svg">
<rect width="30" height="30" rx="10" fill="#008E39"/>
<path d="M8.5 8.66667V20.3333H20.5V8.66667H8.5ZM7.75 7H21.25C21.4489 7 21.6397 7.0878 21.7803 7.24408C21.921 7.40036 22 7.61232 22 7.83333V21.1667C22 21.3877 21.921 21.5996 21.7803 21.7559C21.6397 21.9122 21.4489 22 21.25 22H7.75C7.55109 22 7.36032 21.9122 7.21967 21.7559C7.07902 21.5996 7 21.3877 7 21.1667V7.83333C7 7.61232 7.07902 7.40036 7.21967 7.24408C7.36032 7.0878 7.55109 7 7.75 7ZM16.75 10.3333L19.375 12.8333L16.75 15.3333V13.6667H13.75V12H16.75V10.3333ZM12.25 18.6667L9.625 16.1667L12.25 13.6667V15.3333H15.25V17H12.25V18.6667Z" fill="#F6F6F6"/>
</svg>
