<svg width="691" height="574" viewBox="0 0 691 574" fill="none" xmlns="http://www.w3.org/2000/svg">
<path d="M656 275.8V255.057C656 253.098 655.614 251.159 654.864 249.35C654.114 247.54 653.015 245.896 651.629 244.511C650.243 243.126 648.598 242.028 646.787 241.278C644.976 240.529 643.036 240.143 641.076 240.143H599.808C595.85 240.143 592.054 238.572 589.255 235.775C586.456 232.978 584.884 229.184 584.884 225.229V204.486C584.884 196.249 602.976 189.571 611.219 189.571H612.882C616.84 189.571 620.636 188 623.435 185.203C626.234 182.406 627.806 178.613 627.806 174.657V153.914C627.806 151.956 627.42 150.016 626.67 148.207C625.92 146.397 624.821 144.753 623.435 143.368C622.049 141.983 620.404 140.885 618.593 140.135C616.783 139.386 614.842 139 612.882 139H108.639C106.679 139 104.738 139.386 102.927 140.135C101.117 140.885 99.4713 141.983 98.0855 143.368C96.6996 144.753 95.6003 146.397 94.8502 148.207C94.1002 150.016 93.7142 151.956 93.7142 153.914V174.657C93.7142 176.616 94.1002 178.555 94.8502 180.365C95.6003 182.174 96.6996 183.818 98.0855 185.203C99.4713 186.588 101.117 187.687 102.927 188.436C104.738 189.186 106.679 189.571 108.639 189.571C112.597 189.571 116.393 191.143 119.192 193.94C121.991 196.737 123.563 200.53 123.563 204.486V225.229C123.563 229.184 121.991 232.978 119.192 235.775C116.393 238.571 112.597 240.143 108.639 240.143H50.9245C48.9645 240.143 47.0238 240.529 45.2131 241.278C43.4024 242.028 41.7571 243.126 40.3713 244.511C38.9854 245.896 37.8861 247.54 37.1361 249.35C36.386 251.159 36 253.098 36 255.057V275.8C36 279.756 37.5724 283.549 40.3713 286.346C43.1702 289.143 46.9662 290.714 50.9245 290.714H73.5706C77.5288 290.714 81.3249 292.286 84.1238 295.083C86.9227 297.879 88.4951 301.673 88.4951 305.628V326.372C88.4951 328.33 88.1091 330.269 87.359 332.079C86.609 333.888 85.5097 335.533 84.1238 336.918C82.738 338.302 81.0927 339.401 79.282 340.151C77.4713 340.9 75.5305 341.286 73.5706 341.286H73.5159C69.5576 341.286 65.7615 342.857 62.9627 345.654C60.1638 348.451 58.5914 352.245 58.5914 356.2V376.943C58.5914 378.901 58.9774 380.841 59.7275 382.65C60.4775 384.46 61.5768 386.104 62.9627 387.489C64.3485 388.874 65.9938 389.972 67.8045 390.722C69.6152 391.471 71.556 391.857 73.5159 391.857H76.7923C80.7505 391.857 84.5466 393.428 87.3455 396.225C90.1444 399.022 91.7168 402.816 91.7168 406.771V427.514C91.7168 431.47 90.1444 435.263 87.3455 438.06C84.5466 440.857 80.7505 442.429 76.7923 442.429H57.2522C55.2923 442.429 53.3516 442.814 51.5409 443.564C49.7301 444.313 48.0849 445.412 46.699 446.797C45.3132 448.182 44.2138 449.826 43.4638 451.635C42.7138 453.445 42.3278 455.384 42.3278 457.343V478.086C42.3278 482.041 43.9001 485.835 46.699 488.632C49.4979 491.429 53.294 493 57.2522 493H609.484C613.442 493 617.238 491.429 620.037 488.632C622.836 485.835 624.408 482.041 624.408 478.086V457.343C624.408 455.384 624.022 453.445 623.272 451.635C622.522 449.826 621.423 448.182 620.037 446.797C618.651 445.412 617.006 444.313 615.195 443.564C613.384 442.814 611.444 442.429 609.484 442.429H596.544C592.585 442.429 588.789 440.857 585.99 438.06C583.191 435.263 581.619 431.47 581.619 427.514V406.771C581.619 402.816 583.191 399.022 585.99 396.225C588.789 393.428 592.585 391.857 596.544 391.857H627.055C631.014 391.857 634.81 390.286 637.609 387.489C640.407 384.692 641.98 380.898 641.98 376.943V356.2C641.98 352.244 640.407 348.451 637.609 345.654C634.81 342.857 631.014 341.286 627.055 341.286H617.8C613.841 341.286 610.045 339.714 607.246 336.918C604.447 334.121 602.875 330.327 602.875 326.372V305.628C602.875 301.673 604.447 297.879 607.246 295.083C610.045 292.286 613.841 290.714 617.8 290.714H641.076C645.034 290.714 648.83 289.143 651.629 286.346C654.428 283.549 656 279.756 656 275.8Z" fill="#F6F6F6"/>
<path d="M228 239.336C227.997 246.935 224.993 254.222 219.648 259.596C214.304 264.971 207.055 267.993 199.495 268H92.9801C87.5576 268 82.3264 265.986 78.2922 262.344C74.258 258.702 71.7057 253.69 71.126 248.27C70.5463 242.851 71.9801 237.408 75.1518 232.987C78.3235 228.566 83.0091 225.48 88.3077 224.322C88.7316 217.873 91.577 211.827 96.268 207.407C100.959 202.987 107.145 200.524 113.575 200.515C116.179 200.515 118.766 200.931 121.24 201.746C124.994 194.448 130.881 188.482 138.109 184.648C145.337 180.814 153.561 179.297 161.672 180.302C169.784 181.306 177.395 184.784 183.482 190.266C189.568 195.749 193.838 202.973 195.718 210.968C199.743 210.422 203.837 210.747 207.727 211.922C211.616 213.097 215.211 215.096 218.268 217.783C221.326 220.47 223.777 223.783 225.455 227.5C227.134 231.218 228.001 235.253 228 239.336H228Z" fill="#DBEADF"/>
<path d="M414.523 406.797L393.273 375.321C410.404 360.156 421.2 339.138 423.527 316.423C425.854 293.709 419.541 270.952 405.838 252.651C392.135 234.351 372.039 221.84 349.523 217.592C327.007 213.344 303.712 217.669 284.242 229.711C264.773 241.753 250.547 260.635 244.378 282.625C238.209 304.614 240.546 328.11 250.926 348.465C261.307 368.821 278.975 384.554 300.438 392.555C321.901 400.555 345.596 400.24 366.837 391.672L387.551 422.218C388.567 423.983 389.922 425.531 391.539 426.774C393.156 428.016 395.002 428.93 396.973 429.461C398.944 429.993 401.001 430.133 403.026 429.873C405.051 429.613 407.005 428.957 408.776 427.945C410.547 426.932 412.1 425.582 413.347 423.971C414.595 422.361 415.511 420.521 416.045 418.557C416.579 416.593 416.719 414.544 416.458 412.526C416.197 410.509 415.539 408.562 414.523 406.797Z" fill="#3E7E4F"/>
<path d="M332 372C367.899 372 397 342.899 397 307C397 271.101 367.899 242 332 242C296.102 242 267 271.101 267 307C267 342.899 296.102 372 332 372Z" fill="#00B147"/>
<path d="M332.239 242C329.148 242.003 326.06 242.227 323 242.67C338.415 244.899 352.514 252.63 362.711 264.445C372.909 276.261 378.522 291.37 378.522 307.002C378.522 322.635 372.909 337.743 362.711 349.559C352.514 361.375 338.415 369.106 323 371.335C331.804 372.609 340.774 372.049 349.353 369.69C357.931 367.331 365.934 363.223 372.861 357.623C379.788 352.023 385.492 345.051 389.617 337.141C393.741 329.232 396.198 320.554 396.834 311.649C397.47 302.744 396.272 293.803 393.314 285.383C390.356 276.964 385.702 269.246 379.641 262.711C373.581 256.177 366.244 250.965 358.089 247.402C349.933 243.839 341.134 242 332.239 242Z" fill="#008E39"/>
<path d="M297 318C302.523 318 307 313.523 307 308C307 302.477 302.523 298 297 298C291.477 298 287 302.477 287 308C287 313.523 291.477 318 297 318Z" fill="#AAF1C6"/>
<path d="M365 302C368.866 302 372 298.866 372 295C372 291.134 368.866 288 365 288C361.134 288 358 291.134 358 295C358 298.866 361.134 302 365 302Z" fill="#AAF1C6"/>
<path d="M325.5 285C327.985 285 330 282.985 330 280.5C330 278.015 327.985 276 325.5 276C323.015 276 321 278.015 321 280.5C321 282.985 323.015 285 325.5 285Z" fill="#AAF1C6"/>
<path d="M327.5 347C329.985 347 332 344.985 332 342.5C332 340.015 329.985 338 327.5 338C325.015 338 323 340.015 323 342.5C323 344.985 325.015 347 327.5 347Z" fill="#AAF1C6"/>
<path d="M354.5 332C358.09 332 361 329.09 361 325.5C361 321.91 358.09 319 354.5 319C350.91 319 348 321.91 348 325.5C348 329.09 350.91 332 354.5 332Z" fill="#AAF1C6"/>
<path d="M283.5 371C285.433 371 287 369.433 287 367.5C287 365.567 285.433 364 283.5 364C281.567 364 280 365.567 280 367.5C280 369.433 281.567 371 283.5 371Z" fill="#00B147"/>
<path d="M400.5 272C402.433 272 404 270.433 404 268.5C404 266.567 402.433 265 400.5 265C398.567 265 397 266.567 397 268.5C397 270.433 398.567 272 400.5 272Z" fill="#00B147"/>
<path d="M398 345C395.831 349.661 393.171 354.071 390.068 358.154C386.857 362.213 383.254 365.937 379.313 369.272C375.288 372.552 370.959 375.429 366.387 377.864C357.136 382.671 346.98 385.427 336.594 385.949C334.005 385.973 331.421 386.069 328.842 385.911C326.266 385.765 323.7 385.475 321.155 385.042C311.021 383.395 301.391 379.428 293 373.444C302.034 377.713 311.709 380.425 321.625 381.468C331.393 382.433 341.253 381.615 350.736 379.053C355.452 377.753 360.051 376.046 364.48 373.952C368.894 371.784 373.131 369.267 377.152 366.423C381.142 363.47 384.9 360.208 388.391 356.667C391.859 353.009 395.069 349.111 398 345Z" fill="#AAC2F1"/>
<path d="M256.491 322C252.909 308.861 253.195 294.973 257.316 281.992C259.356 275.453 262.29 269.225 266.036 263.484C267.911 260.612 269.986 257.873 272.243 255.288C274.483 252.684 276.894 250.233 279.462 247.951C282.049 245.69 284.775 243.591 287.625 241.668C289.085 240.764 290.494 239.775 292.006 238.957L294.247 237.685L296.552 236.533C298.079 235.746 299.687 235.127 301.254 234.431C302.868 233.844 304.446 233.166 306.093 232.676C309.345 231.592 312.672 230.746 316.048 230.143C322.774 228.959 329.63 228.693 336.428 229.353C343.155 230.037 349.748 231.687 356 234.254C349.557 232.608 342.943 231.712 336.293 231.584C329.726 231.485 323.171 232.17 316.766 233.621C310.419 235.111 304.283 237.382 298.498 240.381C295.613 241.87 292.819 243.528 290.132 245.347C287.465 247.193 284.913 249.199 282.49 251.354C272.689 259.98 265.193 270.898 260.678 283.128C256.156 295.559 254.72 308.896 256.491 322Z" fill="#AAC2F1"/>
<path d="M207 374.646V401.1C207 424.076 208.388 425.816 233.02 428.252V438H151.836V428.252C177.857 425.816 179.591 423.727 179.591 400.752V374.646H88V364.203C120.959 317.208 156.694 266.386 191.388 218H207V357.936H241V374.646L207 374.646ZM179.591 254.551C157.735 286.576 133.449 322.081 109.51 357.936H179.591V254.551Z" fill="#3E7E4F"/>
<path d="M549.999 374.646V401.1C549.999 424.076 551.388 425.816 576.02 428.252V438H494.836V428.252C520.856 425.816 522.591 423.727 522.591 400.752V374.646H431V364.203C463.959 317.208 499.693 266.386 534.388 218H549.999V357.936H584V374.646L549.999 374.646ZM522.591 254.551C500.734 286.576 476.448 322.081 452.51 357.936H522.591V306.243V254.551Z" fill="#3E7E4F"/>
<path d="M605 158.541C604.996 168.472 601.035 177.994 593.988 185.018C586.942 192.041 577.385 195.991 567.417 196H426.98C419.831 196.001 412.933 193.368 407.615 188.609C402.296 183.849 398.93 177.299 398.166 170.217C397.402 163.135 399.292 156.022 403.474 150.245C407.656 144.467 413.834 140.434 420.82 138.921C421.379 130.493 425.13 122.592 431.315 116.816C437.5 111.04 445.657 107.821 454.134 107.809C457.567 107.81 460.978 108.353 464.24 109.418C469.189 99.8815 476.951 92.0838 486.481 87.0738C496.012 82.0637 506.854 80.0817 517.549 81.3944C528.244 82.707 538.279 87.2513 546.304 94.416C554.329 101.581 559.959 111.022 562.437 121.47C567.743 120.755 573.142 121.181 578.27 122.716C583.399 124.252 588.138 126.864 592.169 130.375C596.201 133.886 599.431 138.216 601.644 143.075C603.858 147.933 605.002 153.206 605 158.541Z" fill="#DBEADF"/>
<path d="M605 453.336C604.997 460.935 601.993 468.222 596.648 473.596C591.303 478.971 584.055 481.993 576.495 482H469.98C464.558 482 459.326 479.986 455.292 476.344C451.258 472.702 448.706 467.69 448.126 462.27C447.546 456.851 448.98 451.408 452.152 446.987C455.323 442.566 460.009 439.48 465.308 438.322C465.732 431.873 468.577 425.827 473.268 421.407C477.959 416.987 484.145 414.524 490.575 414.515C493.179 414.515 495.766 414.931 498.24 415.746C501.994 408.448 507.881 402.482 515.109 398.648C522.337 394.814 530.561 393.297 538.672 394.302C546.784 395.306 554.395 398.784 560.482 404.266C566.568 409.749 570.838 416.973 572.718 424.968C576.743 424.422 580.837 424.747 584.727 425.922C588.616 427.097 592.211 429.096 595.268 431.783C598.326 434.47 600.777 437.783 602.455 441.5C604.134 445.218 605.001 449.253 605 453.336V453.336Z" fill="#DBEADF"/>
<path d="M287 457H324" stroke="#00B147" stroke-width="3" stroke-miterlimit="10" stroke-linecap="round"/>
<path d="M287 446H324" stroke="#00B147" stroke-width="3" stroke-miterlimit="10" stroke-linecap="round"/>
<path d="M287 467H324" stroke="#00B147" stroke-width="3" stroke-miterlimit="10" stroke-linecap="round"/>
<path d="M587 305H624" stroke="#00B147" stroke-width="3" stroke-miterlimit="10" stroke-linecap="round"/>
<path d="M587 316H624" stroke="#00B147" stroke-width="3" stroke-miterlimit="10" stroke-linecap="round"/>
<path d="M587 326H624" stroke="#00B147" stroke-width="3" stroke-miterlimit="10" stroke-linecap="round"/>
<path d="M67.5 469C77.7173 469 86 460.717 86 450.5C86 440.283 77.7173 432 67.5 432C57.2827 432 49 440.283 49 450.5C49 460.717 57.2827 469 67.5 469Z" fill="#DBEADF"/>
<path d="M91 431C96.5228 431 101 426.523 101 421C101 415.477 96.5228 411 91 411C85.4772 411 81 415.477 81 421C81 426.523 85.4772 431 91 431Z" fill="#DBEADF"/>
<path d="M139.5 473C144.194 473 148 469.194 148 464.5C148 459.806 144.194 456 139.5 456C134.806 456 131 459.806 131 464.5C131 469.194 134.806 473 139.5 473Z" fill="#DBEADF"/>
<path d="M119.5 445C122.538 445 125 442.538 125 439.5C125 436.462 122.538 434 119.5 434C116.462 434 114 436.462 114 439.5C114 442.538 116.462 445 119.5 445Z" fill="#DBEADF"/>
<path d="M106.5 481C113.956 481 120 474.956 120 467.5C120 460.044 113.956 454 106.5 454C99.0442 454 93 460.044 93 467.5C93 474.956 99.0442 481 106.5 481Z" fill="#DBEADF"/>
<path d="M326.5 198C336.717 198 345 189.717 345 179.5C345 169.283 336.717 161 326.5 161C316.283 161 308 169.283 308 179.5C308 189.717 316.283 198 326.5 198Z" fill="#DBEADF"/>
<path d="M289.5 207C294.194 207 298 203.194 298 198.5C298 193.806 294.194 190 289.5 190C284.806 190 281 193.806 281 198.5C281 203.194 284.806 207 289.5 207Z" fill="#DBEADF"/>
<path d="M279.5 180C286.956 180 293 173.956 293 166.5C293 159.044 286.956 153 279.5 153C272.044 153 266 159.044 266 166.5C266 173.956 272.044 180 279.5 180Z" fill="#DBEADF"/>
</svg>
