<svg width="48" height="48" viewBox="0 0 48 48" fill="none" xmlns="http://www.w3.org/2000/svg">
<rect width="48" height="48" rx="8" fill="#008E39"/>
<path d="M24.2097 22.0978C24.1847 22.0673 24.1529 22.0427 24.1165 22.0257C24.0801 22.0088 24.0402 22 23.9997 22C23.9592 22 23.9193 22.0088 23.8829 22.0257C23.8465 22.0427 23.8146 22.0673 23.7897 22.0978L20.0566 26.612C20.0258 26.6495 20.0067 26.6946 20.0015 26.7421C19.9962 26.7895 20.0051 26.8374 20.027 26.8803C20.0489 26.9231 20.083 26.9592 20.1253 26.9845C20.1677 27.0097 20.2166 27.023 20.2666 27.0229H22.7298V34.7451C22.7298 34.8853 22.8497 35 22.9964 35H24.9963C25.143 35 25.2629 34.8853 25.2629 34.7451V27.0261H27.7328C27.9561 27.0261 28.0795 26.7808 27.9428 26.6152L24.2097 22.0978Z" fill="white"/>
<path d="M33.3563 19.5455C31.925 15.7202 28.2781 13 24.0063 13C19.7344 13 16.0875 15.717 14.6562 19.5423C11.9781 20.2548 10 22.728 10 25.6667C10 29.1658 12.7969 32 16.2469 32H17.5C17.6375 32 17.75 31.886 17.75 31.7467V29.8467C17.75 29.7073 17.6375 29.5933 17.5 29.5933H16.2469C15.1937 29.5933 14.2031 29.169 13.4656 28.3995C12.7312 27.6332 12.3406 26.6008 12.375 25.5305C12.4031 24.6945 12.6844 23.9092 13.1937 23.2473C13.7156 22.5728 14.4469 22.082 15.2594 21.8635L16.4438 21.55L16.8781 20.391C17.1469 19.669 17.5219 18.9945 17.9937 18.3833C18.4596 17.7776 19.0114 17.2451 19.6313 16.8032C20.9156 15.888 22.4281 15.4035 24.0063 15.4035C25.5844 15.4035 27.0969 15.888 28.3813 16.8032C29.0031 17.2465 29.5531 17.7785 30.0187 18.3833C30.4906 18.9945 30.8656 19.6722 31.1344 20.391L31.5656 21.5468L32.7469 21.8635C34.4406 22.3258 35.625 23.887 35.625 25.6667C35.625 26.7148 35.2219 27.7028 34.4906 28.4438C34.132 28.8094 33.7054 29.0992 33.2355 29.2965C32.7656 29.4938 32.2618 29.5947 31.7531 29.5933H30.5C30.3625 29.5933 30.25 29.7073 30.25 29.8467V31.7467C30.25 31.886 30.3625 32 30.5 32H31.7531C35.2031 32 38 29.1658 38 25.6667C38 22.7312 36.0281 20.2612 33.3563 19.5455Z" fill="white"/>
</svg>
