<svg width="150" height="24" viewBox="0 0 150 24" fill="none" xmlns="http://www.w3.org/2000/svg">
<path d="M17.9999 24V22.2857C17.9999 22.0606 17.9611 21.8376 17.8857 21.6296C17.8104 21.4217 17.6999 21.2327 17.5606 21.0734C17.4212 20.9143 17.2559 20.788 17.074 20.7019C16.892 20.6157 16.6969 20.5714 16.4999 20.5714H10.4995C8.5104 20.5714 6.60275 19.6683 5.19621 18.0609C3.78968 16.4534 2.99949 14.2733 2.99946 12C2.99946 10.8744 3.19346 9.75978 3.57037 8.71985C3.94729 7.6799 4.49974 6.735 5.19619 5.93906C5.89264 5.14313 6.71943 4.51178 7.62938 4.08103C8.53932 3.65028 9.5146 3.4286 10.4995 3.42861H16.4995C16.6964 3.42867 16.8916 3.38438 17.0736 3.29827C17.2556 3.21214 17.4211 3.08588 17.5604 2.92669C17.6998 2.76748 17.8103 2.57848 17.8857 2.37046C17.9611 2.16244 17.9999 1.93948 17.9999 1.7143V0H10.4999C9.12099 0 7.75563 0.31039 6.48171 0.913447C5.2078 1.5165 4.0503 2.40042 3.0753 3.51472C2.1003 4.62903 1.32688 5.9519 0.799222 7.40781C0.271562 8.86371 -1.47734e-05 10.4241 6.02757e-10 12C-5.22196e-10 15.1825 1.10623 18.2348 3.07533 20.4853C5.04443 22.7357 7.71512 24 10.4999 24H17.9999Z" fill="#4A975F"/>
<path d="M6 12C6 13.364 6.47409 14.672 7.31797 15.6364C8.16184 16.6009 9.30639 17.1427 10.4998 17.1427H18.0004C18.7961 17.1427 19.5591 17.5039 20.1216 18.1469C20.6842 18.7898 21.0003 19.6619 21.0003 20.5713V23.9999H24.0004V20.5714C24.0004 18.7528 23.3683 17.0087 22.2431 15.7226C21.1178 14.4367 19.5917 13.7143 18.0004 13.7143H10.5C10.1022 13.7143 9.72068 13.5337 9.43936 13.2123C9.15806 12.8907 9.00002 12.4547 9.00002 12C9.00002 11.5453 9.15806 11.1093 9.43936 10.7878C9.72068 10.4663 10.1022 10.2857 10.5 10.2857H18.0004C19.5917 10.2857 21.1178 9.56326 22.2431 8.2773C23.3683 6.99135 24.0004 5.24722 24.0004 3.42861V0H20.9999V3.42861C20.9999 4.3378 20.6839 5.20978 20.1214 5.85273C19.5589 6.49567 18.796 6.85695 18.0004 6.85709H10.5C9.90908 6.85705 9.3239 6.99005 8.77791 7.2485C8.23193 7.50694 7.73584 7.88577 7.31797 8.36333C6.9001 8.84091 6.56863 9.40787 6.34249 10.0319C6.11635 10.6558 5.99998 11.3246 6 12Z" fill="#B4B718"/>
<path d="M47.3404 16.62V19.5H37.3604V5.3H47.1604V8.18H40.6404V10.94H46.2404V13.6H40.6404V16.62H47.3404ZM51.333 9L53.193 11.96L53.393 12.34L53.593 11.96L55.453 9H58.753L55.233 14.22L58.833 19.5H55.533L53.573 16.56L53.393 16.18L53.213 16.56L51.253 19.5H47.953L51.553 14.28L48.033 9H51.333ZM64.4641 19.7C63.5708 19.7 62.7774 19.5533 62.0841 19.26C61.3908 18.9667 60.7974 18.5667 60.3041 18.06C59.8241 17.5533 59.4574 16.9733 59.2041 16.32C58.9508 15.6667 58.8241 14.9733 58.8241 14.24C58.8241 13.28 59.0441 12.3867 59.4841 11.56C59.9374 10.7333 60.5841 10.0667 61.4241 9.56C62.2641 9.05333 63.2774 8.8 64.4641 8.8C65.6641 8.8 66.6775 9.06 67.5041 9.58C68.3441 10.0867 68.9708 10.7533 69.3841 11.58L66.2641 12.52C66.0641 12.2 65.8041 11.9533 65.4841 11.78C65.1774 11.6067 64.8308 11.52 64.4441 11.52C64.0041 11.52 63.6041 11.6333 63.2441 11.86C62.8974 12.0867 62.6174 12.4 62.4041 12.8C62.2041 13.2 62.1041 13.68 62.1041 14.24C62.1041 14.7867 62.2108 15.2667 62.4241 15.68C62.6374 16.0933 62.9174 16.42 63.2641 16.66C63.6108 16.8867 64.0041 17 64.4441 17C64.7108 17 64.9574 16.96 65.1841 16.88C65.4241 16.7867 65.6374 16.66 65.8241 16.5C66.0241 16.34 66.1775 16.16 66.2841 15.96L69.4041 16.92C69.1508 17.4533 68.7841 17.9333 68.3041 18.36C67.8375 18.7733 67.2841 19.1 66.6441 19.34C66.0041 19.58 65.2774 19.7 64.4641 19.7ZM75.7727 19.7C74.8794 19.7 74.086 19.56 73.3927 19.28C72.6994 18.9867 72.106 18.5933 71.6127 18.1C71.1327 17.6067 70.766 17.04 70.5127 16.4C70.2594 15.7467 70.1327 15.0667 70.1327 14.36C70.1327 13.3467 70.3527 12.4267 70.7927 11.6C71.246 10.76 71.8927 10.0867 72.7327 9.58C73.5727 9.06 74.586 8.8 75.7727 8.8C76.9594 8.8 77.966 9.05333 78.7927 9.56C79.6327 10.0667 80.2727 10.7333 80.7127 11.56C81.1527 12.3733 81.3727 13.26 81.3727 14.22C81.3727 14.4067 81.3594 14.5933 81.3327 14.78C81.3194 14.9533 81.306 15.1067 81.2927 15.24H73.5327C73.5727 15.7067 73.6994 16.1 73.9127 16.42C74.1394 16.74 74.426 16.9867 74.7727 17.16C75.1194 17.32 75.486 17.4 75.8727 17.4C76.3527 17.4 76.7994 17.2867 77.2127 17.06C77.6394 16.8333 77.9327 16.5267 78.0927 16.14L80.8127 16.9C80.546 17.4467 80.166 17.9333 79.6727 18.36C79.1927 18.7733 78.6194 19.1 77.9527 19.34C77.2994 19.58 76.5727 19.7 75.7727 19.7ZM73.4527 13.28H78.0127C77.9594 12.84 77.8327 12.46 77.6327 12.14C77.4327 11.8067 77.166 11.5533 76.8327 11.38C76.4994 11.1933 76.1327 11.1 75.7327 11.1C75.3194 11.1 74.946 11.1933 74.6127 11.38C74.2927 11.5533 74.0327 11.8067 73.8327 12.14C73.6327 12.46 73.506 12.84 73.4527 13.28ZM82.783 4.9H85.983V15.76C85.983 16.2 86.063 16.5133 86.223 16.7C86.383 16.8867 86.6097 16.98 86.903 16.98C87.103 16.98 87.303 16.9533 87.503 16.9C87.7164 16.8333 87.903 16.76 88.063 16.68L88.483 19.08C88.083 19.2667 87.623 19.4133 87.103 19.52C86.583 19.6267 86.0964 19.68 85.643 19.68C84.7364 19.68 84.0297 19.44 83.523 18.96C83.0297 18.4667 82.783 17.7733 82.783 16.88V4.9Z" fill="#4A975F"/>
<path d="M93.1224 12.28C93.1224 11.4133 93.2824 10.5667 93.6024 9.74C93.9224 8.9 94.3891 8.14 95.0024 7.46C95.6157 6.78 96.3624 6.24 97.2424 5.84C98.1224 5.42667 99.1224 5.22 100.242 5.22C101.576 5.22 102.729 5.50667 103.702 6.08C104.689 6.65333 105.422 7.4 105.902 8.32L103.382 10.08C103.169 9.57333 102.882 9.18 102.522 8.9C102.176 8.62 101.789 8.42667 101.362 8.32C100.949 8.2 100.549 8.14 100.162 8.14C99.5357 8.14 98.9891 8.26667 98.5224 8.52C98.0557 8.76 97.6691 9.08667 97.3624 9.5C97.0557 9.91333 96.8291 10.3733 96.6824 10.88C96.5357 11.3867 96.4624 11.8933 96.4624 12.4C96.4624 12.96 96.5491 13.5 96.7224 14.02C96.8957 14.54 97.1424 15 97.4624 15.4C97.7957 15.8 98.1957 16.12 98.6624 16.36C99.1291 16.5867 99.6424 16.7 100.202 16.7C100.602 16.7 101.009 16.6333 101.422 16.5C101.836 16.3667 102.216 16.16 102.562 15.88C102.922 15.5867 103.196 15.2067 103.382 14.74L106.062 16.32C105.782 17.0133 105.322 17.6067 104.682 18.1C104.042 18.5933 103.316 18.9733 102.502 19.24C101.702 19.4933 100.909 19.62 100.122 19.62C99.0957 19.62 98.1491 19.4133 97.2824 19C96.4291 18.5733 95.6891 18.0133 95.0624 17.32C94.4491 16.6133 93.9691 15.8267 93.6224 14.96C93.2891 14.08 93.1224 13.1867 93.1224 12.28ZM112.374 19.7C111.48 19.7 110.68 19.5533 109.974 19.26C109.28 18.9667 108.694 18.5667 108.214 18.06C107.734 17.5533 107.367 16.9733 107.114 16.32C106.874 15.6667 106.754 14.98 106.754 14.26C106.754 13.5267 106.874 12.8333 107.114 12.18C107.367 11.5267 107.734 10.9467 108.214 10.44C108.694 9.93333 109.28 9.53333 109.974 9.24C110.68 8.94667 111.48 8.8 112.374 8.8C113.267 8.8 114.06 8.94667 114.754 9.24C115.447 9.53333 116.034 9.93333 116.514 10.44C116.994 10.9467 117.36 11.5267 117.614 12.18C117.867 12.8333 117.994 13.5267 117.994 14.26C117.994 14.98 117.867 15.6667 117.614 16.32C117.36 16.9733 116.994 17.5533 116.514 18.06C116.034 18.5667 115.447 18.9667 114.754 19.26C114.06 19.5533 113.267 19.7 112.374 19.7ZM110.034 14.26C110.034 14.8067 110.134 15.2867 110.334 15.7C110.547 16.1133 110.827 16.4333 111.174 16.66C111.52 16.8867 111.92 17 112.374 17C112.814 17 113.207 16.8867 113.554 16.66C113.914 16.42 114.194 16.0933 114.394 15.68C114.594 15.2667 114.694 14.7933 114.694 14.26C114.694 13.7133 114.594 13.2333 114.394 12.82C114.194 12.4067 113.914 12.0867 113.554 11.86C113.207 11.6333 112.814 11.52 112.374 11.52C111.92 11.52 111.52 11.6333 111.174 11.86C110.827 12.0867 110.547 12.4067 110.334 12.82C110.134 13.2333 110.034 13.7133 110.034 14.26ZM136.181 19.5H132.981V13.6C132.981 12.92 132.854 12.42 132.601 12.1C132.348 11.78 132.021 11.62 131.621 11.62C131.194 11.62 130.774 11.7933 130.361 12.14C129.948 12.4867 129.654 12.9333 129.481 13.48V19.5H126.281V13.6C126.281 12.9067 126.154 12.4067 125.901 12.1C125.648 11.78 125.321 11.62 124.921 11.62C124.508 11.62 124.094 11.7933 123.681 12.14C123.268 12.4867 122.968 12.9333 122.781 13.48V19.5H119.581V9H122.461V10.76C122.848 10.1333 123.368 9.65333 124.021 9.32C124.688 8.97333 125.461 8.8 126.341 8.8C127.208 8.8 127.874 9.00667 128.341 9.42C128.808 9.82 129.108 10.2933 129.241 10.84C129.641 10.1867 130.168 9.68667 130.821 9.34C131.488 8.98 132.234 8.8 133.061 8.8C133.728 8.8 134.268 8.92667 134.681 9.18C135.094 9.42 135.408 9.74 135.621 10.14C135.834 10.54 135.981 10.9733 136.061 11.44C136.141 11.8933 136.181 12.34 136.181 12.78V19.5ZM144.912 19.7C144.126 19.7 143.439 19.5333 142.852 19.2C142.266 18.8533 141.806 18.3867 141.472 17.8V23.76H138.272V9H141.052V10.7C141.439 10.1 141.926 9.63333 142.512 9.3C143.099 8.96667 143.786 8.8 144.572 8.8C145.279 8.8 145.926 8.94 146.512 9.22C147.112 9.5 147.632 9.88667 148.072 10.38C148.512 10.8733 148.852 11.4467 149.092 12.1C149.332 12.7533 149.452 13.46 149.452 14.22C149.452 15.26 149.259 16.1933 148.872 17.02C148.486 17.8467 147.946 18.5 147.252 18.98C146.572 19.46 145.792 19.7 144.912 19.7ZM143.832 17C144.179 17 144.492 16.9267 144.772 16.78C145.066 16.62 145.319 16.4133 145.532 16.16C145.746 15.9067 145.906 15.6133 146.012 15.28C146.132 14.9333 146.192 14.5733 146.192 14.2C146.192 13.8133 146.126 13.46 145.992 13.14C145.872 12.82 145.699 12.54 145.472 12.3C145.246 12.0467 144.979 11.8533 144.672 11.72C144.366 11.5867 144.032 11.52 143.672 11.52C143.459 11.52 143.239 11.5533 143.012 11.62C142.799 11.6867 142.592 11.7867 142.392 11.92C142.206 12.04 142.032 12.1867 141.872 12.36C141.712 12.5333 141.579 12.7333 141.472 12.96V15.12C141.619 15.48 141.812 15.8 142.052 16.08C142.292 16.36 142.566 16.5867 142.872 16.76C143.179 16.92 143.499 17 143.832 17Z" fill="#B4B718"/>
</svg>
